<svg width="40" height="40" viewBox="0 0 40 40" fill="none" xmlns="http://www.w3.org/2000/svg">
<g clip-path="url(#clip0_2696_24405)">
<path d="M40 20C40 31.0469 31.0469 40 20 40C8.95313 40 0 31.0469 0 20C0 8.95313 8.95313 0 20 0C31.0469 0 40 8.95313 40 20Z" fill="white"/>
<path d="M35.4313 19.9998C35.4313 28.5256 28.5164 35.4303 20.0008 35.4303C11.475 35.4303 4.57031 28.5154 4.57031 19.9998C4.57031 11.474 11.4852 4.56934 20.0008 4.56934C28.5266 4.56934 35.4313 11.474 35.4313 19.9998Z" fill="#132249"/>
<path d="M35.4313 19.9998H35.3766C35.3766 24.2521 33.6562 28.0982 30.8727 30.8818C28.0891 33.6654 24.2422 35.3857 19.9906 35.3857C15.7391 35.3857 11.8922 33.6654 9.10859 30.8818C6.325 28.0982 4.60391 24.2521 4.60391 19.9998C4.60391 15.7475 6.32422 11.9014 9.10781 9.11777C11.8914 6.33418 15.7383 4.61387 19.9898 4.61387C24.2414 4.61387 28.0883 6.33418 30.8719 9.11777C33.6555 11.9014 35.3758 15.7475 35.3758 19.9998H35.4313H35.4859C35.4859 11.4521 28.5492 4.51465 20.0008 4.51465C11.4523 4.51465 4.51562 11.4521 4.51562 19.9998C4.51562 28.5475 11.4531 35.485 20.0008 35.485C28.5484 35.485 35.4859 28.5475 35.4859 19.9998H35.4313Z" fill="#132249"/>
<path d="M6.62891 33.2819L8.29453 31.5835L8.67812 31.9671L7.0125 33.6546L6.62891 33.2819Z" fill="#132249"/>
<path d="M7.80234 31.1125L5.96094 32.6031L5.56641 32.1094L5.92813 31.1781C6.0375 30.9148 6.18047 30.6195 6.31172 30.3672V30.3562C6.09219 30.5758 5.84063 30.7836 5.56641 31.0141L5.02969 31.4523L4.72266 31.0687L6.56406 29.5781L6.91484 30.0164L6.52031 30.9914C6.41094 31.2656 6.26797 31.5719 6.12578 31.8352L6.13672 31.8461C6.37812 31.6375 6.62969 31.4188 6.92578 31.1773L7.48437 30.7281L7.80234 31.1125Z" fill="#132249"/>
<path d="M5.56583 28.7671C5.5549 28.7234 5.51115 28.6577 5.47833 28.603C5.23693 28.1757 4.8424 28.0335 4.34943 28.3179C3.91115 28.5702 3.83458 28.9429 4.06427 29.3484C4.11896 29.4468 4.17365 29.5124 4.20646 29.5452L5.56583 28.7671ZM4.15177 30.1913C4.02052 30.0382 3.87755 29.8187 3.7463 29.5882C3.51583 29.1937 3.43927 28.8976 3.47208 28.6241C3.5049 28.3171 3.69161 28.0327 4.05255 27.8241C4.44708 27.5937 4.79786 27.5827 5.08302 27.6819C5.39005 27.7913 5.66349 28.0765 5.89396 28.4819C6.03615 28.7234 6.11349 28.9093 6.16818 29.0296L4.15177 30.1913Z" fill="#132249"/>
<path d="M2.54297 27.1127L4.72422 26.1807L4.93203 26.6744L2.75156 27.6057L2.54297 27.1127Z" fill="#132249"/>
<path d="M3.16875 24.7346L2.73047 25.0197C2.61016 25.0963 2.44531 25.1838 2.325 25.2611V25.2721C2.46719 25.2611 2.65391 25.2502 2.79609 25.2393H3.32187L3.16875 24.7346ZM3.72734 25.1947L4.36328 25.1838L4.51641 25.7205L2.02891 25.6986L1.83203 25.0299L3.90312 23.6494L4.06719 24.208L3.53047 24.5588L3.72734 25.1947Z" fill="#132249"/>
<path d="M3.79219 23.1236L1.43594 23.4307L1.35937 22.8057L2.15937 22.2025C2.38984 22.0275 2.66328 21.8518 2.91563 21.7096V21.6986C2.60859 21.7752 2.29062 21.8189 1.94062 21.8736L1.26094 21.9611L1.19531 21.4682L3.55156 21.1611L3.62812 21.7197L2.78438 22.3447C2.54297 22.5197 2.26953 22.7174 2.00625 22.8596V22.8705C2.31328 22.8158 2.65312 22.7611 3.03672 22.7174L3.74922 22.6299L3.79219 23.1236Z" fill="#132249"/>
<path d="M1.18203 18.9365L3.54922 19.0357L3.52734 19.5725L1.16016 19.474L1.18203 18.9365Z" fill="#132249"/>
<path d="M3.58359 18.3563L1.23828 17.9836L1.33672 17.3695L2.26797 17.0187C2.54219 16.9203 2.84844 16.8328 3.13359 16.7664V16.7555C2.81563 16.7336 2.49766 16.7008 2.14766 16.6461L1.46797 16.5367L1.54453 16.0547L3.88984 16.4273L3.80234 16.9859L2.81641 17.3477C2.54219 17.4461 2.21328 17.5562 1.92891 17.6219V17.6328C2.24688 17.6656 2.57578 17.7094 2.95938 17.775L3.66094 17.8844L3.58359 18.3563Z" fill="#132249"/>
<path d="M3.55192 15.5727C3.66129 15.4633 3.80426 15.2656 3.86989 15.0469C3.94645 14.8164 3.88082 14.6523 3.73864 14.6086C3.59645 14.5648 3.48629 14.6414 3.30035 14.8937C3.04801 15.2227 2.76364 15.4086 2.43473 15.3102C2.05114 15.1898 1.85426 14.7734 2.02926 14.2359C2.10582 13.9727 2.2152 13.8086 2.32535 13.6992L2.69801 13.9406C2.63239 14.0172 2.51207 14.1602 2.44567 14.3789C2.38004 14.5984 2.44567 14.7406 2.56598 14.7734C2.70817 14.8172 2.81832 14.7187 3.0152 14.4555C3.28942 14.1047 3.55192 13.9844 3.88082 14.0828C4.26442 14.2031 4.49489 14.5867 4.29723 15.2117C4.22067 15.475 4.06676 15.7047 3.95739 15.8148L3.55192 15.5727Z" fill="#132249"/>
<path d="M3.1875 12.5258L2.91328 13.107L2.50781 12.9203L3.275 11.2656L3.68047 11.4523L3.40703 12.0438L5.14922 12.8547L4.92969 13.3367L3.1875 12.5258Z" fill="#132249"/>
<path d="M3.92266 10.1587L5.96094 11.3751L5.68672 11.836L3.64844 10.6196L3.92266 10.1587Z" fill="#132249"/>
<path d="M5.05391 9.28203L4.67031 9.79688L4.30859 9.52344L5.39297 8.05469L5.75469 8.32891L5.37109 8.84375L6.91641 9.99453L6.59844 10.4219L5.05391 9.28203Z" fill="#132249"/>
<path d="M6.31406 7.04697L7.27813 8.01104C7.57422 8.29619 7.82578 8.33994 8.02344 8.14229C8.22031 7.94541 8.1875 7.69307 7.89219 7.39697L6.92734 6.43291L7.3 6.04932L8.24219 6.9915C8.75703 7.50635 8.74609 8.01104 8.31875 8.46025C7.90234 8.8876 7.40938 8.89854 6.88281 8.36182L5.94141 7.43057L6.31406 7.04697Z" fill="#132249"/>
<path d="M8.71172 5.46875L8.20781 5.85234L7.93359 5.50156L9.39063 4.39453L9.66484 4.75625L9.13906 5.15078L10.3008 6.68516L9.87344 7.00312L8.71172 5.46875Z" fill="#132249"/>
<path d="M11.9664 4.46006L11.2102 4.8874L11.4953 5.38037L12.3391 4.89834L12.5578 5.28193L11.243 6.02725L10.0703 3.96709L11.3414 3.24365L11.55 3.62725L10.75 4.0874L10.9906 4.51475L11.7578 4.07646L11.9664 4.46006Z" fill="#132249"/>
<path d="M14.7838 3.96701C15.1237 3.85764 15.2221 3.46311 15.0799 3.02483C14.9487 2.61936 14.6417 2.3342 14.2909 2.44436C13.9401 2.55451 13.8526 2.9592 13.9948 3.38654C14.126 3.81389 14.444 4.07639 14.7838 3.96701ZM14.8932 4.37248C14.2245 4.59201 13.6659 4.20842 13.4573 3.57248C13.2377 2.89279 13.512 2.2467 14.1698 2.03811C14.8604 1.80764 15.4081 2.21311 15.6167 2.82717C15.8581 3.57248 15.562 4.16389 14.8932 4.37248Z" fill="#132249"/>
<path d="M16.1641 1.53438L17.5891 1.29297L17.6547 1.73125L16.7563 1.88516L16.8547 2.41094L17.6875 2.26875L17.7641 2.70703L16.9203 2.84922L17.0852 3.79141L16.5586 3.87969L16.1641 1.53438Z" fill="#132249"/>
<path d="M20.0109 1.5998L19.375 1.58887V1.13965L21.2055 1.17246L21.1945 1.62168L20.5477 1.61074L20.5148 3.53965L19.9781 3.52871L20.0109 1.5998Z" fill="#132249"/>
<path d="M23.1984 2.80527L22.3328 2.68496L22.2562 3.23262L23.2203 3.3748L23.1547 3.81387L21.6641 3.59434L22.0039 1.24902L23.4508 1.45762L23.3844 1.8959L22.4641 1.76387L22.3984 2.24668L23.2641 2.36699L23.1984 2.80527Z" fill="#132249"/>
<path d="M25.4121 4.35067C25.3137 4.37255 25.0723 4.36161 24.7981 4.28505C24.009 4.06551 23.7457 3.45223 23.9324 2.79442C24.152 2.0163 24.8309 1.74208 25.5215 1.93973C25.7848 2.0163 25.9817 2.12567 26.0582 2.20301L25.8387 2.57567C25.7512 2.49911 25.6192 2.42255 25.4332 2.36708C25.0278 2.24676 24.6332 2.41083 24.491 2.91473C24.3598 3.37489 24.5457 3.73661 25.0059 3.86786C25.1699 3.91161 25.3457 3.93348 25.466 3.91161L25.4121 4.35067Z" fill="#132249"/>
<path d="M27.4102 2.66338L27.0375 3.49619L27.8375 3.86885L28.2211 3.03604L28.7031 3.25479L27.7164 5.41416L27.2344 5.19463L27.6398 4.29619L26.8398 3.92354L26.4234 4.82197L25.9414 4.60322L26.9273 2.44385L27.4102 2.66338Z" fill="#132249"/>
<path d="M28.3164 5.74219L29.6312 3.76953L30.157 4.12031L30.0805 5.11719C30.0586 5.40234 30.0039 5.73125 29.9492 6.00469H29.9602C30.1023 5.73047 30.2781 5.45703 30.475 5.15L30.8586 4.58047L31.2641 4.85469L29.9492 6.82734L29.4781 6.50937L29.5656 5.46875C29.5875 5.17266 29.6313 4.83281 29.6859 4.54844L29.675 4.5375C29.5109 4.81172 29.3352 5.09609 29.1164 5.41406L28.7219 6.00547L28.3164 5.74219Z" fill="#132249"/>
<path d="M31.5068 7.6818C31.7701 7.93414 32.1537 7.82398 32.4709 7.48492C32.767 7.17789 32.8654 6.77242 32.5912 6.52086C32.317 6.26852 31.9224 6.38961 31.6162 6.71773C31.3201 7.02477 31.2326 7.43023 31.5068 7.6818ZM31.1888 7.96695C30.674 7.48492 30.7396 6.81617 31.1998 6.3232C31.6818 5.80836 32.3834 5.7318 32.8873 6.20289C33.424 6.69586 33.3365 7.37555 32.8873 7.84664C32.3615 8.42711 31.7037 8.44898 31.1888 7.96695Z" fill="#132249"/>
<path d="M34.2898 7.69287L34.6188 8.10928L33.1172 9.31475L33.7086 10.0491L33.3578 10.3343L32.4375 9.1835L34.2898 7.69287Z" fill="#132249"/>
<path d="M34.4644 11.3315C34.6503 11.6385 35.0558 11.6494 35.4503 11.408C35.812 11.1885 36.0308 10.8275 35.8339 10.5096C35.648 10.1916 35.2308 10.2025 34.848 10.433C34.4644 10.6635 34.2784 11.0252 34.4644 11.3315ZM34.0808 11.54C33.7191 10.9369 33.9605 10.3127 34.5409 9.96192C35.155 9.6002 35.8449 9.70958 36.2066 10.3127C36.5792 10.9377 36.3159 11.5619 35.7574 11.9018C35.0894 12.2963 34.4425 12.1315 34.0808 11.54Z" fill="#132249"/>
<path d="M35.7921 14.8275C35.6827 14.6962 35.496 14.4329 35.3757 14.1368C35.2116 13.7314 35.2007 13.4025 35.31 13.1173C35.4194 12.8431 35.6717 12.6134 35.9897 12.4814C36.7241 12.1962 37.3592 12.5579 37.6444 13.2814C37.7538 13.5665 37.7866 13.8071 37.7866 13.9392L37.3374 13.9939C37.3483 13.8517 37.3264 13.6868 37.228 13.4462C37.0639 13.0298 36.7022 12.8103 36.2194 12.997C35.7592 13.1829 35.6053 13.5665 35.7702 13.9829C35.8139 14.0923 35.8686 14.1798 35.8905 14.2134L36.3507 14.0275L36.2194 13.6876L36.6139 13.5345L36.9428 14.3564L35.7921 14.8275Z" fill="#132249"/>
<path d="M35.9883 16.0109L36.9305 15.7914L38.125 14.75L38.2672 15.3531L37.7633 15.7148C37.6102 15.8242 37.5 15.9008 37.3578 16V16.0109C37.5109 16.0328 37.6648 16.0547 37.8398 16.0875L38.4539 16.1969L38.5852 16.7883L37.0617 16.3391L36.0977 16.5586L35.9883 16.0109Z" fill="#132249"/>
<path d="M37.3914 20.6797C37.6766 20.6688 38.0164 20.6469 38.3664 20.6469V20.6359C38.0594 20.5594 37.7195 20.4719 37.4461 20.3836L36.5148 20.1094L36.5039 19.693L37.4133 19.4297C37.6984 19.3531 38.0273 19.2656 38.3445 19.1992V19.1883C38.0266 19.1773 37.6539 19.1773 37.3586 19.1664L36.4602 19.1336L36.4492 18.6406L38.8273 18.75L38.8383 19.4625L38.0492 19.7039C37.775 19.7805 37.4797 19.857 37.2055 19.9234V19.9344C37.4797 19.9891 37.7969 20.0656 38.0602 20.143L38.8492 20.3844L38.8602 21.0859L36.493 21.25L36.482 20.7242L37.3914 20.6797Z" fill="#132249"/>
<path d="M37.1937 23.1782L37.7195 23.1126C37.8617 23.1017 38.0484 23.0907 38.1906 23.0798V23.0688C38.0594 23.0142 37.8836 22.9485 37.7523 22.8938L37.2812 22.6634L37.1937 23.1782ZM36.8977 22.5204L36.3281 22.2571L36.4266 21.7095L38.6406 22.8274L38.5203 23.5071L36.0547 23.836L36.1531 23.2665L36.7891 23.1899L36.8977 22.5204Z" fill="#132249"/>
<path d="M36.1308 24.9857C36.109 25.0295 36.0762 25.0951 36.0652 25.1607C35.9012 25.6209 36.0543 26.0154 36.591 26.1912C37.073 26.3553 37.4019 26.1584 37.5441 25.7201C37.5769 25.6107 37.5988 25.5342 37.5988 25.4787L36.1308 24.9857ZM38.1363 25.1068C38.1035 25.3037 38.0379 25.5561 37.9504 25.8084C37.8082 26.2357 37.6433 26.499 37.4027 26.6521C37.1504 26.8271 36.8222 26.8826 36.4168 26.7396C35.9894 26.5975 35.748 26.3342 35.6277 26.06C35.5074 25.7529 35.5402 25.3584 35.6933 24.9201C35.7808 24.6568 35.8683 24.4709 35.9238 24.3506L38.1363 25.1068Z" fill="#132249"/>
<path d="M35.9359 27.9343L35.8375 28.1202C35.7172 28.3616 35.7609 28.5585 35.9469 28.6569C36.1328 28.7554 36.3086 28.6788 36.418 28.4601C36.4727 28.3397 36.5055 28.2741 36.5164 28.2405L35.9359 27.9343ZM37.0758 27.9343C37.0211 28.0983 36.9227 28.3397 36.7906 28.5921C36.6266 28.9101 36.4727 29.096 36.2648 29.1835C36.1008 29.2601 35.9141 29.2491 35.7172 29.1507C35.4539 29.0085 35.3664 28.7233 35.3992 28.5147H35.3883C35.257 28.6351 35.0703 28.6351 34.8516 28.5913C34.5773 28.5366 34.2711 28.4491 34.1719 28.4491L34.4242 27.9671C34.5008 27.9671 34.6984 27.9999 34.9937 28.0765C35.2891 28.153 35.4102 28.0983 35.5086 27.9015L35.5852 27.7593L34.7523 27.3319L34.9937 26.8608L37.0758 27.9343Z" fill="#132249"/>
<path d="M34.0375 30.4327L34.5305 30.6077C34.6617 30.6624 34.8375 30.728 34.9688 30.7827L34.9797 30.7718C34.8813 30.6624 34.7602 30.5304 34.6727 30.421L34.3438 30.0046L34.0375 30.4327ZM34.0594 29.7093L33.6648 29.2163L33.9938 28.7671L35.4953 30.7507L35.0789 31.3202L32.7227 30.5312L33.0625 30.0601L33.6656 30.2687L34.0594 29.7093Z" fill="#132249"/>
<path d="M32.747 31.2984C32.5938 31.3531 32.3852 31.4625 32.2321 31.6273C32.0571 31.8023 32.0462 31.9672 32.1555 32.0766C32.254 32.175 32.3969 32.1531 32.6704 32.0219C33.043 31.8359 33.3829 31.8023 33.6344 32.0437C33.9305 32.3289 33.9087 32.7781 33.5251 33.1836C33.3391 33.3805 33.1634 33.4797 33.0212 33.5344L32.7907 33.1508C32.8891 33.118 33.054 33.0414 33.218 32.8766C33.3821 32.7125 33.3821 32.5477 33.2946 32.4711C33.1852 32.3617 33.0423 32.4164 32.747 32.5586C32.3415 32.7555 32.0563 32.7445 31.8048 32.5039C31.5196 32.2297 31.4868 31.7805 31.936 31.3094C32.1219 31.1125 32.3634 30.9695 32.5055 30.9258L32.747 31.2984Z" fill="#132249"/>
<path d="M31.1781 34.1369C31.1781 34.3338 31.025 34.4877 30.8273 34.4877C30.6305 34.4877 30.4766 34.3346 30.4766 34.1369C30.4766 33.94 30.6297 33.7861 30.8273 33.7861C31.0141 33.7861 31.1781 33.94 31.1781 34.1369Z" fill="#132249"/>
<path d="M9.52188 34.1369C9.52188 34.3338 9.36875 34.4877 9.17109 34.4877C8.97422 34.4877 8.82031 34.3346 8.82031 34.1369C8.82031 33.94 8.97344 33.7861 9.17109 33.7861C9.36797 33.7861 9.52188 33.94 9.52188 34.1369Z" fill="#132249"/>
<path d="M11.6055 29.4468L17.2164 30.4546L16.6141 31.1562L22.1148 31.6272L21.5672 32.0765L27.0031 32.3179L19.8141 33.0304L20.7125 32.2304L15.0141 31.6491L15.9672 30.9476L11.6055 29.4468Z" fill="#132249"/>
<path d="M10.9602 34.3235L11.4531 34.6087C11.4531 34.5102 11.4641 34.4227 11.4859 34.3344C11.5078 34.2469 11.5406 34.1704 11.5844 34.093C11.65 33.9727 11.7594 33.9071 11.9023 33.8735C12.0445 33.8407 12.1766 33.8735 12.3078 33.9501C12.4719 34.0485 12.6039 34.2134 12.7133 34.4649C12.8227 34.7173 12.8883 35.0126 12.9102 35.3524L12.8117 35.3634C12.7898 35.111 12.7242 34.8923 12.6258 34.6946C12.5273 34.4977 12.3844 34.3548 12.2203 34.2563C12.1328 34.2016 12.0234 34.2016 11.9133 34.2454C11.8031 34.2891 11.7047 34.3657 11.6391 34.4868C11.5844 34.5743 11.5625 34.629 11.5516 34.6727L11.7484 34.7821L11.7812 35.0891L11.518 34.936L10.6086 36.4923L10.4336 36.1524L11.2445 34.7719L10.9922 34.6298L10.9602 34.3235Z" fill="#132249"/>
<path d="M12.2397 35.6164C12.2179 35.7148 12.1741 35.8133 12.1304 35.9234C12.1632 36 12.2069 36.0656 12.2507 36.1094C12.2944 36.1641 12.3382 36.1969 12.3929 36.2297C12.4475 36.2516 12.5022 36.2734 12.5679 36.2625C12.6335 36.2625 12.6991 36.2516 12.7538 36.2188L13.0061 35.7039L12.2718 35.3422C12.2725 35.4305 12.2725 35.518 12.2397 35.6164ZM12.3054 37.1398L12.5905 36.5484C12.5686 36.5484 12.5358 36.5484 12.503 36.5375C12.4702 36.5266 12.4265 36.5047 12.3718 36.4828C12.2952 36.45 12.2296 36.3844 12.1632 36.2969C12.1085 36.2094 12.0647 36.1109 12.0319 36.0008C11.9663 36.0664 11.8897 36.1211 11.8124 36.1539C11.7358 36.1867 11.6593 36.1977 11.5819 36.1867C11.6366 36.4719 11.746 36.7562 11.9108 37.0523L11.714 37.1398C11.4179 36.307 11.3194 35.8031 11.396 35.6273C11.4179 35.5836 11.4507 35.5508 11.4944 35.5289C11.5382 35.507 11.571 35.507 11.6038 35.5289C11.6475 35.5508 11.6694 35.5836 11.6913 35.6273C11.7132 35.6711 11.7241 35.7258 11.7241 35.7914C11.7897 35.7914 11.8554 35.7695 11.921 35.7367C11.9757 35.7039 12.0194 35.6492 12.0522 35.5836C12.0741 35.5289 12.096 35.4742 12.1069 35.4195C12.1179 35.3648 12.1179 35.3211 12.1069 35.2664L11.5593 35.0031L11.5046 34.707L13.4991 35.6711L13.5538 35.9672L13.2796 35.8359L12.4905 37.4578L12.3054 37.1398Z" fill="#132249"/>
<path d="M13.3055 35.5728L13.8422 35.7814C13.8313 35.6939 13.8203 35.5954 13.8313 35.5071C13.8422 35.4196 13.8641 35.3321 13.8859 35.2548C13.9406 35.1236 14.0281 35.0353 14.1602 34.9915C14.2914 34.9478 14.4344 34.9478 14.5766 35.0025C14.7516 35.0681 14.9164 35.222 15.0586 35.4407C15.2008 35.6712 15.3109 35.9446 15.3984 36.2845L15.3 36.3173C15.2344 36.0759 15.1469 35.8681 15.0148 35.6923C14.8836 35.5173 14.7297 35.3962 14.5547 35.3306C14.4562 35.2868 14.3578 35.2978 14.2477 35.3634C14.1383 35.429 14.0617 35.5165 14.0172 35.6486C13.9844 35.7361 13.9625 35.8017 13.9625 35.8454L14.1711 35.922L14.2477 36.2181L13.9625 36.1087L13.3047 37.7853L13.0742 37.4782L13.6547 35.9876L13.3805 35.8782L13.3055 35.5728Z" fill="#132249"/>
<path d="M14.369 37.9834C14.3909 38.0162 14.4237 38.049 14.4674 38.06C14.5549 38.0818 14.6534 38.0818 14.7526 38.049C14.851 38.0162 14.9385 37.9506 15.0159 37.8631C14.8409 37.8084 14.7198 37.7537 14.6651 37.6881C14.5885 37.6881 14.5229 37.699 14.4682 37.7318C14.4135 37.7646 14.3698 37.8084 14.3588 37.8631C14.3471 37.9068 14.3471 37.9506 14.369 37.9834ZM16.0674 36.5146L16.1768 36.7998L15.826 36.6904L15.662 37.2381L14.8948 37.0076C14.8401 36.9857 14.7745 36.9967 14.7198 37.0295C14.6651 37.0623 14.6323 37.117 14.6104 37.1717C14.5885 37.2373 14.5995 37.3139 14.6432 37.3803C14.687 37.4459 14.7526 37.4896 14.8401 37.5225L15.0815 37.5771C15.0815 37.5553 15.0815 37.5443 15.0705 37.5225C15.0705 37.5006 15.0705 37.4896 15.0705 37.4787C15.0815 37.424 15.1252 37.3912 15.1799 37.3693C15.2346 37.3475 15.3002 37.3475 15.3659 37.3693C15.4315 37.3912 15.4862 37.435 15.519 37.5006C15.5518 37.5662 15.5627 37.6428 15.5299 37.7201C15.519 37.7748 15.4862 37.8076 15.4315 37.8404C15.3877 37.8732 15.3221 37.8951 15.2565 37.8951L15.5635 38.4982L15.3776 38.5639L15.2135 38.1146C15.1151 38.1912 15.0049 38.2459 14.8955 38.2678C14.7862 38.2896 14.676 38.2896 14.5666 38.2568C14.4463 38.224 14.3252 38.1365 14.2268 38.0154C14.1284 37.8951 14.0846 37.7959 14.1065 37.7084C14.1174 37.6756 14.1284 37.6537 14.1393 37.6318C14.1502 37.61 14.1721 37.5881 14.194 37.5662C14.0627 37.5115 13.9635 37.4459 13.8979 37.3467C13.8323 37.2482 13.8104 37.1498 13.8432 37.0615C13.8541 37.0287 13.876 36.985 13.9198 36.9412C13.9635 36.8975 14.0182 36.8537 14.0838 36.81L14.2924 37.1279C14.2487 37.1498 14.2049 37.1717 14.1721 37.1936C14.1393 37.2154 14.1284 37.2482 14.1174 37.2701C14.1065 37.3029 14.1174 37.3467 14.1502 37.3795C14.183 37.4232 14.2268 37.4451 14.2815 37.467L14.4784 37.4014C14.4346 37.3248 14.4018 37.2482 14.3909 37.1709C14.3799 37.0834 14.3799 37.0068 14.4018 36.9295C14.4346 36.842 14.5002 36.7764 14.5987 36.7326C14.708 36.6889 14.8182 36.6889 14.9495 36.7326L15.3987 36.8639L15.4752 36.5896L13.9955 36.1514L13.8862 35.8662L16.0674 36.5146Z" fill="#132249"/>
<path d="M16.2293 36.9312C16.2731 36.9859 16.3387 37.0296 16.4262 37.0515L16.4918 36.7117C16.5027 36.6788 16.4918 36.6351 16.4809 36.6132C16.4699 36.5804 16.459 36.5695 16.4371 36.5585C16.3715 36.5476 16.3168 36.5585 16.2731 36.5913C16.2184 36.6242 16.1965 36.6788 16.1856 36.7335C16.1629 36.8109 16.1848 36.8656 16.2293 36.9312ZM16.8754 36.6578L17.8613 36.8328L17.9926 37.107L17.6965 37.0523L17.3785 38.8273L17.0934 38.564L17.1918 38.0382L16.6113 37.9288L16.5785 38.1257C16.5676 38.1695 16.5457 38.2023 16.5238 38.2351C16.491 38.257 16.4582 38.2679 16.4363 38.2679C16.3379 38.246 16.2395 38.1695 16.1512 38.0156C16.0527 37.8624 16.0199 37.7413 16.0309 37.632C16.0309 37.6101 16.0527 37.5882 16.0856 37.5663C16.1184 37.5554 16.1512 37.5445 16.184 37.5554L16.3481 37.5882L16.4137 37.2046C16.2606 37.1281 16.1395 37.0406 16.0629 36.9085C15.9863 36.7882 15.9535 36.6671 15.9754 36.5359C15.9863 36.4593 16.0301 36.3937 16.1067 36.3499C16.1832 36.3062 16.2598 36.2953 16.3481 36.3062C16.4684 36.3281 16.5785 36.4156 16.677 36.5695C16.7754 36.7226 16.8082 36.8656 16.7863 36.9859L16.666 37.6328L17.2465 37.7421L17.3887 36.9749L17.0051 36.9093L16.8754 36.6578Z" fill="#132249"/>
<path d="M17.3797 35.8361C17.4672 35.7705 17.5547 35.7486 17.6649 35.7595C17.7743 35.7705 17.8735 35.8142 17.95 35.8798C18.0375 35.9455 18.0922 36.033 18.125 36.1431L18.0594 36.1978C18.0266 36.1431 17.9938 36.1103 17.95 36.0775C17.9063 36.0447 17.8625 36.0337 17.8188 36.0228C17.7204 36.0119 17.6438 36.0337 17.5664 36.0994C17.4899 36.1541 17.4461 36.2306 17.4352 36.3298C17.4243 36.3845 17.4352 36.4392 17.4571 36.5048C17.4789 36.5705 17.5227 36.6361 17.5664 36.7017L17.4789 36.7564C17.3914 36.658 17.3149 36.5478 17.2821 36.4275C17.2383 36.3072 17.2274 36.197 17.2383 36.0767C17.2375 35.9783 17.2922 35.8908 17.3797 35.8361Z" fill="#132249"/>
<path d="M18.1461 38.1805C18.1898 38.2242 18.2555 38.257 18.332 38.257C18.4305 38.268 18.5406 38.2461 18.6609 38.2023C18.7813 38.1586 18.8914 38.1039 19.0117 38.0164C18.9461 37.9289 18.8805 37.8523 18.8031 37.8078C18.7266 37.7531 18.65 37.7313 18.5727 37.7203C18.4523 37.7094 18.3422 37.7313 18.2437 37.7969C18.1562 37.8516 18.1016 37.9281 18.1016 38.0164C18.0805 38.082 18.0914 38.1367 18.1461 38.1805ZM19.5273 36.9641L19.6914 37.2273L19.3844 37.2055L19.2531 39.0023L18.9461 38.7719L18.9789 38.3664C18.8914 38.4211 18.8148 38.4758 18.7266 38.4977C18.6391 38.5305 18.5625 38.5414 18.4742 38.5305C18.3211 38.5195 18.1781 38.432 18.025 38.2891C17.8828 38.1359 17.8164 37.993 17.8281 37.8508C17.8391 37.7305 17.8938 37.6313 18.0031 37.5547C18.1125 37.4781 18.2336 37.4453 18.3758 37.4563C18.4961 37.4672 18.6172 37.5109 18.7375 37.5875C18.8578 37.6641 18.9461 37.7625 19.0227 37.8945L19.0773 37.182L17.7734 37.0836L17.6094 36.8203L19.5273 36.9641Z" fill="#132249"/>
<path d="M19.332 36.942L19.9016 36.9529C19.8578 36.8654 19.825 36.7889 19.8031 36.7006C19.7812 36.6131 19.7703 36.5256 19.7703 36.4373C19.7703 36.3061 19.825 36.185 19.9344 36.0975C20.0437 36.01 20.1758 35.9553 20.3289 35.9662C20.5148 35.9662 20.7234 36.0537 20.932 36.2186C21.1516 36.3826 21.3484 36.6022 21.5461 36.8873L21.4586 36.942C21.3164 36.7334 21.1516 36.5694 20.9656 36.46C20.7797 36.3397 20.593 36.285 20.407 36.274C20.2977 36.274 20.2102 36.3178 20.1328 36.4162C20.0562 36.5147 20.0125 36.6248 20.0125 36.7561C20.0125 36.8545 20.0125 36.9201 20.0344 36.9647H20.2539L20.4289 37.217L20.1219 37.2061L20.0891 39.0029L19.7711 38.7944L19.793 37.2053H19.5078L19.332 36.942Z" fill="#132249"/>
<path d="M21.9297 36.8545L22.1266 37.085L21.8195 37.1068L21.9398 38.9037L21.6 38.7178L21.5453 37.8193L20.9094 37.8631C20.8547 37.8631 20.8109 37.8959 20.7672 37.9506C20.7344 38.0053 20.7125 38.0709 20.7234 38.1365C20.7344 38.2459 20.7781 38.367 20.8547 38.4764C20.9312 38.5967 21.0406 38.7068 21.1836 38.8053L21.0633 38.9146C20.8664 38.7396 20.7016 38.5639 20.5922 38.4107C20.4828 38.2467 20.4172 38.1146 20.4062 37.9943C20.3953 37.874 20.4281 37.7748 20.4937 37.6873C20.5594 37.5998 20.6469 37.5451 20.7461 37.5451L21.5242 37.4904L21.5023 37.1178L20.2203 37.2053L20.0234 36.9748L21.9297 36.8545Z" fill="#132249"/>
<path d="M23.2 37.8959C23.2437 37.9287 23.2984 37.9396 23.3531 37.9287C23.4406 37.9068 23.5172 37.874 23.5945 37.8084C23.6719 37.7428 23.7367 37.6662 23.7805 37.567C23.7367 37.5123 23.682 37.4686 23.6164 37.4467C23.5508 37.4248 23.4961 37.4139 23.4414 37.4248C23.332 37.4467 23.2555 37.4904 23.1891 37.5561C23.1234 37.6217 23.1016 37.6873 23.1125 37.7646C23.1234 37.8303 23.1562 37.874 23.2 37.8959ZM24.6797 36.3506L24.9102 36.5592L23.9461 36.7561L24.0555 37.2928C24.0883 37.2381 24.1211 37.1943 24.1648 37.1615C24.2086 37.1287 24.2633 37.1068 24.3289 37.0959C24.4383 37.074 24.5703 37.1287 24.7125 37.2709C24.8547 37.4131 24.943 37.5561 24.9758 37.7201C24.9867 37.7967 24.9867 37.8732 24.9758 37.9615C24.9648 38.049 24.932 38.1475 24.8883 38.2357L24.5813 38.0498C24.6469 37.9514 24.6906 37.8639 24.7125 37.7756C24.7344 37.6881 24.7453 37.6115 24.7344 37.5342C24.7234 37.4686 24.6906 37.4139 24.6359 37.3811C24.5812 37.3482 24.5266 37.3264 24.4609 37.3482C24.4063 37.3592 24.3516 37.392 24.2859 37.4467C24.2312 37.5014 24.1766 37.5779 24.1219 37.6662L24.2969 38.5318L23.9352 38.4006L23.8477 37.9623C23.8148 38.017 23.7711 38.0607 23.7164 38.0936C23.6617 38.1264 23.607 38.1592 23.5414 38.1701C23.4211 38.192 23.2891 38.1482 23.1359 38.0389C22.9828 37.9295 22.8945 37.7975 22.8727 37.6662C22.8508 37.5678 22.8727 37.4803 22.9383 37.4029C23.0039 37.3154 23.0914 37.2717 23.2016 37.2498C23.2891 37.2279 23.3766 37.2389 23.4758 37.2826C23.5742 37.3154 23.6617 37.3811 23.75 37.4576L23.6297 36.8545L22.6211 37.0631L22.3906 36.8545L24.6797 36.3506Z" fill="#132249"/>
<path d="M25.5656 37.0959L26.1461 36.899L25.8937 36.1646L25.3133 36.3615L25.5656 37.0959ZM26.2453 35.7803L26.4977 35.9553L26.2125 36.0537L26.793 37.7522L26.4203 37.6646L26.2672 37.2045L25.6867 37.4014L25.7523 37.5982C25.7633 37.642 25.7633 37.6857 25.7523 37.7186C25.7414 37.7514 25.7195 37.7842 25.6867 37.7951C25.5883 37.8279 25.4563 37.8061 25.2922 37.7186C25.1281 37.6311 25.0289 37.5326 24.9961 37.4334C24.9852 37.4006 24.9852 37.3678 25.007 37.335C25.0289 37.3022 25.0508 37.2803 25.0945 37.2693L25.2695 37.2146L25.0172 36.4803L24.6117 36.6225L24.3594 36.4475L26.2453 35.7803Z" fill="#132249"/>
<path d="M25.3362 35.1454C25.38 35.047 25.4565 34.9813 25.5558 34.9485C25.6542 34.9048 25.7644 34.8938 25.8737 34.9157C25.9831 34.9376 26.0706 34.9813 26.1589 35.0579L26.1261 35.1345C26.0714 35.1017 26.0167 35.0907 25.9729 35.0798C25.9183 35.0688 25.8745 35.0798 25.8308 35.1017C25.7433 35.1345 25.6776 35.2001 25.6448 35.2876C25.612 35.3751 25.6011 35.4626 25.6448 35.5509C25.6667 35.5946 25.6995 35.6493 25.7542 35.6931C25.8089 35.7368 25.8745 35.7806 25.9511 35.8134L25.8964 35.9009C25.7651 35.8571 25.655 35.7915 25.5565 35.7149C25.4581 35.6274 25.3925 35.5399 25.3479 35.4298C25.2815 35.3313 25.2925 35.2329 25.3362 35.1454Z" fill="#132249"/>
<path d="M28.0758 34.9365L28.35 35.0787L28.0758 35.21L28.843 36.8318L28.4594 36.7881L28.0867 36.01L27.5719 36.2514C27.6813 36.2842 27.7914 36.3279 27.868 36.3936C27.9555 36.4592 28.0211 36.5248 28.0539 36.6131C28.0977 36.7006 28.0977 36.799 28.0648 36.8982C28.0211 36.9967 27.9555 37.0623 27.868 37.1178C27.7039 37.1943 27.5063 37.1725 27.2648 37.0631C27.0234 36.9537 26.7938 36.767 26.5742 36.5045L26.6617 36.417C26.8148 36.6029 26.9797 36.724 27.1547 36.8115C27.3297 36.8881 27.4727 36.899 27.593 36.8443C27.6477 36.8225 27.6805 36.7787 27.6914 36.724C27.7133 36.6693 27.7023 36.6146 27.6805 36.549C27.6367 36.4615 27.5602 36.385 27.4391 36.3186C27.318 36.2521 27.1648 36.2092 26.9898 36.1764L27.9539 35.7162L27.7789 35.3436L26.2664 36.0561L25.9922 35.9139L28.0758 34.9365Z" fill="#132249"/>
<path d="M28.6477 34.5752L28.932 34.6963L28.6695 34.8494L29.568 36.4057L29.1844 36.3947L28.3844 35.0143L28.132 35.1564L27.8477 35.0361L28.6477 34.5752Z" fill="#132249"/>
<path d="M9.04297 22.4109C9.04297 22.9258 10.2484 23.1891 10.5664 23.2766C11.9141 23.6273 13.3172 23.7914 14.7086 23.8797C15.9906 23.9672 17.5578 23.7594 18.7852 23.4414C18.0617 22.4773 17.3602 21.5125 16.8563 20.4055C12.2758 20.7125 9.04297 21.6328 9.04297 22.4109ZM23.1469 20.3945C22.643 21.4906 21.9414 22.4656 21.218 23.4305C22.4562 23.7484 24.0125 23.9563 25.2945 23.8688C26.6859 23.7703 28.0891 23.6055 29.4367 23.2656C29.7547 23.1891 30.9602 22.9258 30.9602 22.4C30.9602 21.6219 27.7273 20.7016 23.1469 20.3945Z" fill="white"/>
<path d="M9.04297 22.4109H8.98828C8.98828 22.5641 9.07578 22.6852 9.19687 22.7945C9.38281 22.9477 9.65703 23.0687 9.92031 23.1562C10.1836 23.2437 10.4242 23.2984 10.5453 23.3313C11.9039 23.682 13.307 23.8461 14.6984 23.9453C14.907 23.9562 15.1148 23.9672 15.3234 23.9672C16.4742 23.9672 17.7453 23.7703 18.7977 23.507L18.8742 23.4852L18.8305 23.4305C18.107 22.4664 17.4055 21.5016 16.9125 20.4055L16.9016 20.3727H16.8688C14.5781 20.5258 12.6164 20.8328 11.2359 21.1945C10.5453 21.3805 9.98672 21.5781 9.61406 21.775C9.42813 21.8734 9.27422 21.9836 9.17578 22.082C9.07734 22.1914 9.01172 22.3016 9.01172 22.4109H9.04297H9.09766C9.09766 22.3344 9.14141 22.2469 9.22891 22.1477C9.39297 21.9836 9.7 21.8078 10.1383 21.6328C11.4422 21.118 13.8641 20.6578 16.8672 20.4602V20.4055L16.8234 20.4273C17.3273 21.5344 18.0289 22.4984 18.7523 23.4633L18.7961 23.4305L18.7852 23.3867C17.7547 23.6609 16.4836 23.8469 15.3438 23.8469C15.1352 23.8469 14.9273 23.8359 14.7188 23.825C13.3383 23.7266 11.9352 23.5617 10.5875 23.2219C10.4344 23.1781 10.0508 23.0906 9.71094 22.9586C9.54688 22.893 9.38203 22.8055 9.27266 22.7172C9.16328 22.6187 9.09766 22.5203 9.09766 22.4102L9.04297 22.4109ZM23.1469 20.3945L23.1031 20.3727C22.5992 21.4687 21.9086 22.4328 21.1852 23.3977L21.1414 23.4523L21.218 23.4742C22.2594 23.7484 23.5414 23.9344 24.6922 23.9344C24.9117 23.9344 25.1195 23.9234 25.3172 23.9125C26.7086 23.8141 28.1117 23.6492 29.4703 23.2984C29.6234 23.2547 30.007 23.1672 30.3578 23.0242C30.5328 22.9477 30.6977 22.8711 30.818 22.7609C30.9383 22.6625 31.0266 22.5305 31.0266 22.3773C31.0266 22.257 30.9719 22.1469 30.8625 22.0484C30.6875 21.8625 30.3586 21.6867 29.9203 21.5117C28.5945 20.9969 26.1727 20.5258 23.1586 20.3281H23.1258L23.1148 20.3609L23.1469 20.3945V20.4492C25.4375 20.6023 27.3883 20.9094 28.7578 21.2711C29.4484 21.457 29.9961 21.6547 30.3578 21.8516C30.5438 21.95 30.6867 22.0484 30.7742 22.1477C30.8617 22.2461 30.9055 22.3336 30.9055 22.4109C30.9055 22.5203 30.8398 22.6195 30.7305 22.718C30.5664 22.8602 30.2922 22.9703 30.0398 23.0578C29.7875 23.1453 29.5469 23.2 29.4258 23.2328C28.0781 23.5727 26.675 23.7477 25.2945 23.8359C25.0977 23.8469 24.8891 23.8578 24.6695 23.8578C23.5297 23.8578 22.2586 23.6719 21.2281 23.3977L21.2172 23.4414L21.2609 23.4742C21.9844 22.5102 22.6859 21.5344 23.1898 20.4383L23.1469 20.3945Z" fill="#132249"/>
<path d="M18.7852 23.4412C18.0618 22.4771 17.3712 21.5014 16.8673 20.4053C16.8345 20.3178 16.7907 20.2412 16.7579 20.1529C16.5056 19.5498 16.3087 18.9475 16.1884 18.3561C15.6626 15.6928 16.5063 12.9975 17.9743 10.7834C18.829 9.49043 19.7493 8.1748 19.9798 6.6084H20.0345C20.2649 8.17559 21.1852 9.49043 22.0399 10.7834C23.5087 12.9975 24.3524 15.6928 23.8259 18.3561C23.7056 18.9475 23.5079 19.5615 23.2563 20.1529C23.2235 20.2404 23.1798 20.317 23.147 20.4053C22.6431 21.5014 21.9415 22.4764 21.2181 23.4412C20.7688 23.3209 20.3524 23.1889 20.0235 23.0467C19.6946 23.1889 19.2782 23.3209 18.829 23.4412H18.7852Z" fill="white"/>
<path d="M18.7844 23.4416L18.8281 23.4088C18.1047 22.4557 17.4141 21.4689 16.9211 20.3838C16.8773 20.2963 16.8445 20.2197 16.8117 20.1314C16.5594 19.54 16.3625 18.926 16.2422 18.3346C16.1328 17.7979 16.0891 17.2494 16.0891 16.7127C16.0891 14.6088 16.8562 12.5486 18.0289 10.7947C18.8836 9.50176 19.8148 8.18613 20.0453 6.59785L19.9906 6.58691V6.6416H20.0453V6.58691L19.9906 6.59785C20.232 8.18691 21.1523 9.50176 22.007 10.7947C23.1797 12.5479 23.9469 14.6088 23.9469 16.7127C23.9469 17.2494 23.8922 17.7869 23.7937 18.3346C23.6734 18.926 23.4758 19.5291 23.2242 20.1314C23.1914 20.2189 23.1477 20.2955 23.1148 20.3838C22.6109 21.4799 21.9203 22.4439 21.1969 23.4088L21.2406 23.4416L21.2516 23.3979C20.8023 23.2775 20.3969 23.1455 20.068 23.0143L20.0461 23.0033L20.0242 23.0143C19.6953 23.1564 19.2898 23.2885 18.8297 23.3979L18.8406 23.4416L18.8297 23.3869H18.7969H18.7531V23.4307H18.7859L18.8297 23.3979L18.7844 23.4416L18.7953 23.4963H18.8281C19.2883 23.376 19.6938 23.2439 20.0336 23.1018L20.0117 23.058L19.9898 23.1018C20.3297 23.2439 20.7352 23.376 21.1953 23.4963L21.2281 23.5072L21.25 23.4854C21.9734 22.5213 22.675 21.5455 23.1789 20.4494C23.2117 20.3619 23.2555 20.2854 23.2883 20.1971C23.5406 19.5939 23.7484 18.9807 23.8578 18.3885C23.9672 17.8408 24.0219 17.2924 24.0219 16.7557C24.0219 14.6299 23.2438 12.5471 22.0711 10.783C21.2055 9.49004 20.2961 8.17441 20.0656 6.61895L20.0547 6.5752H19.9562H19.9125L19.9016 6.61895C19.6711 8.1752 18.7617 9.49004 17.8961 10.783C16.7234 12.5471 15.9453 14.6299 15.9453 16.7557C15.9453 17.3033 16 17.8518 16.1094 18.3994C16.2297 18.9908 16.4273 19.6158 16.6789 20.208C16.7117 20.2955 16.7555 20.383 16.7883 20.4604C17.2922 21.5564 17.9937 22.5424 18.7062 23.5072L18.7938 23.6275V23.4744H18.7828V23.4416H18.7844Z" fill="#132249"/>
<path d="M14.7 23.9795L14.7002 23.9796C15.9957 24.068 17.563 23.8582 18.8085 23.5384L18.8516 23.5276L18.8516 23.5276L18.8532 23.5272C19.2868 23.411 19.6932 23.2832 20.0219 23.1448C20.3506 23.2832 20.757 23.411 21.1905 23.5272L21.1913 23.5274C22.426 23.8472 24.0041 24.057 25.2995 23.9686C26.694 23.8801 28.1041 23.7155 29.4603 23.3625L29.4611 23.3623C29.4864 23.3555 29.5181 23.3474 29.5551 23.338C29.7199 23.296 29.9885 23.2276 30.2485 23.1306C30.408 23.0711 30.5686 22.9994 30.7035 22.9139C30.7117 22.9087 30.7199 22.9034 30.728 22.898C29.5221 26.5013 25.1978 29.1821 20.0109 29.1821C14.8355 29.1821 10.5191 26.5029 9.29186 22.92C9.42642 23.0072 9.58738 23.0799 9.74744 23.1401C10.0081 23.238 10.2783 23.3067 10.4439 23.3487C10.4814 23.3583 10.5135 23.3664 10.5389 23.3732L10.5389 23.3733L10.5404 23.3736C11.8962 23.7155 13.3059 23.8809 14.7 23.9795Z" fill="white" stroke="#132249" stroke-width="0.2"/>
<path d="M18.7727 23.3971C17.7422 23.6713 16.4711 23.8572 15.3313 23.8572C15.1227 23.8572 14.9148 23.8463 14.7063 23.8354C13.3258 23.7369 11.9227 23.5721 10.575 23.2322C10.4328 23.1994 10.1039 23.1229 9.79687 23.0018C9.64375 22.9471 9.48984 22.8705 9.36953 22.7932C9.24922 22.7166 9.16094 22.6291 9.11719 22.5299L9.10625 22.4971H9.07344H9.00781L9.02969 22.5627C10.082 26.4314 14.6078 29.3244 20.0102 29.3244C25.4125 29.3244 29.9281 26.4314 30.9906 22.5627L31.0125 22.4971H30.9359H30.9031L30.8922 22.5299C30.8484 22.6174 30.75 22.7049 30.6289 22.7822C30.443 22.9025 30.2016 22.9908 29.9711 23.0674C29.7406 23.133 29.5438 23.1877 29.4344 23.2096C28.0867 23.5494 26.6836 23.7244 25.3031 23.8127C25.1063 23.8236 24.8977 23.8346 24.6781 23.8346C23.5383 23.8346 22.2672 23.6486 21.2367 23.3744C20.7875 23.2541 20.382 23.1221 20.0531 22.9908L20.0312 22.9799L20.0094 22.9908C19.6805 23.133 19.275 23.265 18.8148 23.3744L18.8258 23.4182L18.8148 23.3635L18.7727 23.3971L18.7945 23.4846H18.8273C19.2875 23.3643 19.693 23.2322 20.0328 23.09L20.0109 23.0463L19.9891 23.09C20.3289 23.2322 20.7344 23.3643 21.1945 23.4846C22.2359 23.7588 23.518 23.9447 24.6688 23.9447C24.8883 23.9447 25.0961 23.9338 25.2938 23.9229C26.6852 23.8244 28.0883 23.6596 29.4469 23.3088C29.5891 23.276 29.907 23.1994 30.225 23.0783C30.3781 23.0236 30.543 22.9471 30.6742 22.8697C30.8055 22.7822 30.9156 22.6947 30.9703 22.5736L30.9266 22.5518V22.6064H30.9375V22.5518L30.8938 22.5408C29.8523 26.3549 25.3812 29.226 20.0117 29.226C14.6422 29.226 10.1594 26.3439 9.12969 22.5408L9.08594 22.5518L9.04219 22.5736C9.09687 22.6939 9.20625 22.7932 9.33828 22.8807C9.53516 23.0119 9.7875 23.1002 10.018 23.1768C10.2484 23.2533 10.4563 23.2971 10.5656 23.3299C11.9242 23.6807 13.3273 23.8447 14.7187 23.9439C14.9273 23.9549 15.1352 23.9658 15.3437 23.9658C16.4945 23.9658 17.7656 23.7689 18.818 23.5057L18.7727 23.3971Z" fill="#132249"/>
<path d="M20.1977 20.2194C20.1102 20.3069 20.0336 20.4054 20.0336 20.4827H20.0227C20.0227 20.3952 19.9352 20.2968 19.8477 20.2085V23.0687H19.9461C19.968 23.0577 20.0008 23.0468 20.0227 23.0358C20.0445 23.0468 20.0664 23.0577 20.0992 23.0687H20.2086V20.2194" fill="#132249"/>
<path d="M20.1984 20.2193L20.1656 20.1865C20.1219 20.2303 20.0781 20.274 20.0453 20.3287C20.0125 20.3725 19.9906 20.4272 19.9906 20.4818H20.0453V20.4271H20.0344V20.4818H20.0891C20.0891 20.4272 20.0563 20.3725 20.0234 20.3178C19.9906 20.2631 19.9469 20.2193 19.8922 20.1646L19.8047 20.0771V23.1131H19.9578H19.9688H19.9797C20.0016 23.1021 20.0234 23.0912 20.0563 23.0803L20.0344 23.0365L20.0125 23.0803C20.0344 23.0912 20.0672 23.1021 20.0891 23.1131H20.1H20.2203H20.275V20.0881L20.1875 20.1756L20.1984 20.2193H20.1438V23.0248H20.0891V23.0795L20.1109 23.0357C20.0891 23.0248 20.0563 23.0139 20.0344 23.0029L20.0125 22.992L19.9906 23.0029C19.9688 23.0139 19.9469 23.0248 19.9141 23.0357L19.9359 23.0795V23.0248H19.8922V20.2084H19.8375L19.8047 20.2412C19.8484 20.285 19.8922 20.3287 19.925 20.3725C19.9578 20.4162 19.9688 20.46 19.9688 20.4818V20.5256H20.0234H20.0672V20.4818C20.0672 20.46 20.0781 20.4162 20.1109 20.3834C20.1437 20.3396 20.1766 20.2959 20.2203 20.2522L20.1984 20.2193Z" fill="white"/>
<path d="M20.0673 18.1694H19.9907C19.5962 18.1694 19.2673 18.4546 19.1798 18.8491C19.0704 19.364 19.3001 19.6929 19.6509 20.0218C19.7384 20.1093 20.0235 20.3288 20.0235 20.4819H20.0345C20.0454 20.3288 20.3196 20.1093 20.4071 20.0218C20.7579 19.6929 20.9876 19.364 20.8782 18.8491C20.7907 18.4437 20.4618 18.1694 20.0673 18.1694Z" fill="#132249"/>
<path d="M20.0648 18.1147H19.9883C19.5719 18.1147 19.2211 18.4218 19.1227 18.8382C19.1008 18.9257 19.0898 19.0132 19.0898 19.1015C19.0898 19.2983 19.1445 19.4741 19.243 19.6272C19.3305 19.7804 19.4625 19.9233 19.6156 20.0655C19.6594 20.1093 19.7578 20.1858 19.8352 20.2741C19.8789 20.3179 19.9117 20.3616 19.9336 20.3944C19.9555 20.4382 19.9773 20.471 19.9773 20.4929C19.9773 20.5147 19.9992 20.5366 20.032 20.5366H20.043C20.0648 20.5366 20.0867 20.5147 20.0977 20.4929C20.0977 20.471 20.1086 20.4382 20.1414 20.3944C20.1742 20.3397 20.2398 20.2741 20.3055 20.2085C20.3711 20.1538 20.4258 20.0991 20.4586 20.0663C20.6008 19.9241 20.7328 19.7921 20.8312 19.628C20.9187 19.4749 20.9844 19.2991 20.9844 19.1022C20.9844 19.0147 20.9734 18.9272 20.9516 18.839C20.832 18.4218 20.4922 18.1147 20.0648 18.1147H19.9883V18.2132H20.0648C20.4375 18.2132 20.7445 18.4765 20.832 18.8601C20.8539 18.9476 20.8648 19.0241 20.8648 19.1015C20.8648 19.2765 20.8102 19.4304 20.7336 19.5726C20.6461 19.7147 20.525 19.8468 20.3828 19.989C20.3391 20.0327 20.2406 20.1093 20.1633 20.1976C20.1195 20.2413 20.0867 20.2851 20.0539 20.3397C20.0211 20.3835 19.9992 20.4382 19.9992 20.4929H20.0539V20.4382H20.043V20.4929H20.0977C20.0977 20.4382 20.0758 20.3944 20.043 20.3397C19.9992 20.2741 19.9336 20.1976 19.868 20.1429C19.8023 20.0772 19.7477 20.0335 19.7148 20.0007C19.5727 19.8694 19.4516 19.7265 19.3641 19.5843C19.2766 19.4421 19.2328 19.2882 19.2328 19.1132C19.2328 19.0366 19.2437 18.9601 19.2656 18.8718C19.3531 18.4991 19.6602 18.2249 20.0328 18.2249H20.1094V18.1155H20.0648V18.1147Z" fill="white"/>
<path d="M19.1781 18.849C19.2328 18.5857 19.4086 18.367 19.6273 18.2576L19.6602 18.2139C19.6602 18.2139 18.6852 17.4139 17.457 18.3779C17.5117 18.356 17.9938 18.7615 18.0484 18.8053C18.3773 19.0357 18.7172 19.1342 19.1227 19.0576L19.1555 19.0029C19.1563 18.9474 19.1672 18.8928 19.1781 18.849Z" fill="#132249"/>
<path d="M19.1775 18.8494L19.2212 18.8604C19.2759 18.608 19.4408 18.4111 19.6486 18.3018L19.6705 18.2799L19.7033 18.2361C19.7142 18.2143 19.7142 18.1814 19.6923 18.1705C19.6923 18.1705 19.2978 17.8525 18.6955 17.8525C18.3337 17.8525 17.8955 17.9729 17.4244 18.3346C17.4025 18.3455 17.4025 18.3783 17.4134 18.4002C17.4244 18.4221 17.4572 18.433 17.4791 18.4221L17.4681 18.3893V18.4221H17.4791L17.4681 18.3893V18.4221C17.4681 18.4221 17.49 18.433 17.5009 18.4439C17.5666 18.4877 17.6869 18.5752 17.797 18.6635C17.8517 18.7072 17.8955 18.751 17.9392 18.7838C17.983 18.8166 18.0048 18.8385 18.0267 18.8494C18.29 19.0354 18.5634 19.1346 18.8705 19.1346C18.958 19.1346 19.0455 19.1236 19.1447 19.1127C19.1556 19.1127 19.1666 19.1018 19.1775 19.0908L19.2103 19.0361L19.2212 19.0143C19.2212 18.9705 19.2322 18.9158 19.2431 18.8721L19.1775 18.8494L19.1447 18.8822C19.1556 18.8932 19.1775 18.9041 19.1994 18.8932C19.2212 18.8932 19.2322 18.8713 19.2322 18.8604L19.1775 18.8494L19.2103 18.8166C19.1994 18.8057 19.1775 18.7947 19.1666 18.8057C19.1447 18.8057 19.1337 18.8275 19.1337 18.8385C19.1228 18.8932 19.1119 18.9479 19.1119 18.9916H19.1666L19.1228 18.9697L19.09 19.0244L19.1337 19.0463L19.1228 19.0025C19.0353 19.0135 18.9478 19.0244 18.8705 19.0244C18.5853 19.0244 18.3337 18.9369 18.0923 18.7502C18.0814 18.7393 18.0377 18.7064 17.9939 18.6627C17.9173 18.5971 17.808 18.5096 17.7197 18.4432C17.6759 18.4104 17.6322 18.3775 17.5884 18.3557C17.5666 18.3447 17.5556 18.3338 17.5337 18.3229C17.5119 18.3119 17.5009 18.3119 17.4791 18.3119L17.4462 18.3229L17.4681 18.3666L17.5009 18.4104C17.9502 18.0596 18.3666 17.9502 18.7064 17.9502C18.9916 17.9502 19.2212 18.0268 19.3861 18.1033C19.4627 18.1361 19.5283 18.1799 19.572 18.2018C19.5939 18.2127 19.6048 18.2236 19.6158 18.2346L19.6267 18.2455L19.6595 18.2018L19.6158 18.1799L19.583 18.2236L19.6267 18.2455L19.6048 18.2018C19.3634 18.3221 19.1884 18.5525 19.1228 18.8268L19.1775 18.8494Z" fill="white"/>
<path d="M20.3398 18.1913L20.3508 18.2132C20.6141 18.3116 20.8109 18.5421 20.8766 18.8491C20.8875 18.9257 20.8984 18.9913 20.8984 19.0577C21.282 19.1124 21.6109 19.0249 21.9289 18.7945C21.9945 18.7507 22.4656 18.3343 22.5203 18.3671C21.3039 17.414 20.3398 18.1913 20.3398 18.1913Z" fill="#132249"/>
<path d="M20.341 18.1914L20.2973 18.2133L20.3082 18.2352L20.3301 18.257C20.5715 18.3445 20.7684 18.5641 20.834 18.8484C20.8449 18.9141 20.8559 18.9797 20.8559 19.0453C20.8559 19.0672 20.8777 19.0891 20.8996 19.0891C20.9762 19.1 21.0527 19.1109 21.1301 19.1109C21.4371 19.1109 21.7105 19.0125 21.9738 18.8258C21.9957 18.8148 22.0285 18.782 22.0832 18.7383C22.1598 18.6727 22.2691 18.5852 22.3574 18.5187C22.4012 18.4859 22.4449 18.4531 22.4777 18.4312C22.4996 18.4203 22.5105 18.4094 22.5215 18.4094H22.5324V18.3766L22.5215 18.4094H22.5324V18.3766L22.5215 18.4094C22.5434 18.4203 22.5762 18.4094 22.5871 18.3875C22.598 18.3656 22.598 18.3328 22.5762 18.3219C22.1051 17.9602 21.6668 17.8398 21.3051 17.8398C20.7137 17.8398 20.3191 18.1469 20.3191 18.1578L20.341 18.1914V18.1367C20.3191 18.1367 20.3082 18.1477 20.2973 18.1586C20.2863 18.1695 20.2863 18.1914 20.2973 18.2133L20.341 18.1914V18.2461L20.3738 18.2352C20.4176 18.2023 20.7684 17.9391 21.2941 17.9391C21.634 17.9391 22.0504 18.0484 22.4996 18.3992L22.5324 18.3555L22.5543 18.3117L22.5215 18.3008C22.4887 18.3008 22.4777 18.3117 22.4559 18.3227C22.3793 18.3664 22.259 18.4539 22.1488 18.5531C22.0941 18.5969 22.0395 18.6406 21.9957 18.6734C21.952 18.7062 21.9191 18.7391 21.9082 18.7391C21.6668 18.9141 21.4152 19.0023 21.1301 19.0023C21.0645 19.0023 20.9879 18.9914 20.9215 18.9805L20.9105 19.0352H20.9652C20.9652 18.9695 20.9543 18.893 20.9324 18.8266C20.8668 18.5086 20.6473 18.268 20.3738 18.1578L20.352 18.2016L20.3957 18.1797L20.3848 18.1578L20.341 18.1914Z" fill="white"/>
<path d="M19.9787 12.5693C19.9787 12.5693 17.4584 16.4162 19.6717 18.1256H20.2857C22.499 16.4271 19.9787 12.5693 19.9787 12.5693Z" fill="#132249"/>
<path d="M19.9352 12.5478C19.9352 12.5478 19.6281 13.0189 19.3211 13.6985C19.0141 14.3782 18.707 15.2767 18.707 16.1423C18.707 16.8985 18.9484 17.6439 19.6383 18.1696L19.6711 18.1806H20.2852L20.318 18.1696C21.0086 17.6439 21.2492 16.8985 21.2492 16.1423C21.2492 15.2767 20.9422 14.3782 20.6352 13.6985C20.3281 13.0189 20.0211 12.5478 20.0211 12.5478C20.0102 12.5259 19.9773 12.515 19.9555 12.5368C19.9336 12.5478 19.9227 12.5806 19.9445 12.6025C19.9445 12.6025 19.9664 12.6353 19.9992 12.679C20.2297 13.0517 21.1609 14.6626 21.1609 16.1314C21.1609 16.8657 20.9305 17.5673 20.2734 18.0821L20.3063 18.1259V18.0712H19.6703V18.1259L19.7031 18.0821C19.0453 17.5782 18.8156 16.8767 18.8156 16.1314C18.8156 15.2876 19.1227 14.4001 19.4188 13.7314C19.5719 13.3915 19.7258 13.1064 19.8352 12.9095C19.8898 12.811 19.9336 12.7345 19.9773 12.679C20.0102 12.6243 20.032 12.6025 20.032 12.6025C20.043 12.5806 20.043 12.5478 20.0211 12.5368C19.9789 12.515 19.957 12.5259 19.9352 12.5478Z" fill="white"/>
<path d="M19.4304 13.5782L18.3671 12.647C18.4655 12.7345 18.4218 13.272 18.4218 13.3923C18.4218 13.6884 18.4108 13.9837 18.378 14.2798C18.3343 14.6743 18.2577 15.047 18.1921 15.4306C18.0937 16.0337 18.1702 16.6798 18.5101 17.2056C18.7624 17.5892 19.2226 17.929 19.639 18.104C18.1804 16.9532 18.8491 14.8384 19.4304 13.5782Z" fill="#132249"/>
<path d="M19.4313 13.5779L19.4641 13.5451L18.4008 12.6139C18.3789 12.592 18.3461 12.6029 18.3352 12.6139C18.3133 12.6357 18.3242 12.6686 18.3352 12.6795C18.3352 12.6795 18.3461 12.6904 18.357 12.7123C18.3789 12.7779 18.3898 12.9209 18.3898 13.0521C18.3898 13.1834 18.3789 13.3154 18.3789 13.3811V13.392C18.3789 13.4248 18.3789 13.4576 18.3789 13.4904C18.3789 13.7537 18.368 14.0162 18.3352 14.2795C18.3023 14.6631 18.2148 15.0467 18.1492 15.4303C18.1273 15.5943 18.1055 15.7592 18.1055 15.9232C18.1055 16.3834 18.2148 16.8436 18.4672 17.2381C18.7195 17.6326 19.1906 17.9725 19.618 18.1584C19.6398 18.1693 19.6727 18.1584 19.6836 18.1365C19.6945 18.1146 19.6945 18.0928 19.6727 18.0709C19.0258 17.567 18.807 16.8654 18.807 16.142C18.807 15.2436 19.1469 14.3006 19.4758 13.6107C19.4867 13.5889 19.4758 13.567 19.4648 13.5561L19.4313 13.5779L19.3875 13.5561C19.0586 14.2467 18.7187 15.2107 18.7187 16.1311C18.7187 16.8764 18.9492 17.6107 19.6281 18.1365L19.6609 18.0928L19.6828 18.049C19.2664 17.874 18.8172 17.5451 18.5758 17.1725C18.3344 16.7889 18.2359 16.3615 18.2359 15.9123C18.2359 15.7482 18.2469 15.5943 18.2687 15.4303C18.3344 15.0467 18.4109 14.6631 18.4547 14.2795C18.4766 14.0162 18.4984 13.7537 18.4984 13.4795C18.4984 13.4467 18.4984 13.4139 18.4984 13.3811V13.3701C18.4984 13.3154 18.5094 13.1732 18.5094 13.0412C18.5094 12.9537 18.5094 12.8553 18.4984 12.7779C18.4984 12.7342 18.4875 12.7014 18.4766 12.6686C18.4656 12.6357 18.4547 12.6139 18.4328 12.592C18.4219 12.5811 18.4109 12.5811 18.4 12.5811C18.3891 12.5811 18.3781 12.592 18.3672 12.6029C18.3562 12.6139 18.3562 12.6248 18.3562 12.6357C18.3562 12.6467 18.3672 12.6576 18.3781 12.6686L19.4414 13.5998L19.4313 13.5779Z" fill="white"/>
<path d="M21.7656 15.4413C21.7 15.0577 21.6234 14.6741 21.5797 14.2905C21.5469 13.9944 21.5359 13.6991 21.5359 13.403C21.5359 13.2827 21.5031 12.7343 21.5906 12.6577L20.5273 13.5999C21.1188 14.8601 21.7766 16.9749 20.2969 18.1257C20.7242 17.9507 21.2063 17.6108 21.4477 17.2163C21.7875 16.6796 21.8648 16.0437 21.7656 15.4413Z" fill="#132249"/>
<path d="M21.7658 15.4412L21.8205 15.4303C21.7548 15.0467 21.6783 14.6631 21.6345 14.2795C21.6127 14.0162 21.5908 13.7646 21.5908 13.5014C21.5908 13.4686 21.5908 13.4357 21.5908 13.4029V13.392C21.5908 13.3264 21.5798 13.1951 21.5798 13.0631C21.5798 12.9756 21.5798 12.8881 21.5908 12.8107C21.5908 12.7779 21.6017 12.7451 21.6127 12.7232C21.6236 12.7014 21.6236 12.6904 21.6345 12.6904C21.6564 12.6686 21.6564 12.6357 21.6345 12.6248C21.6127 12.6029 21.5798 12.6029 21.5689 12.6248L20.5056 13.567C20.4837 13.5779 20.4837 13.6107 20.4947 13.6217C20.8127 14.3123 21.1525 15.2545 21.1525 16.142C21.1525 16.8764 20.922 17.5779 20.2759 18.0818C20.2541 18.0928 20.2541 18.1256 20.265 18.1475C20.2759 18.1693 20.3087 18.1803 20.3306 18.1693C20.7689 17.9943 21.2509 17.6436 21.5142 17.2381C21.7666 16.8436 21.8759 16.3834 21.8759 15.9232C21.8759 15.7592 21.865 15.5943 21.8322 15.4303L21.7658 15.4412L21.7111 15.4521C21.733 15.6053 21.7439 15.7701 21.7439 15.9342C21.7439 16.3834 21.6455 16.8107 21.4041 17.1943C21.1627 17.5779 20.6916 17.9178 20.2752 18.0818L20.297 18.1256L20.3298 18.1693C21.0095 17.6436 21.2502 16.9092 21.2502 16.1529C21.2502 15.2326 20.8994 14.2787 20.5814 13.5889L20.5377 13.6107L20.5705 13.6436L21.6337 12.7014C21.6447 12.6904 21.6447 12.6795 21.6556 12.6686C21.6556 12.6576 21.6556 12.6467 21.6447 12.6357C21.6337 12.6248 21.6228 12.6248 21.6119 12.6139C21.6009 12.6139 21.59 12.6139 21.5791 12.6248C21.5572 12.6467 21.5462 12.6795 21.5353 12.7014C21.5025 12.7889 21.5025 12.9318 21.5025 13.0631C21.5025 13.2053 21.5134 13.3373 21.5134 13.392V13.4029C21.5134 13.4357 21.5134 13.4686 21.5134 13.5123C21.5134 13.7756 21.5244 14.0381 21.5572 14.3014C21.6009 14.6959 21.6775 15.0686 21.7431 15.4521L21.7658 15.4412Z" fill="white"/>
<path d="M20.4492 18.0495L20.5039 18.0932C20.7563 17.962 21.2602 17.7752 21.8953 18.0057L21.9391 17.9948C21.9391 17.9948 22.1586 17.3916 22.5305 17.3916C22.5305 17.3916 22.0375 17.1284 21.3797 17.3041C21.1508 17.6112 20.8 17.8854 20.4492 18.0495Z" fill="#132249"/>
<path d="M20.4486 18.0492L20.4158 18.093L20.4704 18.1367C20.4814 18.1477 20.5033 18.1477 20.5251 18.1367C20.6783 18.0492 20.9525 17.9398 21.2923 17.9398C21.4673 17.9398 21.665 17.9727 21.8837 18.0492H21.9165L21.9603 18.0383C21.9712 18.0383 21.9822 18.0273 21.9931 18.0055C21.9931 18.0055 21.9931 17.9945 22.004 17.9836C22.0259 17.9289 22.0915 17.7867 22.179 17.6656C22.2228 17.6 22.2775 17.5453 22.3431 17.5016C22.4087 17.4578 22.4634 17.4359 22.54 17.4359C22.5618 17.4359 22.5837 17.425 22.5837 17.4031C22.5947 17.3812 22.5837 17.3594 22.5618 17.3484C22.5618 17.3484 22.2767 17.1953 21.8493 17.1953C21.7072 17.1953 21.5423 17.2172 21.3783 17.2609L21.3564 17.2828C21.1368 17.5789 20.7868 17.8414 20.447 18.0062L20.4486 18.0492L20.4158 18.082C20.4267 18.093 20.4486 18.1039 20.4704 18.093C20.8212 17.918 21.1829 17.6547 21.4236 17.3367L21.3798 17.3039L21.3908 17.3477C21.5548 17.3039 21.6978 17.293 21.84 17.293C22.0368 17.293 22.2126 17.3258 22.3329 17.3695C22.3876 17.3914 22.4423 17.4023 22.4642 17.4133C22.4751 17.4242 22.497 17.4242 22.497 17.4242H22.5079L22.5298 17.3805V17.3258C22.4204 17.3258 22.3329 17.3695 22.2447 17.4242C22.0033 17.6102 21.8829 17.95 21.8829 17.95L21.9267 17.9719L21.9158 17.9281L21.872 17.9391L21.8829 17.9828L21.9048 17.9391C21.6743 17.8516 21.4665 17.8297 21.2798 17.8297C20.9181 17.8297 20.6329 17.9391 20.4689 18.0383L20.4908 18.082L20.5236 18.0383L20.4689 17.9945C20.447 17.9836 20.4142 17.9836 20.4033 18.0055C20.3814 18.0273 20.3923 18.0602 20.4033 18.0711L20.4486 18.0492Z" fill="white"/>
<path d="M19.4641 18.0819L19.4969 18.071L19.4859 18.0272C19.1461 17.8632 18.8063 17.5999 18.5875 17.3038C17.9297 17.1288 17.4258 17.3913 17.4258 17.3913C17.7984 17.3913 18.0172 17.9944 18.0172 17.9944L18.0609 18.0163C18.6969 17.7749 19.2008 17.9507 19.4641 18.0819Z" fill="#132249"/>
<path d="M19.4621 18.082L19.484 18.1258L19.5168 18.1148C19.5387 18.1039 19.5496 18.082 19.5387 18.0492L19.5277 18.0055L19.5059 17.9727C19.1769 17.8086 18.8371 17.5562 18.6293 17.2602C18.6184 17.2492 18.6074 17.2383 18.5965 17.2383V17.293L18.6074 17.2492C18.4324 17.2055 18.2785 17.1836 18.1254 17.1836C17.698 17.1836 17.4129 17.3367 17.4129 17.3367C17.391 17.3477 17.3801 17.3695 17.391 17.3914C17.4019 17.4133 17.4129 17.4242 17.4348 17.4242C17.5113 17.4242 17.5879 17.457 17.6543 17.5117C17.7527 17.5883 17.8402 17.7086 17.8957 17.8078C17.9285 17.8625 17.9504 17.9062 17.9613 17.9391C17.9723 17.9609 17.9723 17.9719 17.9723 17.9828V17.9938C17.9723 18.0047 17.9832 18.0156 17.9941 18.0266L18.0379 18.0484C18.0488 18.0594 18.0598 18.0594 18.0816 18.0484C18.3012 17.9609 18.509 17.9391 18.6957 17.9391C19.0246 17.9391 19.2871 18.0375 19.441 18.125L19.4621 18.082V18.1367C19.484 18.1367 19.5059 18.1148 19.5059 18.093C19.5059 18.0711 19.4949 18.0492 19.484 18.0383C19.309 17.9508 19.0348 17.8414 18.684 17.8414C18.4871 17.8414 18.2676 17.8742 18.0371 17.9617L18.059 18.0055L18.0809 17.9617L18.0371 17.9398L18.0152 17.9836L18.059 17.9617C18.059 17.9617 18.0043 17.8086 17.8949 17.6547C17.8402 17.5781 17.7746 17.5016 17.698 17.4352C17.6215 17.3695 17.523 17.3367 17.4129 17.3367V17.3914L17.4348 17.4352C17.4676 17.4242 17.7199 17.293 18.1035 17.293C18.2348 17.293 18.3887 17.3148 18.5527 17.3586H18.5637V17.3039L18.5199 17.3367C18.7715 17.6438 19.1223 17.907 19.4621 18.082L19.484 18.0273L19.4402 18.0492L19.4512 18.093L19.4949 18.0711L19.473 18.0273L19.4402 18.0383C19.4184 18.0492 19.4074 18.0711 19.4074 18.093C19.4074 18.1148 19.4293 18.1367 19.4621 18.1367V18.082Z" fill="white"/>
<path d="M19.4203 13.5998C19.5297 13.3584 19.6398 13.1615 19.7273 12.9967L19.2891 12.3936L18.9492 13.1389V13.1717L19.4203 13.5881V13.5998Z" fill="#132249"/>
<path d="M19.4203 13.5998L19.4641 13.6217C19.5734 13.3912 19.6836 13.1834 19.7711 13.0186L19.782 12.9857L19.2781 12.2842L18.8945 13.117V13.1607V13.1826L19.3875 13.61L19.4203 13.5771L19.3766 13.5553L19.3656 13.5662L19.3438 13.6428H19.4203H19.4531L19.4641 13.61L19.4203 13.5998L19.4641 13.6217L19.475 13.6107L19.4859 13.5779L19.0039 13.1506V13.1396H18.9492L18.993 13.1615L19.3 12.4928L19.6836 13.0295L19.7273 12.9967L19.6836 12.9748C19.5961 13.1389 19.4867 13.3475 19.3766 13.5889L19.4203 13.5998Z" fill="white"/>
<path d="M20.5258 13.5893L21.0516 13.1291L20.7117 12.3838L20.2734 12.9979V13.0744C20.3609 13.2275 20.4484 13.4143 20.5477 13.6111L20.5258 13.5893Z" fill="#132249"/>
<path d="M20.5258 13.5891L20.5586 13.6219L21.1063 13.1398L20.7117 12.2852L20.2188 12.9867V13.0742V13.0852L20.2297 13.0961C20.3063 13.2492 20.4047 13.425 20.5039 13.6328L20.5914 13.5891L20.5805 13.5672L20.5258 13.5891H20.4711V13.6L20.482 13.6328L20.5695 13.5891C20.4711 13.3805 20.3836 13.2055 20.2953 13.0523L20.2516 13.0742H20.3063V13.0195L20.6898 12.4937L20.975 13.1297L20.4602 13.5789V13.6008H20.5258V13.5891Z" fill="white"/>
</g>
<defs>
<clipPath id="clip0_2696_24405">
<rect width="40" height="40" fill="white"/>
</clipPath>
</defs>
</svg>
