<svg xmlns="http://www.w3.org/2000/svg" width="40" height="40" viewBox="0 0 40 40" fill="none">
  <g style="mix-blend-mode:luminosity">
    <path d="M40 19.9998C40 31.0453 31.0453 40 19.9998 40C8.95428 40 0 31.0453 0 19.9998C0 8.95416 8.95428 -1.52588e-05 19.9998 -1.52588e-05C31.0453 -1.52588e-05 40 8.95416 40 19.9998Z" fill="#781F19"/>
    <path d="M35.4387 20.0005C35.4387 28.5248 28.5286 35.4348 20.0044 35.4348C11.4804 35.4348 4.57031 28.5248 4.57031 20.0005C4.57031 11.4765 11.4804 4.56631 20.0044 4.56631C28.5286 4.56631 35.4387 11.4765 35.4387 20.0005Z" fill="#C6C6C6"/>
    <path d="M35.4387 20.0005C35.4387 28.5248 28.5286 35.4348 20.0044 35.4348C11.4804 35.4348 4.57031 28.5248 4.57031 20.0005C4.57031 11.4765 11.4804 4.56631 20.0044 4.56631C28.5286 4.56631 35.4387 11.4765 35.4387 20.0005Z" stroke="white" stroke-miterlimit="10"/>
    <path d="M6.63281 33.2854L8.29248 31.5882L8.67514 31.9625L7.01548 33.6594L6.63281 33.2854Z" fill="white"/>
    <path d="M7.80818 31.1166L5.96285 32.6101L5.56851 32.1224L5.93462 31.1918C6.04045 30.9249 6.18396 30.632 6.32312 30.3791L6.31867 30.3734C6.09506 30.5953 5.85284 30.8052 5.57334 31.0312L5.03679 31.4654L4.72656 31.0821L6.5719 29.589L6.92623 30.0269L6.53346 30.9971C6.42212 31.2686 6.28656 31.5822 6.14106 31.8449L6.14967 31.8558C6.38545 31.6429 6.6409 31.4268 6.94184 31.1831L7.49773 30.7333L7.80818 31.1166Z" fill="white"/>
    <path d="M5.57265 28.7642C5.55893 28.7194 5.52071 28.652 5.48921 28.5969C5.24921 28.1703 4.85771 28.0248 4.36571 28.3065C3.9221 28.5601 3.85471 28.9312 4.08543 29.3352C4.14338 29.4357 4.19248 29.501 4.22448 29.5355L5.57265 28.7642ZM4.16021 30.1887C4.03137 30.035 3.88871 29.8207 3.75582 29.5885C3.53015 29.1939 3.44749 28.9007 3.48543 28.6194C3.5221 28.314 3.70182 28.0331 4.06888 27.8232C4.46304 27.5976 4.81721 27.5856 5.09754 27.6849C5.40182 27.7988 5.67815 28.0831 5.90887 28.4867C6.04715 28.7282 6.13154 28.9111 6.18087 29.0333L4.16021 30.1887Z" fill="white"/>
    <path d="M2.53906 27.1076L4.72412 26.1802L4.9334 26.6731L2.74807 27.6003L2.53906 27.1076Z" fill="white"/>
    <path d="M3.17199 24.734L2.73104 25.0184C2.60682 25.0955 2.44632 25.1865 2.3246 25.2595L2.32793 25.2694C2.47199 25.2599 2.65499 25.2462 2.79705 25.2415L3.32082 25.2376L3.17199 24.734ZM3.72776 25.1982L4.35894 25.1845L4.51627 25.718L2.03421 25.6938L1.83594 25.0217L3.90366 23.6406L4.06699 24.1947L3.53455 24.5425L3.72776 25.1982Z" fill="white"/>
    <path d="M3.80298 23.1235L1.44931 23.4304L1.3682 22.8089L2.16709 22.2074C2.39687 22.0353 2.67226 21.861 2.92359 21.7181L2.92304 21.7111C2.61643 21.7829 2.29993 21.8347 1.94382 21.8813L1.25926 21.9708L1.19531 21.4818L3.5492 21.1751L3.6221 21.7338L2.77976 22.355C2.54304 22.5281 2.26287 22.7241 2.00165 22.8719L2.00387 22.8857C2.31581 22.8273 2.64671 22.7772 3.03093 22.727L3.73959 22.6347L3.80298 23.1235Z" fill="white"/>
    <path d="M1.17083 18.9354L3.54261 19.0343L3.52027 19.5691L1.14844 19.4702L1.17083 18.9354Z" fill="white"/>
    <path d="M3.57067 18.3528L1.22656 17.9786L1.32545 17.3596L2.26201 17.0098C2.53095 16.9101 2.845 16.821 3.12639 16.7556L3.12806 16.7486C2.81356 16.7304 2.49528 16.6905 2.14061 16.6337L1.45872 16.5249L1.53672 16.038L3.88062 16.4122L3.79184 16.9687L2.80789 17.3251C2.53167 17.4237 2.20739 17.5325 1.91495 17.5999L1.91272 17.6137C2.22861 17.6463 2.56011 17.6922 2.94245 17.7533L3.64845 17.866L3.57067 18.3528Z" fill="white"/>
    <path d="M3.54727 15.5775C3.66005 15.4652 3.79782 15.2723 3.86632 15.0537C3.94005 14.8184 3.88143 14.6636 3.73027 14.6162C3.59232 14.5731 3.47466 14.6543 3.29532 14.8972C3.04305 15.2313 2.75688 15.4149 2.42416 15.3107C2.03749 15.1896 1.8471 14.7719 2.0136 14.2409C2.09455 13.9821 2.20288 13.8132 2.30899 13.6987L2.68305 13.9414C2.61199 14.0151 2.49655 14.1598 2.42822 14.3781C2.35861 14.6 2.42933 14.7402 2.54333 14.7761C2.68805 14.8213 2.79088 14.7168 2.99766 14.457C3.27088 14.1033 3.53721 13.9836 3.85988 14.0849C4.23971 14.2038 4.47171 14.5937 4.27705 15.2156C4.19594 15.4743 4.04538 15.7077 3.93483 15.8132L3.54727 15.5775Z" fill="white"/>
    <path d="M3.18609 12.5294L2.91659 13.1113L2.50781 12.9221L3.27409 11.2663L3.68293 11.4556L3.41109 12.0438L5.15598 12.8513L4.93159 13.3372L3.18609 12.5294Z" fill="white"/>
    <path d="M3.92166 10.1591L5.96293 11.371L5.68972 11.8313L3.64844 10.6195L3.92166 10.1591Z" fill="white"/>
    <path d="M5.06392 9.27837L4.68237 9.79331L4.32031 9.52498L5.40626 8.05914L5.76831 8.32748L5.38282 8.84826L6.92804 9.99298L6.60926 10.4231L5.06392 9.27837Z" fill="white"/>
    <path d="M6.30652 7.04418L7.27474 8.00385C7.56719 8.29379 7.82652 8.32752 8.01741 8.1349C8.21569 7.9349 8.18463 7.68591 7.88452 7.38846L6.91646 6.4289L7.29347 6.04874L8.23885 6.98591C8.75913 7.50152 8.74669 8.00951 8.31019 8.45001C7.88874 8.87524 7.40574 8.88735 6.8703 8.35663L5.92969 7.42468L6.30652 7.04418Z" fill="white"/>
    <path d="M8.71251 5.47148L8.20101 5.85743L7.92969 5.49759L9.38574 4.39904L9.65741 4.75887L9.14007 5.14926L10.2979 6.68437L9.87079 7.00659L8.71251 5.47148Z" fill="white"/>
    <path d="M11.973 4.46091L11.2139 4.89335L11.493 5.38307L12.3405 4.89996L12.5585 5.28229L11.2457 6.03052L10.0703 3.96829L11.3399 3.24452L11.5579 3.62685L10.7534 4.08563L10.9977 4.51396L11.7564 4.08152L11.973 4.46091Z" fill="white"/>
    <path d="M14.7924 3.96435C15.1375 3.85224 15.2296 3.46295 15.0858 3.02106C14.954 2.61567 14.6501 2.3294 14.2982 2.44374C13.9463 2.5579 13.8601 2.96401 13.9973 3.38579C14.1356 3.81146 14.4475 4.07646 14.7894 3.96546L14.7924 3.96435ZM14.9011 4.37729C14.2343 4.59395 13.675 4.21662 13.4656 3.57362C13.2458 2.89696 13.5167 2.24973 14.1798 2.03395C14.8731 1.80879 15.4205 2.20486 15.623 2.8278C15.8649 3.57147 15.5641 4.16168 14.9044 4.37602L14.9011 4.37729Z" fill="white"/>
    <path d="M16.1484 1.53496L17.5758 1.294L17.649 1.72818L16.7492 1.88001L16.8398 2.4148L17.6804 2.27274L17.7528 2.70346L16.9123 2.84535L17.0714 3.78662L16.5435 3.87573L16.1484 1.53496Z" fill="white"/>
    <path d="M20.0156 1.60488L19.375 1.59448L19.3821 1.1436L21.2063 1.17321L21.1989 1.62393L20.5509 1.61354L20.5197 3.53638L19.9846 3.5277L20.0156 1.60488Z" fill="white"/>
    <path d="M23.209 2.80535L22.3445 2.68112L22.2643 3.2389L23.23 3.37751L23.1675 3.81323L21.6719 3.59857L22.009 1.24895L23.4562 1.45667L23.3932 1.89229L22.4766 1.76078L22.4065 2.24884L23.2709 2.3729L23.209 2.80535Z" fill="white"/>
    <path d="M25.4118 4.34605C25.308 4.36416 25.0759 4.3566 24.8014 4.27883C24.0118 4.0546 23.746 3.44449 23.9317 2.79066C24.153 2.01144 24.831 1.73883 25.5219 1.93505C25.7894 2.0111 25.9776 2.12321 26.0554 2.1966L25.8313 2.57238C25.7423 2.49943 25.6082 2.41744 25.4219 2.36433C25.0156 2.24894 24.6268 2.40576 24.4813 2.91743C24.3513 3.37487 24.5406 3.73977 24.9981 3.86971C25.1575 3.91488 25.3357 3.93255 25.453 3.91838L25.4118 4.34605Z" fill="white"/>
    <path d="M27.4101 2.66597L27.0299 3.49885L27.8342 3.86596L28.2143 3.03291L28.7016 3.25507L27.7161 5.41479L27.2291 5.19225L27.6397 4.29196L26.8354 3.92519L26.4249 4.82547L25.9375 4.60341L26.9232 2.44358L27.4101 2.66597Z" fill="white"/>
    <path d="M28.3203 5.74632L29.6383 3.77172L30.1595 4.11971L30.0869 5.11705C30.065 5.40316 30.0151 5.72555 29.9571 6.009L29.9633 6.01288C30.111 5.73466 30.28 5.46221 30.4794 5.16327L30.8626 4.58911L31.273 4.86282L29.9548 6.83716L29.4864 6.52455L29.5729 5.48127C29.5985 5.18927 29.6348 4.84927 29.6953 4.55543L29.6838 4.54755C29.5225 4.82094 29.3425 5.10316 29.1274 5.42533L28.7307 6.01999L28.3203 5.74632Z" fill="white"/>
    <path d="M31.4986 7.67757C31.7638 7.92496 32.1485 7.81707 32.4662 7.4774C32.7569 7.1659 32.8599 6.76101 32.5896 6.50857C32.3197 6.25629 31.9224 6.37706 31.6197 6.70151C31.3141 7.0284 31.2331 7.42984 31.4958 7.67501L31.4986 7.67757ZM31.1896 7.97207C30.6773 7.49379 30.7362 6.82151 31.1981 6.32718C31.6837 5.80718 32.381 5.73079 32.8911 6.20668C33.4237 6.70435 33.3421 7.37502 32.895 7.85379C32.3616 8.42529 31.6997 8.44796 31.1921 7.97457L31.1896 7.97207Z" fill="white"/>
    <path d="M34.2965 7.6923L34.6315 8.10997L33.1319 9.31375L33.7229 10.0498L33.3716 10.332L32.4453 9.17864L34.2965 7.6923Z" fill="white"/>
    <path d="M34.4622 11.3364C34.6488 11.6474 35.0485 11.6496 35.4474 11.4103C35.8124 11.1909 36.0233 10.8303 35.8331 10.5134C35.6425 10.1962 35.2274 10.2032 34.847 10.4315C34.4636 10.6617 34.2754 11.0254 34.4603 11.3333L34.4622 11.3364ZM34.0838 11.5347C33.7233 10.9337 33.9652 10.3036 34.5447 9.95564C35.1549 9.58947 35.8464 9.70824 36.2055 10.306C36.5809 10.9311 36.3176 11.5533 35.756 11.8904C35.0857 12.293 34.443 12.1325 34.0859 11.5377L34.0838 11.5347Z" fill="white"/>
    <path d="M35.794 14.8289C35.6804 14.6958 35.4931 14.4331 35.377 14.1416C35.2172 13.7391 35.203 13.4075 35.3157 13.1279C35.4299 12.8514 35.6734 12.6258 35.9973 12.4971C36.7319 12.2095 37.363 12.5766 37.6502 13.2999C37.7632 13.5848 37.7947 13.8262 37.7882 13.9536L37.3443 14.0089C37.3517 13.8657 37.3324 13.7027 37.2364 13.4605C37.0713 13.0448 36.7098 12.8207 36.2315 13.0105C35.7736 13.1925 35.6225 13.5857 35.785 13.995C35.8291 14.1064 35.8786 14.1926 35.9104 14.2254L36.3757 14.0409L36.2404 13.7005L36.6298 13.5459L36.9561 14.3676L35.794 14.8289Z" fill="white"/>
    <path d="M35.9847 16.014L36.9319 15.7957L38.1294 14.7499L38.2678 15.3505L37.7656 15.712C37.6139 15.8228 37.5026 15.9026 37.3642 15.9924L37.3653 15.9995C37.5214 16.0176 37.6677 16.0417 37.8485 16.0724L38.4583 16.1776L38.5932 16.7644L37.0691 16.3133L36.1047 16.5356L35.9847 16.014Z" fill="white"/>
    <path d="M37.3872 20.6753C37.6721 20.6602 38.0135 20.6438 38.362 20.6385V20.6311C38.0579 20.5586 37.7182 20.4657 37.4385 20.3786L36.5076 20.1048L36.5009 19.6857L37.4122 19.4174C37.6932 19.3353 38.0261 19.2523 38.3385 19.1874V19.1804C38.0178 19.1748 37.6514 19.167 37.3552 19.1577L36.4533 19.1265L36.4453 18.6298L38.821 18.7429L38.8325 19.4578L38.0404 19.7031C37.7705 19.7849 37.4759 19.8604 37.1987 19.9177V19.9314C37.4744 19.9906 37.7856 20.0665 38.0546 20.1432L38.8475 20.3805L38.8589 21.0846L36.4874 21.25L36.4793 20.7286L37.3872 20.6753Z" fill="white"/>
    <path d="M37.1925 23.1777L37.7141 23.1166C37.8591 23.1018 38.0434 23.0903 38.1846 23.0785L38.1863 23.0679C38.0527 23.0133 37.8825 22.9448 37.7531 22.8873L37.2805 22.6604L37.1925 23.1777ZM36.8977 22.5168L36.325 22.2514L36.4182 21.7028L38.6369 22.8164L38.5193 23.507L36.0547 23.8379L36.1517 23.2686L36.7831 23.1902L36.8977 22.5168Z" fill="white"/>
    <path d="M36.1352 24.992C36.1104 25.0317 36.0853 25.1052 36.065 25.1651C35.9045 25.6277 36.0548 26.0174 36.5921 26.1994C37.0755 26.3633 37.3985 26.1679 37.5477 25.7277C37.5852 25.6178 37.6015 25.5375 37.6058 25.4907L36.1352 24.992ZM38.138 25.106C38.1083 25.304 38.0423 25.5531 37.9563 25.8066C37.8102 26.237 37.645 26.4932 37.4091 26.6512C37.1566 26.8261 36.8266 26.8776 36.4263 26.7421C35.9961 26.5959 35.7527 26.3385 35.6412 26.0628C35.5253 25.7592 35.5551 25.3638 35.7044 24.9238C35.7938 24.6602 35.8748 24.4756 35.9333 24.3581L38.138 25.106Z" fill="white"/>
    <path d="M35.9326 27.9346L35.835 28.1223C35.712 28.3597 35.7576 28.5621 35.9421 28.6578C36.1327 28.7566 36.3011 28.6776 36.4146 28.4585C36.4745 28.3427 36.5022 28.274 36.5107 28.2346L35.9326 27.9346ZM37.0806 27.9318C37.0296 28.0992 36.9313 28.3342 36.7986 28.5904C36.6363 28.9035 36.4757 29.0975 36.2762 29.1846C36.1095 29.2605 35.9269 29.2532 35.7332 29.1526C35.4672 29.015 35.3819 28.7283 35.4102 28.5131L35.401 28.5081C35.2654 28.624 35.0853 28.6341 34.864 28.5863C34.5891 28.5271 34.2819 28.4471 34.1797 28.4455L34.4323 27.9578C34.508 27.9573 34.7076 27.9936 34.9981 28.0688C35.2945 28.1474 35.4102 28.092 35.5154 27.897L35.5887 27.7562L34.7603 27.3263L35.0052 26.8541L37.0806 27.9318Z" fill="white"/>
    <path d="M34.0234 30.4291L34.518 30.6047C34.6545 30.6558 34.8249 30.727 34.9569 30.7788L34.9631 30.7703C34.8675 30.6621 34.7453 30.5254 34.6544 30.4166L34.3309 30.0042L34.0234 30.4291ZM34.0513 29.7056L33.6549 29.2144L33.9815 28.7637L35.4785 30.7439L35.0675 31.3113L32.7109 30.5179L33.0497 30.0503L33.6506 30.259L34.0513 29.7056Z" fill="white"/>
    <path d="M32.7528 31.3037C32.6015 31.3537 32.3917 31.4649 32.233 31.6298C32.062 31.8073 32.0452 31.972 32.1594 32.082C32.2632 32.1821 32.4049 32.162 32.6738 32.0252C33.049 31.8385 33.3868 31.8026 33.6381 32.0445C33.9298 32.3254 33.9135 32.784 33.5274 33.1849C33.3394 33.3797 33.1668 33.4827 33.0211 33.5378L32.7946 33.1539C32.8911 33.1196 33.0589 33.0416 33.2176 32.8767C33.379 32.709 33.3787 32.5523 33.2924 32.4693C33.1831 32.3641 33.0447 32.4116 32.7434 32.5517C32.3411 32.7462 32.0493 32.7339 31.8058 32.4994C31.5194 32.2233 31.486 31.7706 31.9381 31.3011C32.126 31.1062 32.3652 30.9648 32.5113 30.9196L32.7528 31.3037Z" fill="white"/>
    <path d="M31.1708 34.1367C31.1708 34.3304 31.0136 34.4875 30.8197 34.4875C30.6256 34.4875 30.4688 34.3304 30.4688 34.1367C30.4688 33.9428 30.6256 33.7855 30.8197 33.7855C31.0136 33.7855 31.1708 33.9428 31.1708 34.1367Z" fill="white"/>
    <path d="M9.53018 34.1368C9.53018 34.3306 9.37285 34.4875 9.17918 34.4875C8.98518 34.4875 8.82812 34.3306 8.82812 34.1368C8.82812 33.943 8.98518 33.7855 9.17918 33.7855C9.37285 33.7855 9.53018 33.943 9.53018 34.1368Z" fill="white"/>
    <path d="M11.6016 29.4496L17.2077 30.4505L16.6069 31.1511L22.1131 31.6311L21.5617 32.0816L26.9946 32.32L19.8104 33.0325L20.7113 32.2319L15.0053 31.6517L15.9562 30.9511L11.6016 29.4496Z" fill="white"/>
    <path d="M10.9555 34.3237L11.4487 34.6128C11.4504 34.5188 11.4625 34.4284 11.485 34.3418C11.5077 34.2555 11.5411 34.1746 11.5851 34.0991C11.654 33.981 11.7593 33.9084 11.9009 33.8807C12.0425 33.8528 12.179 33.8773 12.3113 33.9549C12.4738 34.0502 12.6081 34.2216 12.7146 34.4697C12.8211 34.7171 12.8878 35.0122 12.9147 35.3542L12.8135 35.3659C12.7921 35.1158 12.73 34.8934 12.627 34.6985C12.5242 34.5035 12.3904 34.3577 12.2253 34.261C12.1332 34.2072 12.0302 34.2023 11.9159 34.2456C11.8011 34.2891 11.7096 34.3703 11.6404 34.4876C11.5908 34.5723 11.5621 34.6346 11.5541 34.675L11.7483 34.7886L11.784 35.0928L11.5185 34.9372L10.6077 36.4895L10.4297 36.1486L11.2376 34.7721L10.9887 34.6262L10.9555 34.3237Z" fill="white"/>
    <path d="M12.2355 35.6129C12.2116 35.7094 12.1738 35.8105 12.1226 35.9165C12.156 35.9905 12.1949 36.054 12.2385 36.1072C12.2821 36.1599 12.3297 36.199 12.3807 36.2239C12.4347 36.2501 12.4935 36.2623 12.5573 36.2614C12.6209 36.2603 12.6839 36.2458 12.7456 36.2184L12.9962 35.7017L12.262 35.3453C12.2679 35.4277 12.2592 35.5167 12.2355 35.6129ZM12.3004 37.1378L12.5849 36.5496C12.5645 36.5546 12.5355 36.5523 12.4983 36.5415C12.4615 36.5312 12.4169 36.5137 12.3656 36.4886C12.2877 36.4505 12.2196 36.3897 12.162 36.3061C12.1045 36.2222 12.0612 36.1233 12.032 36.0093C11.9632 36.0757 11.8886 36.1256 11.8084 36.1597C11.7279 36.1935 11.6503 36.2058 11.5757 36.1967C11.6258 36.4811 11.7362 36.7693 11.9073 37.0608L11.7077 37.1456C11.4158 36.308 11.3117 35.8039 11.3949 35.6321C11.4173 35.5852 11.4492 35.5526 11.4905 35.5332C11.5317 35.5138 11.5696 35.5124 11.604 35.5293C11.6431 35.5486 11.6736 35.5807 11.6945 35.6276C11.7162 35.6742 11.7264 35.7295 11.726 35.7928C11.7957 35.7929 11.8598 35.7745 11.9187 35.738C11.9775 35.7011 12.0223 35.6507 12.0538 35.5868C12.0811 35.5303 12.0998 35.4754 12.1102 35.4229C12.1209 35.3699 12.1221 35.3207 12.114 35.2741L11.5679 35.0098L11.5088 34.7088L13.5071 35.6771L13.5662 35.978L13.2899 35.8438L12.5049 37.4641L12.3004 37.1378Z" fill="white"/>
    <path d="M13.3068 35.569L13.8435 35.7786C13.8298 35.6859 13.827 35.5948 13.835 35.5062C13.8433 35.4178 13.8627 35.333 13.8944 35.2518C13.9438 35.1257 14.0359 35.0374 14.1707 34.9879C14.3057 34.9388 14.4446 34.9416 14.5868 34.9974C14.7626 35.0659 14.9222 35.2135 15.0664 35.4401C15.2107 35.667 15.3235 35.9462 15.4045 36.2785L15.3063 36.3059C15.2457 36.0633 15.1496 35.8544 15.0177 35.6788C14.8855 35.5033 14.7309 35.3812 14.5531 35.3117C14.454 35.2731 14.3517 35.2841 14.246 35.3454C14.1402 35.406 14.0629 35.4997 14.0137 35.626C13.978 35.7172 13.9597 35.7832 13.9578 35.8233L14.1658 35.9043L14.2479 36.2015L13.9616 36.0898L13.307 37.7668L13.0781 37.4578L13.6581 35.9716L13.3881 35.866L13.3068 35.569Z" fill="white"/>
    <path d="M14.3735 37.9824C14.3953 38.0191 14.4282 38.044 14.4721 38.0574C14.561 38.0836 14.6553 38.0794 14.7551 38.0441C14.8548 38.0091 14.944 37.9479 15.0214 37.8603C14.8412 37.8063 14.7233 37.7498 14.6671 37.6903C14.592 37.6875 14.5253 37.7031 14.4683 37.737C14.4116 37.7712 14.3748 37.8164 14.3572 37.8733C14.3465 37.9098 14.3515 37.9465 14.3735 37.9824ZM16.0665 36.5089L16.1715 36.7981L15.8198 36.6925L15.6559 37.2388L14.8931 37.0098C14.8332 36.9918 14.7757 36.9994 14.7201 37.0325C14.6646 37.0655 14.6272 37.115 14.6076 37.18C14.5865 37.2506 14.5991 37.3199 14.6452 37.388C14.6915 37.4563 14.758 37.503 14.844 37.5289L15.0842 37.5797C15.0809 37.5614 15.0792 37.544 15.0787 37.5266C15.0781 37.5096 15.0798 37.4945 15.0837 37.4818C15.0988 37.4315 15.135 37.3961 15.1928 37.3739C15.2512 37.3508 15.3137 37.3498 15.3818 37.37C15.4522 37.3914 15.504 37.4358 15.5375 37.5045C15.5709 37.5731 15.5766 37.6449 15.5536 37.7207C15.5388 37.7705 15.507 37.8117 15.4592 37.8441C15.4105 37.8769 15.3534 37.8945 15.2867 37.8974L15.5952 38.501L15.4041 38.5715L15.2419 38.118C15.1443 38.1968 15.038 38.2481 14.9233 38.2736C14.8086 38.299 14.7005 38.2958 14.5983 38.2656C14.4734 38.2278 14.3603 38.1483 14.2596 38.0273C14.1583 37.9062 14.1197 37.8054 14.144 37.7245C14.1526 37.6958 14.1643 37.6696 14.1786 37.6454C14.1928 37.6213 14.21 37.5996 14.2293 37.5794C14.0994 37.5294 14.0003 37.4547 13.9318 37.3556C13.8635 37.2568 13.8433 37.1602 13.872 37.066C13.8819 37.0322 13.9086 36.9936 13.9511 36.9509C13.9939 36.9083 14.049 36.864 14.1169 36.819L14.3208 37.1364C14.2745 37.1571 14.2362 37.1796 14.2057 37.2045C14.1753 37.2296 14.1567 37.2539 14.1495 37.2777C14.1386 37.3139 14.1484 37.3519 14.178 37.3901C14.2071 37.4294 14.2496 37.4569 14.3048 37.4736L14.4983 37.4037C14.4506 37.3324 14.4207 37.2553 14.4079 37.1734C14.3952 37.0911 14.4003 37.0109 14.4238 36.9324C14.4515 36.841 14.519 36.7755 14.6258 36.7364C14.7333 36.6974 14.8495 36.6966 14.9747 36.7342L15.4251 36.8696L15.5068 36.598L14.0296 36.1543L13.9246 35.8649L16.0665 36.5089Z" fill="white"/>
    <path d="M16.2366 36.9297C16.2848 36.9899 16.3511 37.0318 16.4354 37.0551L16.4971 36.7131C16.5039 36.6757 16.5016 36.6411 16.4909 36.6101C16.4801 36.5792 16.4641 36.5617 16.4424 36.5578C16.3813 36.5465 16.3253 36.5589 16.2749 36.594C16.2245 36.6293 16.1933 36.6776 16.1822 36.7391C16.17 36.8063 16.1883 36.8699 16.2366 36.9297ZM16.882 36.657L17.8664 36.8359L18.0031 37.1115L17.7018 37.0567L17.3807 38.8269L17.0946 38.5669L17.1899 38.0433L16.6081 37.9375L16.5718 38.1391C16.5634 38.1846 16.5442 38.2203 16.5149 38.2467C16.485 38.2735 16.4544 38.2835 16.4218 38.2778C16.3256 38.2605 16.2292 38.1762 16.1335 38.0263C16.0376 37.8753 15.999 37.7482 16.0181 37.6436C16.0231 37.6168 16.0409 37.5961 16.0727 37.5811C16.1045 37.5663 16.1388 37.562 16.1765 37.5687L16.3366 37.5982L16.4059 37.2163C16.2537 37.1439 16.1368 37.0466 16.0558 36.9241C15.9749 36.8011 15.9456 36.6782 15.9684 36.5548C15.982 36.477 16.0259 36.4163 16.0984 36.3726C16.1714 36.329 16.2522 36.3151 16.3403 36.3312C16.4609 36.3527 16.5696 36.4398 16.6661 36.592C16.7626 36.7438 16.7994 36.8841 16.7762 37.0129L16.6592 37.6564L17.2406 37.7619L17.3792 36.9984L16.9985 36.9291L16.882 36.657Z" fill="white"/>
    <path d="M17.3771 35.8314C17.4618 35.7691 17.5568 35.7442 17.662 35.7574C17.7701 35.7712 17.8663 35.8124 17.9507 35.8818C18.0354 35.9514 18.0945 36.0395 18.1277 36.1448L18.0597 36.1982C18.0272 36.1474 17.9896 36.1072 17.9469 36.0767C17.9042 36.0465 17.8598 36.0288 17.814 36.0231C17.7201 36.0113 17.6349 36.0352 17.5592 36.0944C17.4833 36.1543 17.4395 36.2312 17.4277 36.3258C17.4212 36.3773 17.4299 36.4351 17.4533 36.4987C17.4768 36.562 17.5149 36.6275 17.5663 36.6942L17.4773 36.7493C17.3853 36.6502 17.3177 36.5409 17.2752 36.4228C17.232 36.305 17.2177 36.1888 17.2318 36.0752C17.2442 35.9749 17.2927 35.894 17.3771 35.8314Z" fill="white"/>
    <path d="M18.1554 38.1848C18.2038 38.2319 18.2646 38.2581 18.3384 38.2636C18.4386 38.2715 18.5471 38.2549 18.6634 38.2141C18.7801 38.1737 18.8957 38.1116 19.0112 38.0272C18.9469 37.9382 18.8756 37.867 18.7976 37.8149C18.7195 37.7626 18.6412 37.7337 18.5623 37.7277C18.4375 37.7187 18.3293 37.7426 18.2376 37.7998C18.1457 37.8571 18.0965 37.9307 18.0899 38.0201C18.0855 38.0826 18.1072 38.1373 18.1554 38.1848ZM19.5422 36.9592L19.7071 37.2187L19.4011 37.196L19.2672 38.9915L18.9565 38.7628L18.9872 38.3533C18.9033 38.4128 18.8179 38.4576 18.731 38.4867C18.6442 38.516 18.5614 38.5277 18.4825 38.5217C18.3306 38.5107 18.1823 38.4285 18.0381 38.2757C17.8934 38.1223 17.8266 37.9768 17.837 37.8379C17.8455 37.7211 17.9027 37.6241 18.0077 37.5473C18.1135 37.47 18.237 37.4371 18.3782 37.4475C18.5034 37.4568 18.6231 37.5001 18.7375 37.577C18.8518 37.6538 18.9466 37.7563 19.022 37.885L19.0751 37.1716L17.7668 37.0741L17.6016 36.8149L19.5422 36.9592Z" fill="white"/>
    <path d="M19.3359 36.9409L19.9112 36.9502C19.8657 36.8679 19.8315 36.7833 19.8082 36.6975C19.7851 36.6115 19.7742 36.5247 19.7756 36.4377C19.7778 36.3014 19.8334 36.1869 19.9429 36.0932C20.052 36.0002 20.1833 35.9545 20.3359 35.9568C20.5248 35.9602 20.7256 36.0425 20.9403 36.2051C21.1543 36.3681 21.3573 36.5912 21.5495 36.8747L21.4667 36.9345C21.3254 36.7285 21.1619 36.5658 20.9773 36.4471C20.792 36.3285 20.6048 36.2679 20.4133 36.2644C20.3068 36.2633 20.215 36.3091 20.1367 36.4028C20.0588 36.4973 20.0186 36.6118 20.0164 36.7479C20.0147 36.8458 20.0203 36.914 20.0336 36.9521L20.2575 36.956L20.4378 37.2052L20.1307 37.1996L20.1014 38.9988L19.7789 38.7887L19.8049 37.1946L19.5152 37.1901L19.3359 36.9409Z" fill="white"/>
    <path d="M21.9414 36.8594L22.1416 37.0933L21.8357 37.1139L21.9556 38.9095L21.6159 38.7267L21.5562 37.8287L20.9232 37.8709C20.8657 37.8748 20.8195 37.904 20.7833 37.9582C20.7476 38.0128 20.7315 38.0764 20.7368 38.1498C20.7439 38.2615 20.7876 38.3758 20.8663 38.4919C20.9451 38.6081 21.0535 38.7168 21.1912 38.8168L21.0754 38.927C20.8728 38.7493 20.7142 38.5808 20.6006 38.4219C20.4877 38.2624 20.4269 38.1243 20.419 38.0076C20.4118 37.8905 20.4409 37.7876 20.5075 37.6983C20.5738 37.6092 20.6576 37.5613 20.7581 37.5547L21.5348 37.5029L21.5101 37.1355L20.2232 37.2212L20.0234 36.9876L21.9414 36.8594Z" fill="white"/>
    <path d="M23.1998 37.9013C23.2462 37.9322 23.2977 37.9418 23.354 37.9303C23.4368 37.9134 23.5151 37.8742 23.5901 37.8112C23.6647 37.7487 23.7285 37.669 23.7811 37.572C23.7339 37.5178 23.6796 37.4785 23.6172 37.4539C23.5555 37.429 23.4966 37.4223 23.4403 37.4339C23.3361 37.4549 23.2518 37.4982 23.1877 37.5644C23.1232 37.6303 23.0983 37.6988 23.1128 37.7708C23.1241 37.827 23.1531 37.8703 23.1998 37.9013ZM24.6777 36.3467L24.907 36.5498L23.9459 36.7455L24.0558 37.2872C24.0843 37.2336 24.1219 37.1892 24.1695 37.1539C24.2166 37.1189 24.2698 37.0951 24.3287 37.0834C24.4386 37.061 24.5665 37.1191 24.7125 37.258C24.8581 37.3968 24.947 37.5453 24.9787 37.703C24.9936 37.7753 24.9937 37.8559 24.9793 37.9451C24.9656 38.0345 24.9378 38.1266 24.8953 38.2215L24.5846 38.0339C24.6471 37.9404 24.6901 37.85 24.7156 37.7613C24.7412 37.6728 24.7468 37.5938 24.7327 37.5241C24.7188 37.4575 24.6859 37.4053 24.6333 37.3668C24.581 37.329 24.5235 37.3164 24.4618 37.3287C24.4054 37.3404 24.3479 37.3739 24.2894 37.429C24.2309 37.4838 24.1777 37.5564 24.1288 37.6474L24.3041 38.509L23.9437 38.3731L23.8542 37.9323C23.818 37.987 23.7725 38.0322 23.7186 38.0682C23.6646 38.1042 23.6062 38.1285 23.542 38.1418C23.4216 38.1663 23.287 38.1215 23.1386 38.0066C22.9901 37.8921 22.9022 37.767 22.8744 37.6308C22.8555 37.5372 22.8789 37.4492 22.9435 37.3662C23.0094 37.2834 23.0961 37.2311 23.2062 37.2085C23.2917 37.1911 23.382 37.2005 23.4766 37.2369C23.5722 37.2736 23.6622 37.332 23.7484 37.4125L23.6256 36.8106L22.6199 37.0153L22.3906 36.812L24.6777 36.3467Z" fill="white"/>
    <path d="M24.5703 38.4422L24.5736 38.4416L24.5753 38.4455L24.5714 38.446L24.5703 38.4422Z" fill="white"/>
    <path d="M25.558 37.0935L26.1403 36.8944L25.8884 36.1596L25.3064 36.3588L25.558 37.0935ZM26.2335 35.7811L26.4873 35.9548L26.1979 36.0537L26.7807 37.7565L26.4045 37.6689L26.2459 37.2042L25.6642 37.4034L25.7302 37.5969C25.7454 37.6405 25.7465 37.6812 25.733 37.7193C25.7202 37.7569 25.6978 37.7809 25.6674 37.7914C25.569 37.8253 25.4383 37.7976 25.2757 37.7094C25.1125 37.6209 25.0136 37.5252 24.9782 37.4218C24.9678 37.391 24.9717 37.3592 24.9912 37.3267C25.0102 37.2941 25.038 37.2716 25.074 37.2593L25.2479 37.1998L24.9966 36.4648L24.5902 36.6042L24.3359 36.4305L26.2335 35.7811Z" fill="white"/>
    <path d="M25.3245 35.1408C25.3686 35.0456 25.4398 34.9779 25.5389 34.9383C25.6397 34.8978 25.7447 34.8871 25.8527 34.9069C25.9601 34.9266 26.0543 34.9746 26.1346 35.0505L26.1006 35.1305C26.048 35.1017 25.9955 35.0843 25.9436 35.079C25.891 35.0734 25.8429 35.0792 25.8003 35.0967C25.7113 35.1323 25.6482 35.1945 25.61 35.2831C25.5723 35.3724 25.5708 35.4609 25.6062 35.5496C25.6262 35.5978 25.6611 35.6441 25.7128 35.688C25.7641 35.732 25.8291 35.7709 25.9074 35.8039L25.8556 35.8953C25.7271 35.8528 25.6158 35.7903 25.5207 35.7079C25.4266 35.625 25.3578 35.5312 25.3147 35.4247C25.2777 35.331 25.2808 35.2365 25.3245 35.1408Z" fill="white"/>
    <path d="M28.0645 34.9353L28.3347 35.0772L28.0588 35.2076L28.8273 36.8337L28.4432 36.7903L28.0758 36.012L27.5573 36.2572C27.6718 36.2882 27.7717 36.3344 27.8572 36.397C27.9424 36.4597 28.0052 36.5331 28.0451 36.6167C28.0879 36.7079 28.0905 36.8022 28.0522 36.9008C28.0133 36.9981 27.9463 37.0701 27.8501 37.1157C27.6895 37.1915 27.4892 37.1718 27.2495 37.0573C27.0095 36.9425 26.7802 36.7569 26.5629 36.5003L26.656 36.4109C26.8101 36.592 26.9739 36.722 27.1457 36.8014C27.3177 36.8803 27.463 36.8921 27.5818 36.8361C27.6333 36.8114 27.6681 36.771 27.6851 36.7144C27.7024 36.6576 27.6972 36.6011 27.6705 36.5441C27.6293 36.4578 27.5477 36.3814 27.4241 36.3151C27.3007 36.2493 27.1506 36.2013 26.9728 36.1698L27.9353 35.7148L27.7618 35.3476L26.2473 36.0633L25.9766 35.9214L28.0645 34.9353Z" fill="white"/>
    <path d="M28.6537 34.5709L28.9367 34.6929L28.6716 34.8458L29.5706 36.405L29.184 36.3915L28.3873 35.0098L28.1348 35.155L27.8516 35.0333L28.6537 34.5709Z" fill="white"/>
    <path d="M9.03906 22.4123C9.03906 22.9302 10.2458 23.194 10.5612 23.2746C11.9104 23.6202 13.3157 23.7863 14.7022 23.8823C15.9871 23.9718 17.5502 23.7623 18.7838 23.4403C18.0591 22.4751 17.358 21.5063 16.8554 20.4094C12.2779 20.711 9.03906 21.6312 9.03906 22.4123ZM23.1427 20.3992C22.6401 21.496 21.9391 22.465 21.2143 23.43C22.4478 23.7521 24.011 23.9615 25.2959 23.8721C26.6823 23.776 28.0878 23.6099 29.4368 23.2646C29.7523 23.1838 30.9591 22.92 30.9591 22.402C30.9591 21.6211 27.7201 20.7009 23.1427 20.3992Z" fill="white"/>
    <path d="M9 21.8726C9 22.6117 10.2111 22.9881 10.5277 23.1032C11.8818 23.5963 13.2923 23.8333 14.6838 23.9704C15.9734 24.098 17.5422 23.7992 18.7803 23.3396C18.0529 21.9623 17.3492 20.5798 16.8449 19.0146C12.2507 19.4449 9 20.758 9 21.8726ZM23.1551 19C22.6507 20.5652 21.9471 21.9479 21.2197 23.325C22.4577 23.7846 24.0266 24.0834 25.3162 23.9558C26.7077 23.8187 28.1183 23.5816 29.4722 23.0888C29.7888 22.9736 31 22.5971 31 21.858C31 20.7436 27.7492 19.4306 23.1551 19Z" stroke="#1F1917" stroke-width="3.12425" stroke-miterlimit="10"/>
    <path d="M18.7973 23.4342C18.0776 22.4747 17.3815 21.4926 16.8816 20.3999C16.8434 20.3158 16.8034 20.2325 16.7675 20.1471C16.516 19.5495 16.3143 18.9379 16.1973 18.3456C15.67 15.6839 16.5101 12.9827 17.9824 10.7709C18.8424 9.47829 19.7588 8.16241 19.9929 6.59141H20.0433C20.2773 8.16241 21.1936 9.47829 22.0535 10.7709C23.5256 12.9827 24.3661 15.6839 23.8391 18.3456C23.7215 18.9379 23.5199 19.5495 23.2684 20.1471C23.2325 20.232 23.1927 20.3147 23.1546 20.3982C22.652 21.495 21.951 22.464 21.2262 23.429C20.7736 23.3111 20.364 23.178 20.031 23.0385C19.6971 23.1783 19.2869 23.3112 18.8335 23.4295C18.8335 23.4295 18.801 23.4376 18.7973 23.4342Z" fill="white"/>
    <path d="M18.7973 23.4342C18.0776 22.4747 17.3815 21.4926 16.8816 20.3999C16.8434 20.3158 16.8034 20.2325 16.7675 20.1471C16.516 19.5495 16.3143 18.9379 16.1973 18.3456C15.67 15.6839 16.5101 12.9827 17.9824 10.7709C18.8424 9.47829 19.7588 8.16241 19.9929 6.59141H20.0433C20.2773 8.16241 21.1936 9.47829 22.0535 10.7709C23.5256 12.9827 24.3661 15.6839 23.8391 18.3456C23.7215 18.9379 23.5199 19.5495 23.2684 20.1471C23.2325 20.232 23.1927 20.3147 23.1546 20.3982C22.652 21.495 21.951 22.464 21.2262 23.429C20.7736 23.3111 20.364 23.178 20.031 23.0385C19.6971 23.1783 19.2869 23.3112 18.8335 23.4295C18.8335 23.4295 18.801 23.4376 18.7973 23.4342Z" stroke="#1F1917" stroke-width="3.12425" stroke-miterlimit="10"/>
    <path d="M18.784 23.4407C17.5505 23.7628 15.9873 23.9722 14.7024 23.8828C13.316 23.7867 11.9106 23.6206 10.5615 23.2751C10.276 23.2022 9.26104 22.9792 9.07048 22.5537C10.1173 26.3921 14.6128 29.2786 20.002 29.2786C25.3903 29.2786 29.8865 26.3924 30.9326 22.554H30.9228C30.7203 22.9726 29.7201 23.1926 29.4371 23.265C28.0881 23.6103 26.6826 23.7765 25.2961 23.8726C24.0113 23.962 22.4481 23.7526 21.2145 23.4305C20.762 23.3126 20.3524 23.1795 20.0193 23.0399C19.6854 23.1798 19.2752 23.3127 18.8218 23.431C18.8218 23.431 18.7894 23.4388 18.7856 23.4354L18.784 23.4407Z" fill="#781F19"/>
    <path d="M18.5527 23.7914C17.3396 24.0788 15.8024 24.2656 14.5388 24.1858C13.1753 24.1001 11.7933 23.9519 10.4665 23.6436C10.1857 23.5786 9.18756 23.3796 9.00017 23C10.0296 26.4247 14.4506 29 19.7505 29C25.0495 29 29.4712 26.4249 30.5 23.0003H30.4903C30.2911 23.3737 29.3075 23.57 29.0292 23.6347C27.7026 23.9428 26.3204 24.091 24.9569 24.1767C23.6933 24.2565 22.1561 24.0697 20.943 23.7823C20.4979 23.6771 20.0951 23.5584 19.7675 23.4339C19.4392 23.5586 19.0358 23.6772 18.5899 23.7828C18.5899 23.7828 18.558 23.7897 18.5543 23.7867" stroke="#1F1917" stroke-width="3.12425" stroke-miterlimit="10"/>
    <path d="M20.2009 20.2178C20.1148 20.3054 20.0378 20.4026 20.0349 20.4817H20.0239C20.0211 20.3984 19.9353 20.295 19.8438 20.2037V23.0696H19.9474C19.9718 23.0597 19.9968 23.0499 20.0205 23.04C20.0441 23.0499 20.0691 23.0597 20.0934 23.0696H20.2009V20.2178Z" fill="#BDA345"/>
    <path d="M20.2009 20.2178C20.1148 20.3054 20.0378 20.4026 20.0349 20.4817H20.0239C20.0211 20.3984 19.9353 20.295 19.8438 20.2037V23.0696H19.9474C19.9718 23.0597 19.9968 23.0499 20.0205 23.04C20.0441 23.0499 20.0691 23.0597 20.0934 23.0696H20.2009V20.2178Z" stroke="#1F1917" stroke-width="3.12425" stroke-miterlimit="10"/>
    <path d="M20.0672 18.165H19.9892C19.5951 18.165 19.2658 18.4486 19.1776 18.8471C19.0632 19.3624 19.299 19.6918 19.6491 20.0242C19.7413 20.1113 20.0184 20.3305 20.0237 20.4817H20.0347C20.0403 20.3305 20.3171 20.1113 20.4092 20.0242C20.7594 19.6918 20.9954 19.3624 20.8811 18.8471C20.7926 18.4486 20.4632 18.165 20.0692 18.165H19.9914H20.0672Z" fill="#D9261C"/>
    <path d="M20.0672 18.165H19.9892C19.5951 18.165 19.2658 18.4486 19.1776 18.8471C19.0632 19.3624 19.299 19.6918 19.6491 20.0242C19.7413 20.1113 20.0184 20.3305 20.0237 20.4817H20.0347C20.0403 20.3305 20.3171 20.1113 20.4092 20.0242C20.7594 19.6918 20.9954 19.3624 20.8811 18.8471C20.7926 18.4486 20.4632 18.165 20.0692 18.165H19.9914" stroke="#1F1917" stroke-width="3.12425" stroke-miterlimit="10" stroke-linejoin="round"/>
    <path d="M19.185 18.846C19.2442 18.578 19.414 18.3648 19.6379 18.2519L19.6682 18.2043C19.6682 18.2043 18.6875 17.4096 17.4609 18.3636C17.5195 18.3369 17.994 18.7465 18.0572 18.7917C18.3822 19.0243 18.7258 19.1186 19.1307 19.0451L19.1633 18.994C19.1683 18.9462 19.1734 18.8975 19.185 18.846Z" fill="#D9261C"/>
    <path d="M19.185 18.846C19.2442 18.578 19.414 18.3648 19.6379 18.2519L19.6682 18.2043C19.6682 18.2043 18.6875 17.4096 17.4609 18.3636C17.5195 18.3369 17.994 18.7465 18.0572 18.7917C18.3822 19.0243 18.7258 19.1186 19.1307 19.0451L19.1633 18.994C19.1683 18.9462 19.1734 18.8975 19.185 18.846Z" stroke="#1F1917" stroke-width="3.12425" stroke-miterlimit="10" stroke-linejoin="round"/>
    <path d="M20.3438 18.1964L20.3559 18.2155C20.6185 18.314 20.8202 18.5479 20.8866 18.8468C20.9023 18.9187 20.9102 18.9865 20.913 19.0519C21.299 19.1109 21.63 19.0167 21.9432 18.7925C22.0061 18.7473 22.4807 18.3376 22.5393 18.3644C21.3127 17.4104 20.3438 18.1964 20.3438 18.1964Z" fill="#D9261C"/>
    <path d="M20.3438 18.1964L20.3559 18.2155C20.6185 18.314 20.8202 18.5479 20.8866 18.8468C20.9023 18.9187 20.9102 18.9865 20.913 19.0519C21.299 19.1109 21.63 19.0167 21.9432 18.7925C22.0061 18.7473 22.4807 18.3376 22.5393 18.3644C21.3127 17.4104 20.3438 18.1964 20.3438 18.1964Z" stroke="#1F1917" stroke-width="3.12425" stroke-miterlimit="10" stroke-linejoin="round"/>
    <path d="M19.9908 12.5725C19.9908 12.5725 17.4694 16.4224 19.684 18.1262H20.2971C22.5118 16.4224 19.9908 12.5725 19.9908 12.5725Z" fill="#D9261C"/>
    <path d="M19.9908 12.5725C19.9908 12.5725 17.4694 16.4224 19.684 18.1262H20.2971C22.5118 16.4224 19.9908 12.5725 19.9908 12.5725Z" stroke="#1F1917" stroke-width="3.12425" stroke-miterlimit="10" stroke-linecap="round" stroke-linejoin="round"/>
    <path d="M19.4306 13.5825L18.3709 12.649C18.4643 12.7313 18.425 13.2747 18.427 13.3981C18.4314 13.6935 18.4148 13.9894 18.3854 14.2836C18.3467 14.6729 18.2637 15.0504 18.2029 15.4357C18.1071 16.0437 18.1801 16.6804 18.5163 17.2075C18.7631 17.5947 19.2245 17.9292 19.6476 18.1055C18.1833 16.9496 18.8446 14.8364 19.4306 13.5825Z" fill="#D9261C"/>
    <path d="M19.4306 13.5825L18.3709 12.649C18.4643 12.7313 18.425 13.2747 18.427 13.3981C18.4314 13.6935 18.4148 13.9894 18.3854 14.2836C18.3467 14.6729 18.2637 15.0504 18.2029 15.4357C18.1071 16.0437 18.1801 16.6804 18.5163 17.2075C18.7631 17.5947 19.2245 17.9292 19.6476 18.1055C18.1833 16.9496 18.8446 14.8364 19.4306 13.5825Z" stroke="#1F1917" stroke-width="3.12425" stroke-miterlimit="10" stroke-linejoin="round"/>
    <path d="M21.7584 15.4372C21.6973 15.0519 21.6143 14.6744 21.5756 14.2851C21.5461 13.991 21.5291 13.6951 21.5341 13.3996C21.5358 13.2763 21.4965 12.7329 21.5898 12.6505L20.5222 13.5913C21.1089 14.8499 21.7677 16.9664 20.2891 18.1179C20.7187 17.9444 21.1932 17.6037 21.4448 17.2091C21.7811 16.682 21.8543 16.0453 21.7584 15.4372Z" fill="#D9261C"/>
    <path d="M21.7584 15.4372C21.6973 15.0519 21.6143 14.6744 21.5756 14.2851C21.5461 13.991 21.5291 13.6951 21.5341 13.3996C21.5358 13.2763 21.4965 12.7329 21.5898 12.6505L20.5222 13.5913C21.1089 14.8499 21.7677 16.9664 20.2891 18.1179C20.7187 17.9444 21.1932 17.6037 21.4448 17.2091C21.7811 16.682 21.8543 16.0453 21.7584 15.4372Z" stroke="#1F1917" stroke-width="3.12425" stroke-miterlimit="10" stroke-linejoin="round"/>
    <path d="M20.4453 18.0484L20.5023 18.0911C20.751 17.9569 21.2609 17.77 21.8982 18.0046L21.9382 17.9918C21.9382 17.9918 22.1574 17.3933 22.5322 17.3933C22.5322 17.3933 22.0348 17.1295 21.3785 17.3068C21.1488 17.6136 20.7938 17.8802 20.4453 18.0484Z" fill="#D9261C"/>
    <path d="M20.4453 18.0484L20.5023 18.0911C20.751 17.9569 21.2609 17.77 21.8982 18.0046L21.9382 17.9918C21.9382 17.9918 22.1574 17.3933 22.5322 17.3933C22.5322 17.3933 22.0348 17.1295 21.3785 17.3068C21.1488 17.6136 20.7938 17.8802 20.4453 18.0484Z" stroke="#1F1917" stroke-width="3.12425" stroke-miterlimit="10" stroke-linejoin="round"/>
    <path d="M19.4695 18.0847L19.5028 18.0695L19.4886 18.0309C19.1521 17.8625 18.8133 17.6043 18.5911 17.308L18.5878 17.3077C17.929 17.1279 17.4297 17.3931 17.4297 17.3931C17.804 17.3931 18.0232 17.9917 18.0232 17.9917L18.07 18.014C18.6982 17.777 19.2072 17.9486 19.4695 18.0847Z" fill="#D9261C"/>
    <path d="M19.4695 18.0847L19.5028 18.0695L19.4886 18.0309C19.1521 17.8625 18.8133 17.6043 18.5911 17.308L18.5878 17.3077C17.929 17.1279 17.4297 17.3931 17.4297 17.3931C17.804 17.3931 18.0232 17.9917 18.0232 17.9917L18.07 18.014C18.6982 17.777 19.2072 17.9486 19.4695 18.0847Z" stroke="#1F1917" stroke-width="3.12425" stroke-miterlimit="10" stroke-linejoin="round"/>
    <path d="M19.4216 13.5964C19.5318 13.3599 19.639 13.1541 19.7296 12.99L19.2939 12.3862L18.9531 13.1358V13.1659L19.4276 13.5838C19.4254 13.5877 19.4237 13.5923 19.4216 13.5964Z" fill="#D9261C"/>
    <path d="M19.4216 13.5964C19.5318 13.3599 19.639 13.1541 19.7296 12.99L19.2939 12.3862L18.9531 13.1358V13.1659L19.4276 13.5838C19.4254 13.5877 19.4237 13.5923 19.4216 13.5964Z" stroke="#1F1917" stroke-width="3.12425" stroke-miterlimit="10"/>
    <path d="M20.5343 13.5901L21.0552 13.1311L20.7164 12.3852L20.2734 12.9986V13.0707C20.3558 13.223 20.4487 13.406 20.5434 13.6101C20.5406 13.6033 20.5371 13.5966 20.5343 13.5901Z" fill="#D9261C"/>
    <path d="M20.5343 13.5901L21.0552 13.1311L20.7164 12.3852L20.2734 12.9986V13.0707C20.3558 13.223 20.4487 13.406 20.5434 13.6101C20.5406 13.6033 20.5371 13.5966 20.5343 13.5901Z" stroke="#1F1917" stroke-width="3.12425" stroke-miterlimit="10"/>
  </g>
</svg>