<svg xmlns="http://www.w3.org/2000/svg" width="40" height="40" viewBox="0 0 40 40" fill="none">
  <g clip-path="url(#clip0_1813_7254)">
    <rect width="40" height="40" rx="20" fill="#132249"/>
    <g style="mix-blend-mode:luminosity">
      <path d="M40 19.9998C40 31.0453 31.0453 40 19.9998 40C8.95428 40 0 31.0453 0 19.9998C0 8.95416 8.95428 -1.52588e-05 19.9998 -1.52588e-05C31.0453 -1.52588e-05 40 8.95416 40 19.9998Z" fill="#781F19"/>
      <path d="M35.4387 20.0007C35.4387 28.525 28.5286 35.4351 20.0044 35.4351C11.4804 35.4351 4.57031 28.525 4.57031 20.0007C4.57031 11.4768 11.4804 4.56656 20.0044 4.56656C28.5286 4.56656 35.4387 11.4768 35.4387 20.0007Z" fill="#C6C6C6"/>
      <path d="M35.4387 20.0007C35.4387 28.525 28.5286 35.4351 20.0044 35.4351C11.4804 35.4351 4.57031 28.525 4.57031 20.0007C4.57031 11.4768 11.4804 4.56656 20.0044 4.56656C28.5286 4.56656 35.4387 11.4768 35.4387 20.0007Z" stroke="white" stroke-miterlimit="10"/>
      <path d="M6.62891 33.2856L8.28857 31.5884L8.67124 31.9628L7.01157 33.6597L6.62891 33.2856Z" fill="white"/>
      <path d="M7.80818 31.1163L5.96285 32.6099L5.56851 32.1221L5.93462 31.1916C6.04045 30.9247 6.18396 30.6318 6.32312 30.3789L6.31867 30.3732C6.09506 30.5951 5.85284 30.805 5.57334 31.031L5.03679 31.4651L4.72656 31.0819L6.5719 29.5888L6.92623 30.0267L6.53346 30.9968C6.42212 31.2683 6.28656 31.582 6.14106 31.8447L6.14967 31.8555C6.38545 31.6426 6.6409 31.4266 6.94184 31.1828L7.49773 30.733L7.80818 31.1163Z" fill="white"/>
      <path d="M5.57265 28.7644C5.55893 28.7197 5.52071 28.6522 5.48921 28.5971C5.24921 28.1705 4.85771 28.025 4.36571 28.3067C3.9221 28.5603 3.85471 28.9315 4.08543 29.3354C4.14338 29.4359 4.19248 29.5012 4.22448 29.5357L5.57265 28.7644ZM4.16021 30.189C4.03137 30.0352 3.88871 29.8209 3.75582 29.5888C3.53015 29.1941 3.44749 28.9009 3.48543 28.6197C3.5221 28.3143 3.70182 28.0334 4.06888 27.8235C4.46304 27.5978 4.81721 27.5858 5.09754 27.6852C5.40182 27.799 5.67815 28.0833 5.90887 28.4869C6.04715 28.7285 6.13154 28.9113 6.18087 29.0335L4.16021 30.189Z" fill="white"/>
      <path d="M2.53906 27.1073L4.72412 26.1799L4.9334 26.6729L2.74807 27.6001L2.53906 27.1073Z" fill="white"/>
      <path d="M3.17199 24.7342L2.73104 25.0186C2.60682 25.0958 2.44632 25.1868 2.3246 25.2597L2.32793 25.2697C2.47199 25.2602 2.65499 25.2465 2.79705 25.2418L3.32082 25.2379L3.17199 24.7342ZM3.72776 25.1984L4.35894 25.1848L4.51627 25.7183L2.03421 25.694L1.83594 25.0219L3.90366 23.6408L4.06699 24.195L3.53455 24.5427L3.72776 25.1984Z" fill="white"/>
      <path d="M3.79907 23.1233L1.44541 23.4302L1.3643 22.8086L2.16319 22.2072C2.39297 22.0351 2.66835 21.8607 2.91968 21.7179L2.91913 21.7108C2.61252 21.7826 2.29602 21.8345 1.93991 21.8811L1.25535 21.9705L1.19141 21.4815L3.54529 21.1749L3.61819 21.7335L2.77585 22.3548C2.53913 22.5278 2.25896 22.7239 1.99774 22.8716L1.99996 22.8855C2.31191 22.8271 2.6428 22.777 3.02702 22.7267L3.73568 22.6345L3.79907 23.1233Z" fill="white"/>
      <path d="M1.17473 18.9351L3.54652 19.034L3.52418 19.5688L1.15234 19.47L1.17473 18.9351Z" fill="white"/>
      <path d="M3.57457 18.353L1.23047 17.9789L1.32935 17.3598L2.26591 17.01C2.53486 16.9104 2.84891 16.8213 3.1303 16.7559L3.13197 16.7488C2.81747 16.7307 2.49919 16.6907 2.14452 16.634L1.46263 16.5251L1.54063 16.0383L3.88452 16.4124L3.79574 16.969L2.8118 17.3253C2.53557 17.4239 2.2113 17.5328 1.91885 17.6001L1.91663 17.614C2.23252 17.6466 2.56402 17.6924 2.94635 17.7535L3.65235 17.8662L3.57457 18.353Z" fill="white"/>
      <path d="M3.54727 15.5773C3.66005 15.4649 3.79782 15.272 3.86632 15.0535C3.94005 14.8182 3.88143 14.6634 3.73027 14.616C3.59232 14.5728 3.47466 14.6541 3.29532 14.8969C3.04305 15.2311 2.75688 15.4147 2.42416 15.3105C2.03749 15.1894 1.8471 14.7717 2.0136 14.2407C2.09455 13.9818 2.20288 13.813 2.30899 13.6985L2.68305 13.9412C2.61199 14.0149 2.49655 14.1596 2.42822 14.3779C2.35861 14.5998 2.42933 14.7399 2.54333 14.7758C2.68805 14.821 2.79088 14.7166 2.99766 14.4568C3.27088 14.103 3.53721 13.9834 3.85988 14.0847C4.23971 14.2035 4.47171 14.5935 4.27705 15.2154C4.19594 15.4741 4.04538 15.7075 3.93483 15.813L3.54727 15.5773Z" fill="white"/>
      <path d="M3.19 12.5297L2.92049 13.1116L2.51172 12.9223L3.278 11.2665L3.68683 11.4558L3.415 12.044L5.15988 12.8516L4.93549 13.3374L3.19 12.5297Z" fill="white"/>
      <path d="M3.92557 10.1594L5.96684 11.3712L5.69362 11.8315L3.65234 10.6197L3.92557 10.1594Z" fill="white"/>
      <path d="M5.06002 9.27862L4.67846 9.79356L4.31641 9.52522L5.40236 8.05939L5.76441 8.32772L5.37891 8.84851L6.92413 9.99323L6.60535 10.4233L5.06002 9.27862Z" fill="white"/>
      <path d="M6.30261 7.04394L7.27083 8.0036C7.56328 8.29355 7.82262 8.32727 8.01351 8.13466C8.21178 7.93466 8.18072 7.68566 7.88061 7.38822L6.91256 6.42866L7.28956 6.0485L8.23494 6.98566C8.75522 7.50128 8.74278 8.00927 8.30628 8.44977C7.88483 8.87499 7.40184 8.88711 6.86639 8.35639L5.92578 7.42444L6.30261 7.04394Z" fill="white"/>
      <path d="M8.71251 5.47124L8.20101 5.85718L7.92969 5.49735L9.38574 4.3988L9.65741 4.75863L9.14007 5.14901L10.2979 6.68412L9.87079 7.00635L8.71251 5.47124Z" fill="white"/>
      <path d="M11.9691 4.46115L11.21 4.89359L11.4891 5.38331L12.3366 4.9002L12.5546 5.28254L11.2418 6.03076L10.0664 3.96854L11.336 3.24476L11.554 3.6271L10.7495 4.08588L10.9938 4.51421L11.7525 4.08177L11.9691 4.46115Z" fill="white"/>
      <path d="M14.7885 3.96459C15.1336 3.85248 15.2257 3.46319 15.0819 3.0213C14.9501 2.61592 14.6462 2.32965 14.2943 2.44398C13.9424 2.55815 13.8562 2.96425 13.9934 3.38603C14.1317 3.8117 14.4436 4.07671 14.7855 3.96571L14.7885 3.96459ZM14.8972 4.37753C14.2304 4.5942 13.6711 4.21687 13.4617 3.57387C13.2419 2.8972 13.5128 2.24997 14.1759 2.0342C14.8692 1.80903 15.4166 2.2051 15.6191 2.82804C15.8609 3.57171 15.5602 4.16193 14.9005 4.37626L14.8972 4.37753Z" fill="white"/>
      <path d="M16.1523 1.53471L17.5797 1.29376L17.653 1.72794L16.7531 1.87977L16.8437 2.41455L17.6843 2.27249L17.7567 2.70321L16.9162 2.8451L17.0753 3.78638L16.5475 3.87549L16.1523 1.53471Z" fill="white"/>
      <path d="M20.0156 1.60512L19.375 1.59473L19.3821 1.14385L21.2063 1.17345L21.1989 1.62418L20.5509 1.61378L20.5197 3.53662L19.9846 3.52795L20.0156 1.60512Z" fill="white"/>
      <path d="M23.2051 2.8051L22.3406 2.68088L22.2604 3.23866L23.2261 3.37727L23.1636 3.81299L21.668 3.59832L22.0051 1.24871L23.4522 1.45643L23.3893 1.89205L22.4727 1.76054L22.4026 2.2486L23.267 2.37265L23.2051 2.8051Z" fill="white"/>
      <path d="M25.4157 4.3458C25.3119 4.36392 25.0798 4.35636 24.8053 4.27858C24.0157 4.05436 23.7499 3.44425 23.9356 2.79042C24.157 2.01119 24.8349 1.73858 25.5258 1.93481C25.7933 2.01086 25.9815 2.12297 26.0593 2.19636L25.8352 2.57213C25.7462 2.49919 25.6121 2.4172 25.4258 2.36409C25.0195 2.2487 24.6307 2.40552 24.4852 2.91718C24.3552 3.37463 24.5445 3.73952 25.002 3.86947C25.1614 3.91463 25.3396 3.9323 25.4569 3.91813L25.4157 4.3458Z" fill="white"/>
      <path d="M27.4101 2.66572L27.0299 3.49861L27.8342 3.86572L28.2143 3.03266L28.7016 3.25483L27.7161 5.41455L27.2291 5.192L27.6397 4.29172L26.8354 3.92495L26.4249 4.82522L25.9375 4.60316L26.9232 2.44333L27.4101 2.66572Z" fill="white"/>
      <path d="M28.3203 5.74657L29.6383 3.77196L30.1595 4.11996L30.0869 5.1173C30.065 5.40341 30.0151 5.7258 29.9571 6.00924L29.9633 6.01312C30.111 5.7349 30.28 5.46246 30.4794 5.16351L30.8626 4.58935L31.273 4.86307L29.9548 6.8374L29.4864 6.52479L29.5729 5.48151C29.5985 5.18951 29.6348 4.84951 29.6953 4.55568L29.6838 4.5478C29.5225 4.82118 29.3425 5.10341 29.1274 5.42557L28.7307 6.02023L28.3203 5.74657Z" fill="white"/>
      <path d="M31.5025 7.67782C31.7677 7.9252 32.1524 7.81731 32.4701 7.47765C32.7608 7.16615 32.8638 6.76126 32.5935 6.50881C32.3236 6.25654 31.9263 6.37731 31.6236 6.70175C31.318 7.02864 31.237 7.43009 31.4997 7.67526L31.5025 7.67782ZM31.1935 7.97231C30.6813 7.49403 30.7401 6.82175 31.202 6.32742C31.6876 5.80742 32.3849 5.73104 32.895 6.20693C33.4276 6.70459 33.346 7.37526 32.8989 7.85404C32.3655 8.42554 31.7036 8.4482 31.196 7.97481L31.1935 7.97231Z" fill="white"/>
      <path d="M34.2926 7.6923L34.6276 8.10997L33.128 9.31375L33.719 10.0498L33.3677 10.332L32.4414 9.17864L34.2926 7.6923Z" fill="white"/>
      <path d="M34.4661 11.3367C34.6527 11.6477 35.0524 11.6499 35.4513 11.4105C35.8163 11.1912 36.0272 10.8305 35.837 10.5137C35.6464 10.1965 35.2313 10.2034 34.851 10.4318C34.4675 10.662 34.2793 11.0257 34.4642 11.3335L34.4661 11.3367ZM34.0877 11.5349C33.7272 10.934 33.9691 10.3039 34.5486 9.95588C35.1588 9.58972 35.8503 9.70849 36.2094 10.3063C36.5848 10.9313 36.3215 11.5535 35.76 11.8907C35.0896 12.2932 34.4469 12.1327 34.0898 11.5379L34.0877 11.5349Z" fill="white"/>
      <path d="M35.7979 14.8286C35.6844 14.6956 35.497 14.4329 35.3809 14.1414C35.2211 13.7389 35.2069 13.4072 35.3196 13.1277C35.4339 12.8512 35.6773 12.6255 36.0012 12.4968C36.7359 12.2093 37.3669 12.5763 37.6541 13.2997C37.7671 13.5846 37.7986 13.8259 37.7921 13.9533L37.3482 14.0086C37.3556 13.8655 37.3364 13.7025 37.2403 13.4603C37.0752 13.0446 36.7137 12.8204 36.2354 13.0102C35.7775 13.1923 35.6264 13.5855 35.789 13.9948C35.833 14.1061 35.8825 14.1924 35.9143 14.2252L36.3796 14.0406L36.2443 13.7003L36.6337 13.5456L36.96 14.3674L35.7979 14.8286Z" fill="white"/>
      <path d="M35.9886 16.0138L36.9358 15.7955L38.1333 14.7497L38.2717 15.3503L37.7695 15.7117C37.6178 15.8225 37.5065 15.9024 37.3681 15.9922L37.3692 15.9993C37.5253 16.0174 37.6716 16.0414 37.8524 16.0722L38.4622 16.1774L38.5971 16.7642L37.073 16.3131L36.1086 16.5353L35.9886 16.0138Z" fill="white"/>
      <path d="M37.3872 20.6753C37.6721 20.6602 38.0135 20.6438 38.362 20.6385V20.6311C38.0579 20.5586 37.7182 20.4657 37.4385 20.3786L36.5076 20.1048L36.5009 19.6857L37.4122 19.4174C37.6932 19.3353 38.0261 19.2523 38.3385 19.1874V19.1804C38.0178 19.1748 37.6514 19.167 37.3552 19.1577L36.4533 19.1265L36.4453 18.6298L38.821 18.7429L38.8325 19.4578L38.0404 19.7031C37.7705 19.7849 37.4759 19.8604 37.1987 19.9177V19.9314C37.4744 19.9906 37.7856 20.0665 38.0546 20.1432L38.8475 20.3805L38.8589 21.0846L36.4874 21.25L36.4793 20.7286L37.3872 20.6753Z" fill="white"/>
      <path d="M37.1925 23.1777L37.7141 23.1166C37.8591 23.1018 38.0434 23.0903 38.1846 23.0785L38.1863 23.0679C38.0527 23.0133 37.8825 22.9448 37.7531 22.8873L37.2805 22.6604L37.1925 23.1777ZM36.8977 22.5168L36.325 22.2514L36.4182 21.7028L38.6369 22.8164L38.5193 23.507L36.0547 23.8379L36.1517 23.2686L36.7831 23.1902L36.8977 22.5168Z" fill="white"/>
      <path d="M36.1313 24.9917C36.1065 25.0314 36.0814 25.1049 36.0611 25.1648C35.9006 25.6275 36.0509 26.0171 36.5882 26.1992C37.0716 26.3631 37.3946 26.1677 37.5437 25.7275C37.5812 25.6176 37.5976 25.5373 37.6018 25.4905L36.1313 24.9917ZM38.1341 25.1058C38.1044 25.3037 38.0384 25.5528 37.9524 25.8064C37.8063 26.2368 37.6411 26.493 37.4052 26.6509C37.1527 26.8259 36.8227 26.8774 36.4224 26.7418C35.9922 26.5957 35.7488 26.3382 35.6373 26.0626C35.5214 25.759 35.5512 25.3636 35.7005 24.9236C35.7899 24.6599 35.8709 24.4754 35.9294 24.3579L38.1341 25.1058Z" fill="white"/>
      <path d="M35.9326 27.9348L35.835 28.1225C35.712 28.36 35.7576 28.5624 35.9421 28.6581C36.1327 28.7569 36.3011 28.6778 36.4146 28.4588C36.4745 28.343 36.5022 28.2742 36.5107 28.2348L35.9326 27.9348ZM37.0806 27.932C37.0296 28.0994 36.9313 28.3344 36.7986 28.5906C36.6363 28.9037 36.4757 29.0977 36.2762 29.1848C36.1095 29.2607 35.9269 29.2535 35.7332 29.1528C35.4672 29.0152 35.3819 28.7286 35.4102 28.5133L35.401 28.5083C35.2654 28.6242 35.0853 28.6343 34.864 28.5866C34.5891 28.5274 34.2819 28.4474 34.1797 28.4458L34.4323 27.9581C34.508 27.9576 34.7076 27.9938 34.9981 28.0691C35.2945 28.1476 35.4102 28.0923 35.5154 27.8973L35.5887 27.7565L34.7603 27.3266L35.0052 26.8543L37.0806 27.932Z" fill="white"/>
      <path d="M34.0273 30.4288L34.5219 30.6044C34.6585 30.6556 34.8288 30.7268 34.9608 30.7786L34.967 30.7701C34.8714 30.6619 34.7492 30.5252 34.6583 30.4164L34.3348 30.0039L34.0273 30.4288ZM34.0552 29.7054L33.6588 29.2142L33.9854 28.7635L35.4824 30.7436L35.0714 31.311L32.7148 30.5176L33.0536 30.0501L33.6545 30.2588L34.0552 29.7054Z" fill="white"/>
      <path d="M32.7489 31.3034C32.5976 31.3535 32.3877 31.4647 32.2291 31.6295C32.0581 31.807 32.0413 31.9718 32.1555 32.0817C32.2592 32.1818 32.401 32.1617 32.6699 32.025C33.0451 31.8382 33.3829 31.8023 33.6342 32.0442C33.9259 32.3252 33.9096 32.7837 33.5235 33.1847C33.3355 33.3795 33.1629 33.4825 33.0172 33.5376L32.7907 33.1537C32.8872 33.1193 33.055 33.0414 33.2137 32.8765C33.3751 32.7088 33.3748 32.5521 33.2885 32.4691C33.1792 32.3639 33.0408 32.4113 32.7395 32.5514C32.3372 32.7459 32.0454 32.7337 31.8019 32.4992C31.5155 32.2231 31.4821 31.7704 31.9342 31.3009C32.1221 31.1059 32.3613 30.9645 32.5074 30.9193L32.7489 31.3034Z" fill="white"/>
      <path d="M31.1708 34.1369C31.1708 34.3306 31.0136 34.4878 30.8197 34.4878C30.6256 34.4878 30.4688 34.3306 30.4688 34.1369C30.4688 33.9431 30.6256 33.7857 30.8197 33.7857C31.0136 33.7857 31.1708 33.9431 31.1708 34.1369Z" fill="white"/>
      <path d="M9.53018 34.1371C9.53018 34.3308 9.37285 34.4878 9.17918 34.4878C8.98518 34.4878 8.82812 34.3308 8.82812 34.1371C8.82812 33.9432 8.98518 33.7857 9.17918 33.7857C9.37285 33.7857 9.53018 33.9432 9.53018 34.1371Z" fill="white"/>
      <path d="M11.6016 29.4499L17.2077 30.4507L16.6069 31.1513L22.1131 31.6313L21.5617 32.0819L26.9946 32.3203L19.8104 33.0327L20.7113 32.2321L15.0053 31.6519L15.9562 30.9513L11.6016 29.4499Z" fill="white"/>
      <path d="M10.9555 34.3239L11.4487 34.6131C11.4504 34.519 11.4625 34.4286 11.485 34.342C11.5077 34.2557 11.5411 34.1748 11.5851 34.0994C11.654 33.9812 11.7593 33.9086 11.9009 33.8809C12.0425 33.8531 12.179 33.8776 12.3113 33.9551C12.4738 34.0504 12.6081 34.2219 12.7146 34.4699C12.8211 34.7173 12.8878 35.0124 12.9147 35.3545L12.8135 35.3661C12.7921 35.1161 12.73 34.8937 12.627 34.6987C12.5242 34.5037 12.3904 34.358 12.2253 34.2612C12.1332 34.2074 12.0302 34.2025 11.9159 34.2458C11.8011 34.2893 11.7096 34.3705 11.6404 34.4879C11.5908 34.5726 11.5621 34.6348 11.5541 34.6752L11.7483 34.7888L11.784 35.0931L11.5185 34.9375L10.6077 36.4897L10.4297 36.1488L11.2376 34.7723L10.9887 34.6265L10.9555 34.3239Z" fill="white"/>
      <path d="M12.2355 35.6131C12.2116 35.7097 12.1738 35.8107 12.1226 35.9167C12.156 35.9907 12.1949 36.0542 12.2385 36.1075C12.2821 36.1602 12.3297 36.1992 12.3807 36.2241C12.4347 36.2503 12.4935 36.2626 12.5573 36.2616C12.6209 36.2605 12.6839 36.246 12.7456 36.2186L12.9962 35.702L12.262 35.3456C12.2679 35.4279 12.2592 35.5169 12.2355 35.6131ZM12.3004 37.138L12.5849 36.5498C12.5645 36.5548 12.5355 36.5526 12.4983 36.5418C12.4615 36.5314 12.4169 36.5139 12.3656 36.4889C12.2877 36.4507 12.2196 36.39 12.162 36.3063C12.1045 36.2224 12.0612 36.1235 12.032 36.0095C11.9632 36.076 11.8886 36.1259 11.8084 36.1599C11.7279 36.1937 11.6503 36.206 11.5757 36.1969C11.6258 36.4813 11.7362 36.7695 11.9073 37.061L11.7077 37.1459C11.4158 36.3082 11.3117 35.8041 11.3949 35.6324C11.4173 35.5854 11.4492 35.5528 11.4905 35.5335C11.5317 35.5141 11.5696 35.5126 11.604 35.5296C11.6431 35.5488 11.6736 35.5809 11.6945 35.6278C11.7162 35.6745 11.7264 35.7297 11.726 35.793C11.7957 35.7932 11.8598 35.7747 11.9187 35.7382C11.9775 35.7013 12.0223 35.651 12.0538 35.587C12.0811 35.5305 12.0998 35.4757 12.1102 35.4231C12.1209 35.3702 12.1221 35.3209 12.114 35.2743L11.5679 35.01L11.5088 34.7091L13.5071 35.6773L13.5662 35.9782L13.2899 35.8441L12.5049 37.4644L12.3004 37.138Z" fill="white"/>
      <path d="M13.3029 35.5693L13.8396 35.7789C13.8259 35.6861 13.8231 35.5951 13.8311 35.5064C13.8394 35.4181 13.8588 35.3332 13.8904 35.2521C13.9399 35.126 14.032 35.0376 14.1668 34.9881C14.3018 34.939 14.4407 34.9419 14.5829 34.9976C14.7587 35.0661 14.9183 35.2137 15.0624 35.4403C15.2068 35.6672 15.3196 35.9464 15.4006 36.2787L15.3024 36.3061C15.2418 36.0636 15.1457 35.8546 15.0138 35.679C14.8816 35.5036 14.727 35.3814 14.5492 35.312C14.4501 35.2734 14.3478 35.2844 14.2421 35.3456C14.1363 35.4062 14.0589 35.5 14.0098 35.6263C13.9741 35.7175 13.9558 35.7834 13.9539 35.8236L14.1619 35.9045L14.244 36.2017L13.9577 36.0901L13.3031 37.7671L13.0742 37.4581L13.6542 35.9718L13.3842 35.8663L13.3029 35.5693Z" fill="white"/>
      <path d="M14.3696 37.9826C14.3914 38.0193 14.4243 38.0442 14.4682 38.0576C14.5571 38.0839 14.6514 38.0796 14.7512 38.0443C14.8509 38.0094 14.94 37.9482 15.0175 37.8606C14.8373 37.8066 14.7194 37.7501 14.6632 37.6905C14.588 37.6877 14.5214 37.7034 14.4644 37.7373C14.4077 37.7714 14.3709 37.8167 14.3533 37.8735C14.3425 37.9101 14.3476 37.9467 14.3696 37.9826ZM16.0626 36.5091L16.1676 36.7984L15.8159 36.6927L15.652 37.239L14.8892 37.0101C14.8293 36.9921 14.7718 36.9996 14.7162 37.0327C14.6607 37.0658 14.6233 37.1152 14.6037 37.1803C14.5825 37.2508 14.5952 37.3201 14.6413 37.3883C14.6876 37.4565 14.754 37.5033 14.84 37.5291L15.0803 37.5799C15.077 37.5617 15.0753 37.5442 15.0748 37.5269C15.0742 37.5099 15.0759 37.4948 15.0798 37.482C15.0949 37.4318 15.1311 37.3963 15.1889 37.3741C15.2473 37.351 15.3098 37.3501 15.3779 37.3702C15.4483 37.3917 15.5 37.4361 15.5336 37.5047C15.567 37.5734 15.5727 37.6452 15.5497 37.7209C15.5349 37.7707 15.503 37.8119 15.4553 37.8444C15.4065 37.8772 15.3495 37.8948 15.2828 37.8976L15.5913 38.5012L15.4002 38.5718L15.238 38.1183C15.1404 38.197 15.0341 38.2483 14.9194 38.2738C14.8047 38.2992 14.6966 38.2961 14.5944 38.2658C14.4695 38.228 14.3564 38.1485 14.2557 38.0276C14.1544 37.9064 14.1158 37.8057 14.1401 37.7247C14.1487 37.6961 14.1604 37.6699 14.1747 37.6457C14.1889 37.6216 14.206 37.5998 14.2254 37.5797C14.0955 37.5296 13.9964 37.4549 13.9279 37.3559C13.8596 37.257 13.8394 37.1604 13.8681 37.0663C13.878 37.0324 13.9047 36.9938 13.9472 36.9512C13.99 36.9085 14.0451 36.8642 14.113 36.8192L14.3169 37.1367C14.2706 37.1573 14.2323 37.1798 14.2018 37.2047C14.1714 37.2299 14.1528 37.2542 14.1456 37.2779C14.1347 37.3142 14.1445 37.3521 14.1741 37.3904C14.2032 37.4296 14.2457 37.4572 14.3009 37.4738L14.4944 37.4039C14.4467 37.3326 14.4168 37.2556 14.404 37.1737C14.3913 37.0913 14.3964 37.0112 14.4199 36.9326C14.4476 36.8412 14.5151 36.7757 14.6219 36.7367C14.7294 36.6976 14.8456 36.6968 14.9708 36.7344L15.4212 36.8698L15.5029 36.5982L14.0257 36.1546L13.9207 35.8651L16.0626 36.5091Z" fill="white"/>
      <path d="M16.2327 36.9295C16.2809 36.9897 16.3472 37.0316 16.4315 37.0549L16.4932 36.7128C16.5 36.6755 16.4977 36.6408 16.487 36.6098C16.4762 36.5789 16.4601 36.5615 16.4385 36.5576C16.3774 36.5462 16.3214 36.5587 16.271 36.5938C16.2206 36.6291 16.1894 36.6774 16.1783 36.7388C16.1661 36.806 16.1844 36.8697 16.2327 36.9295ZM16.8781 36.6568L17.8625 36.8357L17.9992 37.1113L17.6979 37.0564L17.3768 38.8267L17.0907 38.5667L17.186 38.0431L16.6042 37.9372L16.5679 38.1388C16.5595 38.1843 16.5403 38.2201 16.511 38.2465C16.4811 38.2733 16.4505 38.2832 16.4179 38.2775C16.3217 38.2602 16.2253 38.176 16.1296 38.026C16.0337 37.875 15.9951 37.7479 16.0141 37.6434C16.0191 37.6166 16.037 37.5958 16.0688 37.5808C16.1006 37.5661 16.1349 37.5618 16.1726 37.5684L16.3327 37.598L16.402 37.2161C16.2498 37.1437 16.1329 37.0464 16.0519 36.9238C15.971 36.8008 15.9417 36.678 15.9645 36.5545C15.9781 36.4768 16.022 36.4161 16.0945 36.3723C16.1675 36.3287 16.2483 36.3149 16.3364 36.3309C16.457 36.3525 16.5656 36.4396 16.6622 36.5917C16.7587 36.7435 16.7955 36.8838 16.7723 37.0127L16.6553 37.6561L17.2366 37.7617L17.3753 36.9982L16.9946 36.9289L16.8781 36.6568Z" fill="white"/>
      <path d="M17.3771 35.8317C17.4618 35.7693 17.5568 35.7445 17.662 35.7577C17.7701 35.7714 17.8663 35.8126 17.9507 35.8821C18.0354 35.9517 18.0945 36.0397 18.1277 36.1451L18.0597 36.1985C18.0272 36.1476 17.9896 36.1075 17.9469 36.0769C17.9042 36.0468 17.8598 36.029 17.814 36.0233C17.7201 36.0116 17.6349 36.0355 17.5592 36.0947C17.4833 36.1545 17.4395 36.2314 17.4277 36.326C17.4212 36.3775 17.4299 36.4354 17.4533 36.499C17.4768 36.5622 17.5149 36.6277 17.5663 36.6944L17.4773 36.7495C17.3853 36.6505 17.3177 36.5411 17.2752 36.423C17.232 36.3052 17.2177 36.189 17.2318 36.0755C17.2442 35.9752 17.2927 35.8942 17.3771 35.8317Z" fill="white"/>
      <path d="M18.1515 38.1851C18.1999 38.2321 18.2607 38.2583 18.3345 38.2638C18.4347 38.2717 18.5432 38.2551 18.6595 38.2144C18.7762 38.1739 18.8918 38.1119 19.0073 38.0274C18.943 37.9385 18.8717 37.8673 18.7937 37.8151C18.7156 37.7629 18.6373 37.7339 18.5584 37.7279C18.4335 37.7189 18.3254 37.7429 18.2337 37.8C18.1418 37.8574 18.0926 37.9309 18.086 38.0204C18.0815 38.0829 18.1033 38.1375 18.1515 38.1851ZM19.5383 36.9594L19.7032 37.2189L19.3972 37.1963L19.2633 38.9917L18.9526 38.763L18.9833 38.3536C18.8994 38.4131 18.814 38.4578 18.7271 38.487C18.6403 38.5163 18.5575 38.5279 18.4786 38.5219C18.3267 38.5109 18.1784 38.4287 18.0342 38.2759C17.8895 38.1225 17.8227 37.977 17.8331 37.8381C17.8416 37.7213 17.8988 37.6243 18.0038 37.5476C18.1096 37.4703 18.2331 37.4374 18.3743 37.4478C18.4995 37.457 18.6192 37.5004 18.7335 37.5772C18.8479 37.654 18.9427 37.7566 19.0181 37.8853L19.0712 37.1719L17.7629 37.0744L17.5977 36.8151L19.5383 36.9594Z" fill="white"/>
      <path d="M19.3359 36.9407L19.9112 36.95C19.8657 36.8676 19.8315 36.7831 19.8082 36.6973C19.7851 36.6113 19.7742 36.5245 19.7756 36.4374C19.7778 36.3012 19.8334 36.1867 19.9429 36.093C20.052 35.9999 20.1833 35.9543 20.3359 35.9566C20.5248 35.9599 20.7256 36.0423 20.9403 36.2048C21.1543 36.3678 21.3573 36.5909 21.5495 36.8744L21.4667 36.9342C21.3254 36.7282 21.1619 36.5656 20.9773 36.4469C20.792 36.3283 20.6048 36.2676 20.4133 36.2641C20.3068 36.263 20.215 36.3089 20.1367 36.4026C20.0588 36.4971 20.0186 36.6116 20.0164 36.7476C20.0147 36.8456 20.0203 36.9138 20.0336 36.9519L20.2575 36.9558L20.4378 37.2049L20.1307 37.1994L20.1014 38.9985L19.7789 38.7885L19.8049 37.1943L19.5152 37.1899L19.3359 36.9407Z" fill="white"/>
      <path d="M21.9375 36.8597L22.1376 37.0935L21.8318 37.1142L21.9517 38.9097L21.612 38.7269L21.5523 37.829L20.9193 37.8712C20.8618 37.8751 20.8156 37.9042 20.7794 37.9584C20.7436 38.0131 20.7276 38.0767 20.7329 38.1501C20.74 38.2617 20.7836 38.3761 20.8624 38.4921C20.9411 38.6084 21.0496 38.717 21.1873 38.817L21.0715 38.9272C20.8689 38.7496 20.7103 38.5811 20.5967 38.4222C20.4838 38.2627 20.423 38.1246 20.4151 38.0079C20.4079 37.8907 20.437 37.7879 20.5036 37.6986C20.5699 37.6095 20.6537 37.5616 20.7542 37.555L21.5309 37.5031L21.5061 37.1357L20.2193 37.2214L20.0195 36.9879L21.9375 36.8597Z" fill="white"/>
      <path d="M23.2038 37.9016C23.2501 37.9324 23.3016 37.942 23.3579 37.9305C23.4408 37.9137 23.519 37.8745 23.594 37.8115C23.6686 37.749 23.7324 37.6693 23.785 37.5723C23.7378 37.5181 23.6835 37.4787 23.6211 37.4542C23.5594 37.4293 23.5005 37.4225 23.4443 37.4342C23.34 37.4551 23.2558 37.4984 23.1916 37.5647C23.1271 37.6305 23.1022 37.699 23.1167 37.771C23.128 37.8272 23.157 37.8705 23.2038 37.9016ZM24.6816 36.3469L24.9109 36.5501L23.9498 36.7458L24.0597 37.2874C24.0882 37.2338 24.1258 37.1894 24.1734 37.1542C24.2205 37.1192 24.2737 37.0954 24.3326 37.0836C24.4425 37.0612 24.5704 37.1193 24.7164 37.2582C24.862 37.397 24.9509 37.5455 24.9826 37.7033C24.9975 37.7756 24.9976 37.8562 24.9832 37.9453C24.9695 38.0348 24.9418 38.1269 24.8993 38.2217L24.5885 38.0342C24.651 37.9406 24.694 37.8502 24.7195 37.7616C24.7451 37.6731 24.7508 37.594 24.7366 37.5244C24.7227 37.4578 24.6898 37.4055 24.6372 37.3671C24.5849 37.3293 24.5274 37.3167 24.4657 37.329C24.4093 37.3406 24.3518 37.3742 24.2933 37.4293C24.2348 37.4841 24.1816 37.5567 24.1328 37.6477L24.308 38.5093L23.9476 38.3733L23.8581 37.9326C23.8219 37.9872 23.7764 38.0324 23.7225 38.0685C23.6685 38.1044 23.6101 38.1288 23.5459 38.142C23.4255 38.1666 23.2909 38.1217 23.1425 38.0069C22.994 37.8924 22.9061 37.7672 22.8783 37.631C22.8594 37.5375 22.8828 37.4494 22.9474 37.3664C23.0133 37.2836 23.1 37.2313 23.2101 37.2088C23.2956 37.1913 23.3859 37.2008 23.4805 37.2371C23.5761 37.2738 23.6661 37.3323 23.7523 37.4127L23.6295 36.8108L22.6238 37.0156L22.3945 36.8123L24.6816 36.3469Z" fill="white"/>
      <path d="M24.5703 38.4419L24.5736 38.4414L24.5753 38.4452L24.5714 38.4458L24.5703 38.4419Z" fill="white"/>
      <path d="M25.558 37.0933L26.1403 36.8942L25.8884 36.1594L25.3064 36.3586L25.558 37.0933ZM26.2335 35.7808L26.4873 35.9545L26.1979 36.0534L26.7807 37.7562L26.4045 37.6687L26.2459 37.204L25.6642 37.4031L25.7302 37.5967C25.7454 37.6403 25.7465 37.681 25.733 37.7191C25.7202 37.7567 25.6978 37.7806 25.6674 37.7912C25.569 37.825 25.4383 37.7974 25.2757 37.7091C25.1125 37.6206 25.0136 37.5249 24.9782 37.4216C24.9678 37.3908 24.9717 37.3589 24.9912 37.3265C25.0102 37.2939 25.038 37.2714 25.074 37.2591L25.2479 37.1995L24.9966 36.4646L24.5902 36.604L24.3359 36.4302L26.2335 35.7808Z" fill="white"/>
      <path d="M25.3284 35.1405C25.3725 35.0454 25.4437 34.9777 25.5428 34.938C25.6436 34.8976 25.7486 34.8868 25.8566 34.9067C25.964 34.9263 26.0582 34.9744 26.1385 35.0503L26.1045 35.1303C26.0519 35.1015 25.9994 35.084 25.9475 35.0788C25.8949 35.0731 25.8468 35.079 25.8042 35.0965C25.7152 35.132 25.6521 35.1942 25.6139 35.2829C25.5762 35.3722 25.5747 35.4607 25.6101 35.5493C25.6301 35.5976 25.665 35.6439 25.7167 35.6878C25.768 35.7317 25.8331 35.7706 25.9113 35.8037L25.8595 35.895C25.731 35.8525 25.6197 35.79 25.5246 35.7076C25.4305 35.6248 25.3617 35.531 25.3186 35.4245C25.2816 35.3308 25.2847 35.2363 25.3284 35.1405Z" fill="white"/>
      <path d="M28.0645 34.9351L28.3347 35.0769L28.0588 35.2073L28.8273 36.8335L28.4432 36.79L28.0758 36.0117L27.5573 36.2569C27.6718 36.2879 27.7717 36.3341 27.8572 36.3968C27.9424 36.4594 28.0052 36.5328 28.0451 36.6164C28.0879 36.7076 28.0905 36.8019 28.0522 36.9006C28.0133 36.9979 27.9463 37.0698 27.8501 37.1155C27.6895 37.1913 27.4892 37.1716 27.2495 37.0571C27.0095 36.9423 26.7802 36.7566 26.5629 36.5001L26.656 36.4106C26.8101 36.5917 26.9739 36.7218 27.1457 36.8012C27.3177 36.8801 27.463 36.8919 27.5818 36.8358C27.6333 36.8111 27.6681 36.7708 27.6851 36.7141C27.7024 36.6574 27.6972 36.6008 27.6705 36.5438C27.6293 36.4576 27.5477 36.3812 27.4241 36.3149C27.3007 36.2491 27.1506 36.201 26.9728 36.1695L27.9353 35.7146L27.7618 35.3473L26.2473 36.0631L25.9766 35.9212L28.0645 34.9351Z" fill="white"/>
      <path d="M28.6537 34.5706L28.9367 34.6927L28.6716 34.8456L29.5706 36.4048L29.184 36.3913L28.3873 35.0095L28.1348 35.1547L27.8516 35.033L28.6537 34.5706Z" fill="white"/>
      <path d="M9.04297 22.412C9.04297 22.93 10.2497 23.1937 10.5651 23.2744C11.9143 23.6199 13.3196 23.786 14.7061 23.8821C15.991 23.9715 17.5541 23.7621 18.7877 23.44C18.063 22.4749 17.3619 21.506 16.8593 20.4092C12.2819 20.7107 9.04297 21.6309 9.04297 22.412ZM23.1466 20.399C22.644 21.4958 21.943 22.4647 21.2182 23.4298C22.4517 23.7519 24.0149 23.9613 25.2998 23.8719C26.6862 23.7758 28.0917 23.6096 29.4408 23.2643C29.7562 23.1835 30.963 22.9197 30.963 22.4018C30.963 21.6209 27.724 20.7007 23.1466 20.399Z" fill="white"/>
      <path d="M9 21.8726C9 22.6117 10.2111 22.9881 10.5277 23.1032C11.8818 23.5963 13.2923 23.8333 14.6838 23.9704C15.9734 24.098 17.5422 23.7992 18.7803 23.3396C18.0529 21.9623 17.3492 20.5798 16.8449 19.0146C12.2507 19.4449 9 20.758 9 21.8726ZM23.1551 19C22.6507 20.5652 21.9471 21.9479 21.2197 23.325C22.4577 23.7846 24.0266 24.0834 25.3162 23.9558C26.7077 23.8187 28.1183 23.5816 29.4722 23.0888C29.7888 22.9736 31 22.5971 31 21.858C31 20.7436 27.7492 19.4306 23.1551 19Z" stroke="#1F1917" stroke-width="3.12425" stroke-miterlimit="10"/>
      <path d="M18.7934 23.4345C18.0737 22.4749 17.3776 21.4929 16.8777 20.4002C16.8395 20.316 16.7995 20.2328 16.7636 20.1474C16.5121 19.5498 16.3103 18.9381 16.1933 18.3458C15.6661 15.6841 16.5062 12.983 17.9785 10.7711C18.8385 9.47854 19.7549 8.16266 19.989 6.59166H20.0394C20.2734 8.16266 21.1897 9.47854 22.0496 10.7711C23.5217 12.983 24.3622 15.6841 23.8352 18.3458C23.7176 18.9381 23.516 19.5498 23.2645 20.1474C23.2286 20.2323 23.1888 20.3149 23.1507 20.3984C22.6481 21.4953 21.9471 22.4642 21.2223 23.4293C20.7697 23.3113 20.3601 23.1783 20.0271 23.0387C19.6932 23.1785 19.283 23.3115 18.8296 23.4298C18.8296 23.4298 18.7971 23.4379 18.7934 23.4345Z" fill="white"/>
      <path d="M18.7934 23.4345C18.0737 22.4749 17.3776 21.4929 16.8777 20.4002C16.8395 20.316 16.7995 20.2328 16.7636 20.1474C16.5121 19.5498 16.3103 18.9381 16.1933 18.3458C15.6661 15.6841 16.5062 12.983 17.9785 10.7711C18.8385 9.47854 19.7549 8.16266 19.989 6.59166H20.0394C20.2734 8.16266 21.1897 9.47854 22.0496 10.7711C23.5217 12.983 24.3622 15.6841 23.8352 18.3458C23.7176 18.9381 23.516 19.5498 23.2645 20.1474C23.2286 20.2323 23.1888 20.3149 23.1507 20.3984C22.6481 21.4953 21.9471 22.4642 21.2223 23.4293C20.7697 23.3113 20.3601 23.1783 20.0271 23.0387C19.6932 23.1785 19.283 23.3115 18.8296 23.4298C18.8296 23.4298 18.7971 23.4379 18.7934 23.4345Z" stroke="#1F1917" stroke-width="3.12425" stroke-miterlimit="10"/>
      <path d="M18.7879 23.441C17.5544 23.763 15.9912 23.9725 14.7063 23.883C13.3199 23.787 11.9146 23.6209 10.5654 23.2753C10.2799 23.2024 9.26494 22.9794 9.07439 22.5539C10.1212 26.3924 14.6167 29.2788 20.0059 29.2788C25.3942 29.2788 29.8904 26.3926 30.9366 22.5543H30.9267C30.7242 22.9728 29.724 23.1928 29.441 23.2653C28.092 23.6106 26.6865 23.7767 25.3001 23.8728C24.0152 23.9622 22.452 23.7528 21.2184 23.4307C20.7659 23.3128 20.3563 23.1797 20.0232 23.0402C19.6893 23.18 19.2791 23.313 18.8257 23.4312C18.8257 23.4312 18.7933 23.4391 18.7895 23.4357L18.7879 23.441Z" fill="#781F19"/>
      <path d="M18.5527 23.7914C17.3396 24.0788 15.8024 24.2656 14.5388 24.1858C13.1753 24.1001 11.7933 23.9519 10.4665 23.6436C10.1857 23.5786 9.18756 23.3796 9.00017 23C10.0296 26.4247 14.4506 29 19.7505 29C25.0495 29 29.4712 26.4249 30.5 23.0003H30.4903C30.2911 23.3737 29.3075 23.57 29.0292 23.6347C27.7026 23.9428 26.3204 24.091 24.9569 24.1767C23.6933 24.2565 22.1561 24.0697 20.943 23.7823C20.4979 23.6771 20.0951 23.5584 19.7675 23.4339C19.4392 23.5586 19.0358 23.6772 18.5899 23.7828C18.5899 23.7828 18.558 23.7897 18.5543 23.7867" stroke="#1F1917" stroke-width="3.12425" stroke-miterlimit="10"/>
      <path d="M20.2009 20.218C20.1148 20.3056 20.0378 20.4029 20.0349 20.4819H20.0239C20.0211 20.3987 19.9353 20.2952 19.8438 20.204V23.0698H19.9474C19.9718 23.0599 19.9968 23.0502 20.0205 23.0402C20.0441 23.0502 20.0691 23.0599 20.0934 23.0698H20.2009V20.218Z" fill="#BDA345"/>
      <path d="M20.2009 20.218C20.1148 20.3056 20.0378 20.4029 20.0349 20.4819H20.0239C20.0211 20.3987 19.9353 20.2952 19.8438 20.204V23.0698H19.9474C19.9718 23.0599 19.9968 23.0502 20.0205 23.0402C20.0441 23.0502 20.0691 23.0599 20.0934 23.0698H20.2009V20.218Z" stroke="#1F1917" stroke-width="3.12425" stroke-miterlimit="10"/>
      <path d="M20.0711 18.1653H19.9931C19.599 18.1653 19.2697 18.4489 19.1815 18.8473C19.0671 19.3626 19.3029 19.692 19.653 20.0245C19.7452 20.1115 20.0223 20.3308 20.0276 20.4819H20.0386C20.0442 20.3308 20.321 20.1115 20.4131 20.0245C20.7634 19.692 20.9993 19.3626 20.885 18.8473C20.7965 18.4489 20.4671 18.1653 20.0731 18.1653H19.9954H20.0711Z" fill="#D9261C"/>
      <path d="M20.0711 18.1653H19.9931C19.599 18.1653 19.2697 18.4489 19.1815 18.8473C19.0671 19.3626 19.3029 19.692 19.653 20.0245C19.7452 20.1115 20.0223 20.3308 20.0276 20.4819H20.0386C20.0442 20.3308 20.321 20.1115 20.4131 20.0245C20.7634 19.692 20.9993 19.3626 20.885 18.8473C20.7965 18.4489 20.4671 18.1653 20.0731 18.1653H19.9954" stroke="#1F1917" stroke-width="3.12425" stroke-miterlimit="10" stroke-linejoin="round"/>
      <path d="M19.185 18.8463C19.2442 18.5782 19.414 18.365 19.6379 18.2521L19.6682 18.2046C19.6682 18.2046 18.6875 17.4099 17.4609 18.3639C17.5195 18.3371 17.994 18.7467 18.0572 18.792C18.3822 19.0246 18.7258 19.1189 19.1307 19.0453L19.1633 18.9943C19.1683 18.9465 19.1734 18.8978 19.185 18.8463Z" fill="#D9261C"/>
      <path d="M19.185 18.8463C19.2442 18.5782 19.414 18.365 19.6379 18.2521L19.6682 18.2046C19.6682 18.2046 18.6875 17.4099 17.4609 18.3639C17.5195 18.3371 17.994 18.7467 18.0572 18.792C18.3822 19.0246 18.7258 19.1189 19.1307 19.0453L19.1633 18.9943C19.1683 18.9465 19.1734 18.8978 19.185 18.8463Z" stroke="#1F1917" stroke-width="3.12425" stroke-miterlimit="10" stroke-linejoin="round"/>
      <path d="M20.3398 18.1962L20.3519 18.2152C20.6146 18.3138 20.8163 18.5477 20.8827 18.8466C20.8984 18.9185 20.9063 18.9862 20.9091 19.0516C21.2951 19.1107 21.6261 19.0165 21.9393 18.7922C22.0022 18.747 22.4768 18.3374 22.5354 18.3642C21.3088 17.4102 20.3398 18.1962 20.3398 18.1962Z" fill="#D9261C"/>
      <path d="M20.3398 18.1962L20.3519 18.2152C20.6146 18.3138 20.8163 18.5477 20.8827 18.8466C20.8984 18.9185 20.9063 18.9862 20.9091 19.0516C21.2951 19.1107 21.6261 19.0165 21.9393 18.7922C22.0022 18.747 22.4768 18.3374 22.5354 18.3642C21.3088 17.4102 20.3398 18.1962 20.3398 18.1962Z" stroke="#1F1917" stroke-width="3.12425" stroke-miterlimit="10" stroke-linejoin="round"/>
      <path d="M19.9869 12.5727C19.9869 12.5727 17.4655 16.4227 19.6801 18.1265H20.2932C22.5079 16.4227 19.9869 12.5727 19.9869 12.5727Z" fill="#D9261C"/>
      <path d="M19.9869 12.5727C19.9869 12.5727 17.4655 16.4227 19.6801 18.1265H20.2932C22.5079 16.4227 19.9869 12.5727 19.9869 12.5727Z" stroke="#1F1917" stroke-width="3.12425" stroke-miterlimit="10" stroke-linecap="round" stroke-linejoin="round"/>
      <path d="M19.4306 13.5825L18.3709 12.649C18.4643 12.7313 18.425 13.2747 18.427 13.3981C18.4314 13.6935 18.4148 13.9894 18.3854 14.2836C18.3467 14.6729 18.2637 15.0504 18.2029 15.4357C18.1071 16.0437 18.1801 16.6804 18.5163 17.2075C18.7631 17.5947 19.2245 17.9292 19.6476 18.1055C18.1833 16.9496 18.8446 14.8364 19.4306 13.5825Z" fill="#D9261C"/>
      <path d="M19.4306 13.5825L18.3709 12.649C18.4643 12.7313 18.425 13.2747 18.427 13.3981C18.4314 13.6935 18.4148 13.9894 18.3854 14.2836C18.3467 14.6729 18.2637 15.0504 18.2029 15.4357C18.1071 16.0437 18.1801 16.6804 18.5163 17.2075C18.7631 17.5947 19.2245 17.9292 19.6476 18.1055C18.1833 16.9496 18.8446 14.8364 19.4306 13.5825Z" stroke="#1F1917" stroke-width="3.12425" stroke-miterlimit="10" stroke-linejoin="round"/>
      <path d="M21.7623 15.437C21.7012 15.0517 21.6182 14.6742 21.5795 14.2849C21.55 13.9907 21.533 13.6948 21.538 13.3994C21.5397 13.2761 21.5004 12.7326 21.5937 12.6503L20.5261 13.5911C21.1128 14.8496 21.7716 16.9662 20.293 18.1177C20.7226 17.9441 21.1971 17.6035 21.4487 17.2088C21.785 16.6817 21.8582 16.0451 21.7623 15.437Z" fill="#D9261C"/>
      <path d="M21.7623 15.437C21.7012 15.0517 21.6182 14.6742 21.5795 14.2849C21.55 13.9907 21.533 13.6948 21.538 13.3994C21.5397 13.2761 21.5004 12.7326 21.5937 12.6503L20.5261 13.5911C21.1128 14.8496 21.7716 16.9662 20.293 18.1177C20.7226 17.9441 21.1971 17.6035 21.4487 17.2088C21.785 16.6817 21.8582 16.0451 21.7623 15.437Z" stroke="#1F1917" stroke-width="3.12425" stroke-miterlimit="10" stroke-linejoin="round"/>
      <path d="M20.4492 18.0486L20.5062 18.0913C20.7549 17.9571 21.2648 17.7702 21.9021 18.0049L21.9421 17.9921C21.9421 17.9921 22.1613 17.3935 22.5361 17.3935C22.5361 17.3935 22.0387 17.1298 21.3824 17.307C21.1527 17.6138 20.7977 17.8804 20.4492 18.0486Z" fill="#D9261C"/>
      <path d="M20.4492 18.0486L20.5062 18.0913C20.7549 17.9571 21.2648 17.7702 21.9021 18.0049L21.9421 17.9921C21.9421 17.9921 22.1613 17.3935 22.5361 17.3935C22.5361 17.3935 22.0387 17.1298 21.3824 17.307C21.1527 17.6138 20.7977 17.8804 20.4492 18.0486Z" stroke="#1F1917" stroke-width="3.12425" stroke-miterlimit="10" stroke-linejoin="round"/>
      <path d="M19.4734 18.0845L19.5067 18.0692L19.4925 18.0306C19.156 17.8623 18.8172 17.604 18.595 17.3078L18.5917 17.3075C17.9329 17.1276 17.4336 17.3929 17.4336 17.3929C17.8079 17.3929 18.0271 17.9914 18.0271 17.9914L18.0739 18.0138C18.7021 17.7768 19.2111 17.9483 19.4734 18.0845Z" fill="#D9261C"/>
      <path d="M19.4734 18.0845L19.5067 18.0692L19.4925 18.0306C19.156 17.8623 18.8172 17.604 18.595 17.3078L18.5917 17.3075C17.9329 17.1276 17.4336 17.3929 17.4336 17.3929C17.8079 17.3929 18.0271 17.9914 18.0271 17.9914L18.0739 18.0138C18.7021 17.7768 19.2111 17.9483 19.4734 18.0845Z" stroke="#1F1917" stroke-width="3.12425" stroke-miterlimit="10" stroke-linejoin="round"/>
      <path d="M19.4255 13.5962C19.5357 13.3596 19.6429 13.1539 19.7335 12.9897L19.2978 12.386L18.957 13.1356V13.1656L19.4315 13.5836C19.4293 13.5875 19.4276 13.5921 19.4255 13.5962Z" fill="#D9261C"/>
      <path d="M19.4255 13.5962C19.5357 13.3596 19.6429 13.1539 19.7335 12.9897L19.2978 12.386L18.957 13.1356V13.1656L19.4315 13.5836C19.4293 13.5875 19.4276 13.5921 19.4255 13.5962Z" stroke="#1F1917" stroke-width="3.12425" stroke-miterlimit="10"/>
      <path d="M20.5343 13.5899L21.0552 13.1308L20.7164 12.385L20.2734 12.9984V13.0705C20.3558 13.2228 20.4487 13.4058 20.5434 13.6099C20.5406 13.6031 20.5371 13.5963 20.5343 13.5899Z" fill="#D9261C"/>
      <path d="M20.5343 13.5899L21.0552 13.1308L20.7164 12.385L20.2734 12.9984V13.0705C20.3558 13.2228 20.4487 13.4058 20.5434 13.6099C20.5406 13.6031 20.5371 13.5963 20.5343 13.5899Z" stroke="#1F1917" stroke-width="3.12425" stroke-miterlimit="10"/>
    </g>
  </g>
  <defs>
    <clipPath id="clip0_1813_7254">
      <rect width="40" height="40" rx="20" fill="white"/>
    </clipPath>
  </defs>
</svg>