<svg width="24" height="25" viewBox="0 0 24 25" fill="none" xmlns="http://www.w3.org/2000/svg">
<g id="mdi:clock">
<path id="Vector" d="M12 2.94141C10.6868 2.94141 9.38642 3.20006 8.17317 3.70261C6.95991 4.20516 5.85752 4.94175 4.92893 5.87034C3.05357 7.7457 2 10.2892 2 12.9414C2 15.5936 3.05357 18.1371 4.92893 20.0125C5.85752 20.9411 6.95991 21.6777 8.17317 22.1802C9.38642 22.6827 10.6868 22.9414 12 22.9414C14.6522 22.9414 17.1957 21.8878 19.0711 20.0125C20.9464 18.1371 22 15.5936 22 12.9414C22 11.6282 21.7413 10.3278 21.2388 9.11457C20.7362 7.90132 19.9997 6.79892 19.0711 5.87034C18.1425 4.94175 17.0401 4.20516 15.8268 3.70261C14.6136 3.20006 13.3132 2.94141 12 2.94141ZM16.2 17.1414L11 13.9414V7.94141H12.5V13.1414L17 15.8414L16.2 17.1414Z" fill="white"/>
</g>
</svg>
