<svg width="80" height="57" viewBox="0 0 80 57" fill="none" xmlns="http://www.w3.org/2000/svg">
<g id="VBCC_Logo_White_Big 1" clip-path="url(#clip0_2171_11028)">
<g id="Clip path group">
<mask id="mask0_2171_11028" style="mask-type:luminance" maskUnits="userSpaceOnUse" x="0" y="0" width="80" height="57">
<g id="clip0_1730_6951">
<path id="Vector" d="M80 0H0V56.3995H80V0Z" fill="white"/>
</g>
</mask>
<g mask="url(#mask0_2171_11028)">
<g id="Group">
<path id="Vector_2" d="M41.9629 56.1319C62.4158 56.1319 78.9961 45.8261 78.9961 33.1133C78.9961 20.4005 62.4158 10.0947 41.9629 10.0947C21.51 10.0947 4.92969 20.4005 4.92969 33.1133C4.92969 45.8261 21.51 56.1319 41.9629 56.1319Z" fill="white" stroke="#132249" stroke-width="0.535523" stroke-miterlimit="10"/>
<path id="Vector_3" d="M42.1176 53.47C61.2731 53.47 76.8017 44.3911 76.8017 33.1916C76.8017 21.9921 61.2731 12.9131 42.1176 12.9131C22.9622 12.9131 7.43359 21.9921 7.43359 33.1916C7.43359 44.3911 22.9622 53.47 42.1176 53.47Z" fill="#132249"/>
<path id="Vector_4" d="M16.7441 40.5652C16.8446 39.9941 16.8948 39.3173 16.8948 38.5347C16.8948 36.7685 16.5776 34.5582 15.943 31.9037C15.6469 30.6505 15.3878 29.8018 15.1657 29.3577C14.9489 28.9082 14.6105 28.538 14.1504 28.2472C14.6845 27.6761 15.126 27.3906 15.475 27.3906C16.1413 27.3906 16.7759 28.464 17.3787 30.6109C18.1718 33.4187 18.5684 36.0388 18.5684 38.4712C21.8892 34.0347 23.5496 30.9942 23.5496 29.3497C23.5496 29.1171 23.4887 28.8923 23.3671 28.6755C23.8113 28.3741 24.2661 28.2234 24.7314 28.2234C25.1544 28.2234 25.3659 28.427 25.3659 28.8342C25.3659 29.5374 24.9112 30.6902 24.0017 32.2924C23.0922 33.8893 21.8337 35.7506 20.2262 37.8763C19.3854 38.9815 18.7879 39.6716 18.4336 39.9465C18.0846 40.2162 17.5214 40.4224 16.7441 40.5652ZM25.1121 32.6811C24.9746 32.3902 24.9059 32.1153 24.9059 31.8562C24.9059 30.9466 25.6409 30.1138 27.1109 29.3577C28.5862 28.6015 30.2043 28.2234 31.9651 28.2234C32.9487 28.2234 33.7418 28.4111 34.3446 28.7866C34.9527 29.162 35.2568 29.6538 35.2568 30.2619C35.2568 31.3882 34.4557 32.4457 32.8535 33.4346C33.7894 33.6884 34.5218 34.0717 35.0506 34.5847C35.5846 35.0976 35.8517 35.6792 35.8517 36.3296C35.8517 37.6093 35.1563 38.6986 33.7656 39.5975C32.3749 40.4965 30.6908 40.9459 28.7131 40.9459C27.259 40.9459 26.5319 40.4885 26.5319 39.5737C26.5319 39.3569 26.6112 38.8493 26.7698 38.0508L27.8882 32.4272C27.9781 31.9778 28.0231 31.6579 28.0231 31.4675C28.0231 31.2824 27.9596 31.1132 27.8327 30.9599C28.5307 30.6955 29.0198 30.5633 29.3001 30.5633C29.6279 30.5633 29.7918 30.751 29.7918 31.1264C29.7918 31.2216 29.7046 31.6869 29.5301 32.5224L28.491 37.7336C28.3747 38.3364 28.3165 38.7303 28.3165 38.9154C28.3165 39.5817 28.9511 39.9148 30.2201 39.9148C31.2618 39.9148 32.1528 39.616 32.8931 39.0185C33.6387 38.4157 34.0115 37.6939 34.0115 36.8531C34.0115 36.1975 33.8053 35.6845 33.3928 35.3144C32.9804 34.9442 32.293 34.6587 31.3306 34.4578C30.9869 34.5952 30.6114 34.664 30.2043 34.664C30.0668 34.664 29.8949 34.6402 29.6887 34.5926C29.8421 34.0268 30.0324 33.6461 30.2598 33.4504C30.4925 33.2548 30.8653 33.157 31.3782 33.157C31.5104 33.157 31.6875 33.1649 31.9096 33.1808C33.0359 32.3559 33.5991 31.5389 33.5991 30.7298C33.5991 29.7727 32.8693 29.2942 31.4099 29.2942C29.0462 29.2942 26.947 30.4232 25.1121 32.6811ZM47.2575 36.988C47.358 37.2259 47.4082 37.4137 47.4082 37.5511C47.4082 38.2386 46.8186 38.9101 45.6394 39.5658C44.4655 40.2215 43.2599 40.5493 42.0226 40.5493C40.6689 40.5493 39.5981 40.1554 38.8102 39.3675C38.0276 38.5796 37.6363 37.5009 37.6363 36.1314C37.6363 33.9686 38.3449 32.11 39.762 30.5553C41.1792 29.0007 42.8739 28.2234 44.8463 28.2234C45.65 28.2234 46.3269 28.3662 46.8768 28.6517C47.4267 28.9373 47.7017 29.2863 47.7017 29.6987C47.7017 30.0689 47.4637 30.476 46.9878 30.9202C46.348 29.6406 45.4411 29.0007 44.2672 29.0007C42.9823 29.0007 41.8613 29.6696 40.9042 31.0075C39.9471 32.34 39.4685 33.8973 39.4685 35.6792C39.4685 36.8161 39.7541 37.7177 40.3252 38.384C40.9015 39.0449 41.6789 39.3754 42.6571 39.3754C44.3281 39.3754 45.8615 38.5796 47.2575 36.988ZM48.9787 32.7128C48.7619 32.4643 48.6535 32.1681 48.6535 31.8244C48.6535 30.9466 49.3964 30.127 50.8823 29.3656C52.3735 28.6041 53.9704 28.2234 55.6731 28.2234C58.2958 28.2234 59.6072 29.0589 59.6072 30.7298C59.6072 31.5389 59.3243 32.2289 58.7585 32.8C58.198 33.3658 57.2171 33.9554 55.8159 34.5688C57.0796 37.4507 58.1689 38.8916 59.0837 38.8916C59.5649 38.8916 60.0805 38.5532 60.6304 37.8763C60.6569 38.0085 60.6701 38.1011 60.6701 38.1539C60.6701 38.5981 60.4083 39.0608 59.8848 39.542C59.3613 40.0179 58.8564 40.2559 58.3699 40.2559C57.1325 40.2559 55.8132 38.569 54.4119 35.1954C54.1317 35.2747 53.8779 35.3144 53.6505 35.3144C53.5394 35.3144 53.4363 35.2932 53.3412 35.2509C53.5368 34.2515 54.0339 33.7518 54.8323 33.7518C54.991 33.7518 55.1866 33.7836 55.4193 33.847C57.1537 33.2654 58.0209 32.3003 58.0209 30.9519C58.0209 30.4549 57.7723 30.0477 57.2753 29.7304C56.7835 29.4079 56.1543 29.2466 55.3875 29.2466C54.0867 29.2466 52.8362 29.5718 51.6358 30.2222C50.4355 30.8673 49.5498 31.6975 48.9787 32.7128ZM51.8341 41.0252C51.2948 41.2949 50.8056 41.4298 50.3668 41.4298C50.0918 41.4298 49.9543 41.3187 49.9543 41.0966C49.9543 40.9803 50.0151 40.6498 50.1367 40.1052L51.6596 32.4272C51.7495 31.9831 51.7945 31.6631 51.7945 31.4675C51.7945 31.2824 51.731 31.1132 51.6041 30.9599C52.3074 30.6955 52.7965 30.5633 53.0715 30.5633C53.4046 30.5633 53.5712 30.7536 53.5712 31.1344C53.5712 31.2243 53.4839 31.6869 53.3094 32.5224L51.9055 39.5737C51.805 40.0655 51.7548 40.4119 51.7548 40.6128C51.7548 40.7238 51.7812 40.8613 51.8341 41.0252ZM71.7666 36.988C71.867 37.2259 71.9173 37.4137 71.9173 37.5511C71.9173 38.2386 71.3277 38.9101 70.1485 39.5658C68.9746 40.2215 67.769 40.5493 66.5316 40.5493C65.1779 40.5493 64.1072 40.1554 63.3193 39.3675C62.5367 38.5796 62.1454 37.5009 62.1454 36.1314C62.1454 33.9686 62.854 32.11 64.2711 30.5553C65.6882 29.0007 67.383 28.2234 69.3553 28.2234C70.1591 28.2234 70.8359 28.3662 71.3859 28.6517C71.9358 28.9373 72.2108 29.2863 72.2108 29.6987C72.2108 30.0689 71.9728 30.476 71.4969 30.9202C70.8571 29.6406 69.9502 29.0007 68.7763 29.0007C67.4914 29.0007 66.3704 29.6696 65.4133 31.0075C64.4562 32.34 63.9776 33.8973 63.9776 35.6792C63.9776 36.8161 64.2632 37.7177 64.8342 38.384C65.4106 39.0449 66.1879 39.3754 67.1662 39.3754C68.8371 39.3754 70.3706 38.5796 71.7666 36.988Z" fill="white"/>
<path id="Vector_5" d="M2.27062 11.294C2.66066 11.0322 3.08004 10.8172 3.52017 10.6531C3.82496 10.5359 4.14863 10.4754 4.47519 10.4746C4.72193 10.4762 4.96323 10.5474 5.17137 10.6799C5.3673 10.8127 5.53032 10.9886 5.64798 11.194C5.76795 11.3961 5.84681 11.62 5.88004 11.8527C5.91487 12.1076 5.88288 12.3672 5.78722 12.606C5.66169 12.9108 5.48003 13.1894 5.2517 13.4271C4.92684 13.7667 4.55967 14.0631 4.15923 14.309L3.61121 14.666L4.809 16.4939C5.07676 16.3154 5.34452 16.1369 5.61764 15.9584L5.79614 16.2404C5.01785 16.739 4.24908 17.2555 3.48982 17.7899L3.29704 17.515L4.05748 16.9794L1.01214 12.5167C0.737237 12.706 0.462335 12.8952 0.189218 13.088L0 12.8256C0.749732 12.2996 1.5066 11.789 2.27062 11.294ZM3.41842 14.3946L3.9111 14.0733C4.17326 13.9083 4.42053 13.7208 4.65012 13.5128C4.81492 13.3654 4.94377 13.1822 5.02678 12.9773C5.0924 12.7958 5.10295 12.5989 5.05712 12.4114C4.99585 12.1735 4.89702 11.947 4.76437 11.7402C4.65919 11.5596 4.52875 11.3949 4.37701 11.2511C4.24631 11.1331 4.08235 11.0583 3.90753 11.0369C3.69107 11.0206 3.47383 11.0561 3.27383 11.1404C2.9678 11.263 2.67576 11.418 2.40271 11.6028L1.82256 11.983L3.41842 14.3946Z" fill="white"/>
<path id="Vector_6" d="M11.588 12.9344C11.4844 13.0118 11.3863 13.0778 11.2934 13.1326C11.1988 13.1861 11.1149 13.229 11.0685 13.2575C10.9514 13.3206 10.8282 13.3714 10.7008 13.4093C10.6152 13.4349 10.5254 13.4434 10.4366 13.4343C10.3663 13.4241 10.2998 13.3958 10.2438 13.3521C10.1866 13.3054 10.1377 13.2492 10.0992 13.1861L10.0778 13.1968C10.0568 13.324 10.0203 13.4481 9.9689 13.5664C9.92215 13.6745 9.86219 13.7764 9.7904 13.8698C9.72047 13.9582 9.64083 14.0384 9.55298 14.109C9.46641 14.1769 9.3738 14.2366 9.2763 14.2875C9.13161 14.3704 8.97509 14.4306 8.81218 14.466C8.6758 14.4979 8.53449 14.5028 8.39625 14.4803C8.27096 14.4603 8.15225 14.4108 8.04995 14.3357C7.94265 14.2592 7.85365 14.1598 7.78933 14.0448C7.59475 13.7109 7.62688 13.3486 7.89643 12.963C8.16598 12.5774 8.64616 12.1811 9.34591 11.792C9.28879 11.6795 9.23881 11.5796 9.1924 11.4903C9.14598 11.4011 9.10136 11.3118 9.05495 11.2279C9.01893 11.1376 8.96373 11.0562 8.89315 10.9893C8.82256 10.9224 8.73829 10.8716 8.64616 10.8405C8.4469 10.8179 8.24602 10.8659 8.07851 10.9762C7.9419 11.049 7.8148 11.1383 7.70007 11.2422C7.61065 11.3219 7.53522 11.416 7.47694 11.5207C7.56473 11.5348 7.64862 11.567 7.72328 11.6153C7.78498 11.655 7.83637 11.7089 7.87322 11.7724C7.90119 11.8199 7.91854 11.8729 7.92409 11.9277C7.92964 11.9826 7.92324 12.038 7.90536 12.0901C7.86153 12.2089 7.77408 12.3066 7.6608 12.3632C7.60482 12.3946 7.54474 12.418 7.48229 12.4328C7.42403 12.448 7.36327 12.451 7.30378 12.4418C7.24623 12.4311 7.19151 12.4086 7.14313 12.3757C7.08962 12.3376 7.04513 12.2883 7.01282 12.2311C6.95509 12.1273 6.92961 12.0086 6.93963 11.8902C6.95334 11.746 6.99974 11.6068 7.0753 11.4832C7.17087 11.3203 7.29133 11.1733 7.43231 11.0476C7.61869 10.8807 7.82493 10.7374 8.04638 10.621C8.22495 10.521 8.41416 10.4414 8.61046 10.3836C8.7684 10.3366 8.93453 10.3238 9.09779 10.3461C9.25012 10.3702 9.39248 10.4371 9.50836 10.5389C9.6502 10.6669 9.76545 10.8215 9.84752 10.9941C9.8743 11.044 9.91535 11.1244 9.97247 11.2386C10.0296 11.3529 10.0921 11.476 10.151 11.6135C10.2099 11.7509 10.2884 11.8902 10.3598 12.0312C10.4312 12.1722 10.4937 12.2954 10.5491 12.4007C10.6044 12.506 10.6544 12.6006 10.699 12.6702C10.7323 12.7292 10.7766 12.7813 10.8293 12.8238C10.8706 12.8554 10.9221 12.8707 10.9739 12.8666C11.0431 12.8579 11.1098 12.8354 11.1703 12.8006C11.2582 12.7529 11.3434 12.7004 11.4255 12.6435L11.588 12.9344ZM9.4905 12.0847C9.24937 12.2161 9.0195 12.3671 8.80325 12.5364C8.66704 12.6391 8.55036 12.7655 8.45873 12.9094C8.39681 13.0079 8.36861 13.1238 8.3784 13.2397C8.39312 13.3551 8.4314 13.4663 8.49086 13.5664C8.5643 13.7279 8.69639 13.8555 8.86037 13.9234C8.93275 13.9447 9.0088 13.9504 9.08355 13.9403C9.15831 13.9301 9.23007 13.9043 9.29415 13.8645C9.38778 13.8111 9.47267 13.7437 9.54584 13.6645C9.63274 13.5731 9.7023 13.4667 9.75113 13.3504C9.80304 13.2169 9.82557 13.0738 9.81717 12.9309C9.80933 12.7593 9.76035 12.5922 9.67437 12.4435C9.61725 12.3168 9.55298 12.2043 9.4905 12.0847Z" fill="white"/>
<path id="Vector_7" d="M13.4228 9.425C13.3487 9.28564 13.2542 9.1581 13.1426 9.04656C13.0532 8.95914 12.9452 8.89321 12.8266 8.85377C12.7107 8.82007 12.5887 8.81275 12.4696 8.83235C12.3278 8.85689 12.1902 8.90136 12.0608 8.96445C11.9566 9.01346 11.8579 9.07329 11.7663 9.14295C11.6878 9.19852 11.619 9.26668 11.5628 9.34467C11.5151 9.41292 11.4857 9.49216 11.4771 9.57494C11.4707 9.65875 11.4874 9.7427 11.5253 9.81771C11.5589 9.89476 11.6133 9.9609 11.6824 10.0087C11.7568 10.0517 11.841 10.075 11.9269 10.0765C12.0498 10.0814 12.1729 10.0749 12.2946 10.0569L12.8302 9.9873C12.9962 9.96409 13.164 9.94624 13.33 9.93196C13.4872 9.91793 13.6456 9.92393 13.8013 9.94981C13.943 9.97431 14.0784 10.0271 14.1993 10.1051C14.3243 10.1951 14.421 10.319 14.4778 10.4621C14.5518 10.6233 14.5773 10.8026 14.551 10.978C14.5213 11.1477 14.4543 11.3087 14.3546 11.4493C14.2461 11.6027 14.1141 11.7382 13.9637 11.8509C13.8046 11.9731 13.6328 12.0778 13.4514 12.1633C13.3532 12.2079 13.2479 12.2526 13.1318 12.2936C13.0158 12.3347 12.9034 12.3739 12.7891 12.4079C12.6749 12.4418 12.5624 12.4703 12.4535 12.4935C12.3446 12.5167 12.25 12.5328 12.1661 12.5435L11.6003 11.4725L11.8859 11.3332C11.9729 11.4922 12.0809 11.6388 12.2072 11.7688C12.3015 11.8667 12.4168 11.9418 12.5446 11.9884C12.6654 12.0281 12.7944 12.0367 12.9194 12.0134C13.0681 11.9856 13.2123 11.9376 13.3478 11.8706C13.4574 11.821 13.5619 11.7612 13.6602 11.692C13.7437 11.634 13.8172 11.5629 13.878 11.4814C13.9321 11.4094 13.9666 11.3245 13.978 11.2351C13.9876 11.1382 13.9684 11.0407 13.9226 10.9548C13.8922 10.8834 13.8428 10.8217 13.7798 10.7763C13.7121 10.7334 13.6349 10.7076 13.5549 10.7013C13.444 10.689 13.332 10.689 13.2211 10.7013C13.089 10.7156 12.9337 10.7352 12.7516 10.7584C12.5696 10.7817 12.3946 10.8013 12.2161 10.8174C12.0562 10.8337 11.8949 10.8301 11.7359 10.8066C11.5934 10.7872 11.4565 10.738 11.3343 10.6621C11.2057 10.5771 11.1037 10.4577 11.0397 10.3175C10.9592 10.164 10.925 9.99032 10.9416 9.81771C10.96 9.65301 11.0175 9.4951 11.1094 9.35716C11.2097 9.20496 11.3353 9.07095 11.4807 8.96088C11.6393 8.8385 11.8111 8.73432 11.993 8.65027C12.0894 8.60565 12.1893 8.56459 12.2964 8.52532C12.4035 8.48605 12.5124 8.45213 12.6213 8.42178C12.7302 8.39144 12.8373 8.36288 12.9391 8.33967L13.2211 8.28076C13.3818 8.61993 13.5442 8.95731 13.7049 9.29647L13.4228 9.425Z" fill="white"/>
<path id="Vector_8" d="M17.0148 7.93815C16.9494 7.79448 16.8627 7.66148 16.7577 7.54365C16.6741 7.45141 16.5702 7.3799 16.4542 7.33479C16.3405 7.2915 16.2181 7.2762 16.0972 7.29016C15.9541 7.30627 15.814 7.34294 15.6813 7.39905C15.5759 7.44007 15.4748 7.4915 15.3796 7.55257C15.302 7.60552 15.2327 7.66992 15.1743 7.74357C15.1234 7.80851 15.0896 7.88526 15.0762 7.96671C15.0646 8.05363 15.0776 8.14206 15.1136 8.22198C15.1428 8.30148 15.1935 8.37131 15.26 8.42369C15.3316 8.47062 15.4139 8.49885 15.4992 8.5058C15.618 8.51619 15.7375 8.51619 15.8562 8.5058C16.0008 8.5058 16.1758 8.4826 16.3918 8.46653C16.5596 8.45404 16.7256 8.44689 16.8916 8.44154C17.0488 8.43742 17.2059 8.45301 17.3593 8.48795C17.4988 8.52011 17.6301 8.5809 17.7448 8.66646C17.8639 8.75788 17.9538 8.88191 18.0037 9.02347C18.069 9.18797 18.0839 9.36816 18.0465 9.54115C18.0093 9.70881 17.9342 9.86573 17.827 9.99991C17.7108 10.1468 17.5723 10.2745 17.4164 10.3783C17.2485 10.4908 17.069 10.5848 16.8809 10.6586C16.7809 10.6979 16.6738 10.7354 16.5578 10.7711C16.4417 10.8068 16.3257 10.8371 16.2008 10.8639C16.0758 10.8907 15.9723 10.9121 15.8634 10.9282C15.7545 10.9442 15.6599 10.9567 15.5742 10.9621L15.0851 9.86782L15.3761 9.74643C15.4548 9.90974 15.5544 10.0621 15.6724 10.1998C15.7598 10.3039 15.8705 10.3858 15.9955 10.439C16.1127 10.4856 16.2397 10.5022 16.365 10.4872C16.5149 10.4681 16.6615 10.4285 16.8005 10.3694C16.9122 10.3267 17.0192 10.2729 17.1201 10.2088C17.2061 10.1557 17.2832 10.0895 17.3486 10.0124C17.4087 9.9421 17.4481 9.85642 17.4623 9.76499C17.4765 9.67355 17.4649 9.57997 17.4289 9.49473C17.4037 9.41943 17.3579 9.35266 17.2968 9.30195C17.2322 9.25468 17.1566 9.22459 17.0772 9.21448C16.9674 9.19722 16.8561 9.19243 16.7452 9.2002C16.6131 9.2002 16.4578 9.21626 16.2757 9.22876C16.0937 9.24125 15.9187 9.25018 15.7402 9.25553C15.581 9.2619 15.4216 9.24932 15.2654 9.21805C15.1237 9.1858 14.9901 9.12506 14.8727 9.03954C14.7506 8.94785 14.6561 8.82434 14.5995 8.68252C14.5277 8.52449 14.5035 8.34893 14.5299 8.17735C14.5568 8.01485 14.6223 7.86119 14.7209 7.72929C14.8286 7.58265 14.9608 7.45581 15.1119 7.35443C15.2763 7.24205 15.453 7.14863 15.6385 7.07596C15.7349 7.03668 15.8384 7.00277 15.9473 6.97064C16.0562 6.9385 16.1651 6.90994 16.2757 6.88495C16.3864 6.85996 16.4917 6.84033 16.5953 6.82248L16.8827 6.7832C17.0255 7.12951 17.1677 7.47641 17.3093 7.8239L17.0148 7.93815Z" fill="white"/>
<path id="Vector_9" d="M20.17 8.9772L20.8072 8.76656C20.8412 8.87366 20.8751 8.97898 20.9108 9.0843C20.2336 9.30565 19.5595 9.53711 18.8883 9.77869L18.7794 9.46095L19.4113 9.23603L18.4563 6.50486C18.2349 6.58162 18.0154 6.66017 17.794 6.74049L17.6816 6.42632C18.1671 6.24781 18.6544 6.08002 19.1435 5.91579C19.4863 6.93804 19.8284 7.95851 20.17 8.9772ZM18.3617 4.93935C18.2888 4.96493 18.2122 4.9782 18.135 4.97862C18.065 4.97868 17.9955 4.9666 17.9297 4.94292C17.8667 4.91885 17.8095 4.88175 17.7619 4.83403C17.713 4.78348 17.6764 4.72242 17.6548 4.65552C17.6321 4.59395 17.6242 4.52793 17.6316 4.46274C17.6396 4.39557 17.6608 4.33065 17.6941 4.27173C17.7299 4.21035 17.7771 4.15642 17.8333 4.11286C17.8941 4.06424 17.963 4.02677 18.0368 4.00219C18.1096 3.97635 18.1863 3.96307 18.2635 3.96291C18.3348 3.96226 18.4057 3.97497 18.4724 4.0004C18.5356 4.02402 18.5928 4.06118 18.6402 4.10929C18.6879 4.16038 18.7238 4.22132 18.7455 4.2878C18.7682 4.35492 18.7755 4.42631 18.7669 4.49665C18.7579 4.56298 18.7354 4.62676 18.7008 4.68409C18.6644 4.74401 18.6172 4.79666 18.5616 4.83939C18.5008 4.88323 18.4333 4.91699 18.3617 4.93935Z" fill="white"/>
<path id="Vector_10" d="M20.962 7.23508C20.8833 6.99341 20.8512 6.739 20.8674 6.48535C20.8818 6.23549 20.9506 5.99179 21.0691 5.77132C21.1931 5.54296 21.3641 5.34342 21.5707 5.18582C21.8097 5.00476 22.0821 4.87253 22.3722 4.79667C22.6533 4.71041 22.9489 4.68128 23.2415 4.71099C23.4935 4.73435 23.7373 4.81297 23.9555 4.94126C24.1589 5.06326 24.3337 5.22764 24.4679 5.42323C24.6063 5.62552 24.7073 5.85105 24.766 6.08906C24.8287 6.33555 24.8469 6.59128 24.8195 6.84415C24.7924 7.08709 24.7165 7.32205 24.5964 7.53498C24.4711 7.75638 24.3016 7.94961 24.0983 8.10263C23.8713 8.27402 23.613 8.39953 23.3379 8.47214C23.0711 8.55354 22.7909 8.58204 22.5132 8.55604C22.2714 8.53324 22.0368 8.46093 21.8242 8.34362C21.6201 8.22765 21.4416 8.0716 21.2993 7.88485C21.1489 7.69019 21.0347 7.47011 20.962 7.23508ZM21.8188 6.95483C21.8879 7.19909 21.9824 7.43542 22.1008 7.65993C22.1824 7.81443 22.2934 7.95148 22.4275 8.06336C22.5382 8.15094 22.6724 8.20374 22.8131 8.21509C23.1263 8.22718 23.4353 8.13901 23.6949 7.9634C23.8103 7.87818 23.8989 7.76173 23.9502 7.6278C24.0078 7.45855 24.0314 7.27961 24.0198 7.1012C24.0031 6.84327 23.9595 6.58779 23.8895 6.33898C23.8283 6.09237 23.7409 5.853 23.6289 5.62494C23.5514 5.46677 23.442 5.32637 23.3076 5.21259C23.1941 5.12238 23.0559 5.06884 22.9113 5.05908C22.7491 5.05043 22.5867 5.06976 22.4311 5.1162C22.2723 5.15731 22.1223 5.22686 21.9884 5.32148C21.8697 5.40834 21.7791 5.52813 21.7278 5.666C21.6695 5.83813 21.6482 6.02061 21.6653 6.20152C21.6876 6.45998 21.7391 6.71508 21.8188 6.96197V6.95483Z" fill="white"/>
<path id="Vector_11" d="M27.1516 7.05108L27.7389 6.92613C27.7621 7.03502 27.7853 7.14391 27.8067 7.25458C27.1379 7.39382 26.4697 7.54376 25.802 7.70442C25.7753 7.59553 25.7485 7.48843 25.7235 7.37954L26.3715 7.22602C26.1561 6.28707 25.9395 5.34753 25.7217 4.40739L25.0434 4.56626C25.0166 4.45737 24.9916 4.35026 24.9648 4.24137C25.4647 4.12177 25.9645 4.00574 26.4643 3.89685C26.5071 4.095 26.5518 4.29314 26.5946 4.4895H26.6125C26.6793 4.24754 26.8137 4.0296 26.9998 3.86115C27.2224 3.67817 27.4899 3.558 27.7746 3.51306C28.1923 3.43095 28.5225 3.47022 28.7617 3.62552C28.8875 3.71565 28.9931 3.83116 29.0715 3.96461C29.1499 4.09805 29.1994 4.24646 29.2169 4.40024C29.3454 5.12261 29.4745 5.84556 29.6043 6.56911L30.238 6.46022C30.2558 6.56911 30.2737 6.67979 30.2933 6.79046C29.6257 6.90114 28.9598 7.02371 28.2958 7.15819C28.2744 7.04751 28.253 6.93862 28.2297 6.82973L28.8188 6.7137C28.6724 5.95564 28.5273 5.19639 28.3833 4.43595C28.3743 4.34724 28.3464 4.2615 28.3014 4.18451C28.2565 4.10752 28.1955 4.04108 28.1226 3.98968C27.9697 3.90488 27.7898 3.88311 27.621 3.92898C27.4719 3.95842 27.3307 4.01927 27.2069 4.10749C27.0832 4.19711 26.9838 4.31613 26.9177 4.4538C26.8406 4.6167 26.7963 4.79322 26.7874 4.97325C26.7743 5.20712 26.7954 5.44164 26.8499 5.66943C26.9552 6.12463 27.0516 6.58875 27.1516 7.05108Z" fill="white"/>
<path id="Vector_12" d="M34.7419 0.0194C34.896 0.00455619 35.0515 0.00995731 35.2042 0.0354657C35.3293 0.0578995 35.4499 0.100715 35.5612 0.162206C35.6554 0.213412 35.7366 0.28546 35.7986 0.372845C35.8553 0.452094 35.8892 0.545286 35.8968 0.642392C35.9039 0.706584 35.8973 0.771542 35.8777 0.833048C35.858 0.894555 35.8256 0.951234 35.7826 0.999407C35.7368 1.04884 35.6817 1.08866 35.6204 1.11655C35.5591 1.14444 35.4929 1.15984 35.4256 1.16185C35.3657 1.16621 35.3055 1.1614 35.247 1.14757C35.1879 1.13472 35.1316 1.11112 35.081 1.07795C35.0326 1.04617 34.9918 1.00412 34.9614 0.95478C34.9287 0.900559 34.9091 0.839421 34.9043 0.776273C34.8991 0.695677 34.9125 0.61496 34.9434 0.540362C34.9744 0.465765 35.0221 0.399286 35.0828 0.346069C34.9651 0.324036 34.8446 0.320423 34.7258 0.335359C34.6121 0.344527 34.4999 0.367915 34.392 0.404977C34.2884 0.445079 34.2011 0.518568 34.1439 0.613831C34.0694 0.749404 34.0238 0.898915 34.01 1.05296C33.9879 1.30504 33.9927 1.55876 34.0243 1.80983C34.0546 2.09901 34.0832 2.38998 34.1135 2.67916C34.4527 2.64346 34.7901 2.61133 35.1292 2.58277C35.1399 2.69345 35.1489 2.80412 35.1596 2.91479C34.8228 2.94574 34.4854 2.97787 34.1474 3.01119C34.2486 3.96918 34.3497 4.92896 34.4509 5.89052C34.6847 5.86553 34.9204 5.84232 35.156 5.8209C35.1649 5.93157 35.1756 6.04403 35.1864 6.15471C34.4723 6.22016 33.7583 6.29751 33.0443 6.38677L33.0032 6.05474L33.6619 5.9762C33.5512 5.01821 33.4411 4.06022 33.3317 3.10223C33.1014 3.12722 32.8729 3.15578 32.6426 3.18434C32.6301 3.07367 32.6158 2.96299 32.6016 2.85232L33.2924 2.76842C33.2781 2.63097 33.262 2.49173 33.246 2.35428C33.2033 2.03862 33.21 1.71825 33.2656 1.40462C33.3095 1.14974 33.4055 0.906661 33.5477 0.690589C33.6777 0.497443 33.8522 0.338289 34.0564 0.226469C34.2677 0.109746 34.5013 0.0391696 34.7419 0.0194Z" fill="white"/>
<path id="Vector_13" d="M35.6801 4.35394C35.6573 4.10107 35.6821 3.84615 35.7533 3.60243C35.8219 3.36522 35.9406 3.14548 36.1014 2.95801C36.2717 2.76385 36.4809 2.60756 36.7154 2.49925C37.2588 2.26107 37.87 2.22747 38.4363 2.40464C38.672 2.48496 38.8875 2.61527 39.0682 2.78665C39.2363 2.95089 39.3672 3.14935 39.452 3.36858C39.5421 3.59608 39.5904 3.83796 39.5948 4.08261C39.6018 4.33676 39.5631 4.59009 39.4805 4.83056C39.4011 5.06138 39.2761 5.27386 39.1128 5.45534C38.9459 5.63817 38.7445 5.78619 38.5202 5.8909C38.2622 6.0058 37.9847 6.07062 37.7026 6.0819C37.4266 6.10147 37.1495 6.06691 36.8868 5.98015C36.6583 5.90545 36.4479 5.78385 36.2692 5.62313C36.0955 5.46525 35.9564 5.27321 35.8604 5.05905C35.759 4.83655 35.6979 4.5978 35.6801 4.35394ZM36.5726 4.27005C36.5861 4.52392 36.6256 4.77575 36.6904 5.02156C36.735 5.19046 36.8127 5.34883 36.9189 5.48747C37.0054 5.59706 37.123 5.67795 37.2563 5.71953C37.4052 5.76241 37.5605 5.77873 37.7151 5.76773C37.8697 5.76242 38.0221 5.72916 38.1649 5.66955C38.2965 5.61285 38.4083 5.51843 38.4862 5.39821C38.5793 5.24687 38.6401 5.07792 38.6647 4.90196C38.7071 4.64665 38.7209 4.3874 38.7058 4.12902C38.7017 3.87512 38.6694 3.62246 38.6094 3.37572C38.5694 3.20466 38.4947 3.04364 38.3898 2.90268C38.2982 2.78817 38.1736 2.70466 38.0328 2.66348C37.878 2.61985 37.7167 2.60354 37.5562 2.61528C37.3936 2.61978 37.2332 2.65428 37.0832 2.71703C36.9486 2.77452 36.8342 2.87086 36.7547 2.99372C36.6599 3.14615 36.599 3.31724 36.5762 3.49532C36.5454 3.75254 36.5436 4.01242 36.5708 4.27005H36.5726Z" fill="white"/>
<path id="Vector_14" d="M42.4143 5.89054C41.7003 5.87626 40.9822 5.87626 40.2598 5.89054V5.55495H40.9221L40.9114 2.66134H40.2188V2.32575C40.7293 2.31861 41.2398 2.31861 41.7503 2.32575V2.97373H41.7682C41.8189 2.86718 41.8831 2.7676 41.9592 2.67741C42.0409 2.58853 42.1333 2.51 42.2341 2.44356C42.3325 2.37949 42.4395 2.32961 42.5518 2.2954C42.6617 2.26168 42.776 2.24542 42.8909 2.2472C43.0568 2.24538 43.2181 2.30228 43.3461 2.40786C43.4044 2.45823 43.4502 2.52168 43.4793 2.59303C43.5085 2.66438 43.5204 2.74161 43.514 2.81843C43.5161 2.88521 43.5037 2.95165 43.4779 3.01325C43.452 3.07485 43.4132 3.13016 43.3641 3.17544C43.2642 3.25822 43.1365 3.29972 43.007 3.29147C42.9418 3.29562 42.8762 3.28618 42.8148 3.26375C42.7533 3.24132 42.6973 3.20639 42.65 3.16116C42.6108 3.12063 42.5804 3.07243 42.5607 3.01959C42.541 2.96675 42.5326 2.91042 42.5358 2.85413C42.5378 2.78295 42.5528 2.71275 42.5803 2.64706C42.4575 2.68455 42.3431 2.74513 42.243 2.82557C42.1349 2.91482 42.0425 3.02163 41.9698 3.14153C41.8884 3.27993 41.8284 3.42976 41.7914 3.58601C41.7448 3.76979 41.7214 3.9587 41.7218 4.14831L41.7111 5.55673L42.425 5.56566L42.4143 5.89054Z" fill="white"/>
<path id="Vector_15" d="M49.1572 0.246325C49.5872 0.28734 50.0118 0.372276 50.4246 0.499806C50.7106 0.585317 50.9803 0.718053 51.2225 0.892523C51.3987 1.01981 51.5344 1.19521 51.6134 1.3977C51.6778 1.5889 51.695 1.79286 51.6634 1.99213C51.6352 2.16888 51.5747 2.33892 51.4849 2.49374C51.3932 2.64964 51.272 2.78609 51.1279 2.89538C50.9715 3.01565 50.7958 3.1086 50.6084 3.17028C50.385 3.24403 50.1526 3.28726 49.9176 3.29881V3.31666C50.0966 3.37294 50.2637 3.46191 50.4103 3.57906C50.5301 3.67612 50.6275 3.7979 50.6959 3.93608C50.7625 4.07922 50.8076 4.2314 50.8298 4.3877C50.8543 4.56531 50.8697 4.74405 50.8762 4.92323C50.8762 5.12494 50.8887 5.30702 50.894 5.47303C50.8959 5.61895 50.9126 5.76429 50.944 5.9068C50.9678 6.0184 51.0193 6.12217 51.094 6.20848C51.1809 6.2935 51.2942 6.34638 51.4153 6.35843C51.4403 6.35843 51.4778 6.36735 51.5277 6.37092C51.5817 6.37692 51.6359 6.3799 51.6902 6.37985C51.6723 6.48695 51.6545 6.59227 51.6384 6.69938C51.5866 6.69938 51.5313 6.69938 51.4724 6.69938C51.4135 6.69938 51.3528 6.69938 51.2939 6.69938L51.1154 6.68153L50.9654 6.66011C50.7633 6.63732 50.5661 6.58185 50.3817 6.49588C50.2548 6.43454 50.15 6.33538 50.0818 6.21205C50.0149 6.07873 49.9772 5.93268 49.9711 5.78363C49.9604 5.61584 49.9569 5.42662 49.9569 5.19099C49.9569 4.85896 49.9462 4.58049 49.9301 4.352C49.9218 4.16078 49.8807 3.9724 49.8087 3.79506C49.7491 3.6562 49.6448 3.54123 49.5124 3.46839C49.3367 3.38119 49.1457 3.32904 48.9501 3.31487C48.6645 3.28274 48.3771 3.25061 48.0897 3.22205C48.0004 4.10626 47.9106 4.98987 47.8201 5.87289C48.1289 5.90323 48.4378 5.93715 48.7448 5.97285L48.7073 6.30487C47.8231 6.20372 46.9389 6.11982 46.0547 6.05318C46.0636 5.9425 46.0725 5.83004 46.0797 5.71937C46.3742 5.74079 46.6688 5.76578 46.9615 5.79077C47.1198 3.99499 47.2781 2.19979 47.4363 0.405197C47.1186 0.37842 46.8009 0.351644 46.4831 0.328438C46.4831 0.217763 46.4992 0.105304 46.5081 -0.00537109C47.3971 0.0636519 48.2801 0.14755 49.1572 0.246325ZM48.1343 2.89538L48.7466 2.95964C49.0247 2.99603 49.3059 3.00321 49.5856 2.98106C49.7847 2.96844 49.9786 2.91173 50.1532 2.81505C50.3024 2.72937 50.4229 2.60141 50.4995 2.44732C50.5863 2.26371 50.6423 2.06713 50.6655 1.86539C50.6935 1.69816 50.6935 1.52744 50.6655 1.36021C50.6372 1.21633 50.5603 1.08653 50.4478 0.992487C50.2988 0.871967 50.126 0.78436 49.9408 0.735436C49.6547 0.654793 49.362 0.599833 49.0661 0.571209C48.8376 0.546218 48.6091 0.521227 48.3806 0.499806C48.2985 1.29714 48.2164 2.09566 48.1343 2.89538Z" fill="white"/>
<path id="Vector_16" d="M55.7927 6.36034C55.6425 6.6998 55.3813 6.97805 55.0519 7.14934C54.7067 7.30413 54.3198 7.33931 53.9523 7.2493C53.6829 7.20451 53.4251 7.10683 53.1936 6.96191C52.991 6.82994 52.8168 6.65879 52.6813 6.45852C52.5503 6.26113 52.4599 6.03964 52.4154 5.80696C52.3213 5.30984 52.4107 4.79547 52.667 4.35927C52.7918 4.1481 52.9597 3.96562 53.1597 3.82374C53.3639 3.68011 53.5954 3.57986 53.8398 3.5292C54.1112 3.47204 54.3914 3.47204 54.6628 3.5292C54.9106 3.57448 55.1471 3.66787 55.3589 3.80411C55.546 3.92495 55.7044 4.08518 55.8231 4.27358C55.9412 4.45931 56.0184 4.66801 56.0498 4.88586C56.0813 5.12375 56.0717 5.36529 56.0212 5.59989C55.1287 5.39758 54.2332 5.21491 53.3347 5.05187L53.3133 5.14291C53.3133 5.15898 53.3133 5.16969 53.3133 5.16969C53.2586 5.43439 53.2359 5.70466 53.2454 5.97476C53.2513 6.1531 53.2944 6.32824 53.3722 6.48886C53.4355 6.61237 53.5335 6.71473 53.6542 6.7834C53.7819 6.85133 53.9191 6.89948 54.0612 6.92621C54.1966 6.95492 54.3354 6.96454 54.4736 6.95477C54.6042 6.94602 54.7319 6.91271 54.8502 6.85659C54.9748 6.79496 55.0877 6.71222 55.184 6.61203C55.2968 6.48998 55.3923 6.35304 55.4678 6.20503C55.5258 6.22315 55.5825 6.24522 55.6374 6.27108C55.6908 6.2979 55.7427 6.3277 55.7927 6.36034ZM55.1929 5.08758C55.2298 4.90136 55.2424 4.71116 55.2304 4.52171C55.2208 4.39662 55.1849 4.27497 55.1251 4.16469C55.0728 4.07334 54.9954 3.99898 54.902 3.95048C54.6933 3.84606 54.4596 3.80216 54.2272 3.82374C54.114 3.83235 54.0044 3.86785 53.9077 3.92728C53.7973 4.00505 53.7048 4.10546 53.6364 4.22181C53.5408 4.38207 53.4686 4.5552 53.4221 4.73592C54.0112 4.84659 54.6021 4.96441 55.1929 5.08758Z" fill="white"/>
<path id="Vector_17" d="M59.442 5.99437C59.4747 5.84013 59.4837 5.68184 59.4688 5.52489C59.4591 5.39809 59.4187 5.27556 59.351 5.16788C59.2855 5.06744 59.1975 4.9837 59.0939 4.92332C58.9708 4.85164 58.8379 4.79814 58.6994 4.76445C58.5908 4.73557 58.4796 4.71763 58.3674 4.7109C58.2732 4.70447 58.1785 4.71352 58.0872 4.73767C58.0075 4.75894 57.9349 4.8008 57.8765 4.85906C57.8158 4.92257 57.7738 5.00165 57.7551 5.08755C57.7329 5.16876 57.7329 5.25446 57.7551 5.33567C57.7845 5.41563 57.8336 5.48686 57.8979 5.54274C57.9888 5.62737 58.0874 5.70327 58.1925 5.76945L58.637 6.0497C58.778 6.13896 58.9154 6.22821 59.0493 6.32639C59.1779 6.41493 59.2943 6.51995 59.3956 6.63878C59.4889 6.74749 59.5582 6.8746 59.5991 7.01186C59.6401 7.15837 59.6363 7.31376 59.5884 7.45813C59.5442 7.62997 59.4497 7.78472 59.3171 7.90261C59.1877 8.01521 59.0346 8.097 58.869 8.14181C58.6901 8.19075 58.5045 8.21123 58.3192 8.20251C58.1215 8.19526 57.9252 8.16653 57.7337 8.11682C57.6302 8.09005 57.5231 8.05613 57.4106 8.01507C57.2982 7.97402 57.1857 7.93117 57.0786 7.88476C56.9715 7.83835 56.868 7.78837 56.7716 7.73839C56.6752 7.6884 56.5931 7.63842 56.5234 7.5938L56.7644 6.40672L57.0679 6.47991C57.0338 6.65624 57.0224 6.83621 57.034 7.01543C57.043 7.1505 57.0827 7.28175 57.15 7.39922C57.2158 7.50577 57.3072 7.59415 57.416 7.65627C57.5461 7.72879 57.6854 7.78343 57.8301 7.81871C57.9469 7.85029 58.0665 7.87062 58.1871 7.87941C58.2877 7.88765 58.3889 7.87982 58.487 7.8562C58.575 7.83554 58.6556 7.79117 58.7201 7.72791C58.7846 7.66466 58.8306 7.58493 58.853 7.4974C58.877 7.4217 58.8801 7.34088 58.8619 7.26356C58.837 7.18822 58.7948 7.11975 58.7387 7.06363C58.6608 6.98493 58.5746 6.91491 58.4817 6.85477C58.3728 6.78337 58.2425 6.69769 58.0907 6.60129C57.939 6.5049 57.7926 6.40672 57.6534 6.30854C57.5215 6.22014 57.4015 6.11515 57.2964 5.99615C57.2011 5.88975 57.1293 5.76445 57.0857 5.62843C57.0435 5.48084 57.0435 5.32438 57.0857 5.1768C57.1204 5.00744 57.2035 4.85178 57.3249 4.72875C57.443 4.61467 57.586 4.52971 57.7426 4.48062C57.9159 4.42713 58.097 4.40358 58.2782 4.411C58.4755 4.41762 58.6713 4.44697 58.8619 4.49847C58.9665 4.52509 59.0696 4.55727 59.1707 4.59487C59.276 4.63414 59.3796 4.67519 59.4831 4.72161C59.5866 4.76802 59.6812 4.81265 59.7741 4.85906L60.0258 4.99294C59.9329 5.34995 59.8473 5.72125 59.7491 6.08362L59.442 5.99437Z" fill="white"/>
<path id="Vector_18" d="M63.7043 8.65769C63.5122 8.97559 63.2176 9.2186 62.8689 9.34673C62.5043 9.4576 62.1132 9.44442 61.7568 9.30924C61.4979 9.22849 61.2572 9.09814 61.0481 8.92545C60.8615 8.77234 60.7086 8.5823 60.5989 8.36727C60.4893 8.15223 60.4252 7.91685 60.4109 7.67589C60.3771 7.17043 60.5295 6.67009 60.8393 6.26925C60.9901 6.07606 61.1799 5.91672 61.3962 5.80156C61.618 5.68525 61.8607 5.61425 62.1103 5.59271C62.3884 5.57165 62.6679 5.60811 62.9314 5.69981C63.1726 5.77494 63.3969 5.89619 63.5919 6.05683C63.764 6.19824 63.9028 6.37585 63.9984 6.57702C64.0941 6.77818 64.1442 6.99796 64.1452 7.2207C64.1485 7.46351 64.1099 7.70507 64.031 7.93473C63.1611 7.62294 62.2858 7.32899 61.4052 7.0529L61.3712 7.14037V7.16715C61.285 7.42268 61.2292 7.68752 61.2052 7.95615C61.1887 8.13719 61.2106 8.31969 61.2695 8.49167C61.3177 8.62292 61.4033 8.73712 61.5158 8.82013C61.6354 8.90464 61.7672 8.97027 61.9068 9.0147C62.039 9.0585 62.1765 9.0849 62.3155 9.09325C62.4467 9.10114 62.5781 9.08418 62.7029 9.04326C62.8327 8.99715 62.9535 8.9289 63.0599 8.84155C63.1877 8.73554 63.2995 8.6117 63.3919 8.47382C63.4481 8.49911 63.5024 8.52834 63.5544 8.56129C63.6115 8.58628 63.6597 8.62199 63.7043 8.65769ZM63.2598 7.31888C63.3182 7.1377 63.3542 6.95006 63.3669 6.76015C63.3749 6.63149 63.3535 6.5027 63.3045 6.3835C63.2634 6.28606 63.1952 6.20243 63.1081 6.14251C63.0144 6.07967 62.9122 6.03039 62.8047 5.99614C62.6898 5.9561 62.5693 5.93442 62.4476 5.93187C62.3312 5.92971 62.216 5.95606 62.112 6.00863C61.9922 6.07167 61.887 6.15926 61.8032 6.26568C61.6894 6.41261 61.5968 6.57487 61.5283 6.74765C62.1079 6.92973 62.6851 7.12014 63.2598 7.31888Z" fill="white"/>
<path id="Vector_19" d="M67.6559 11.4567C67.5417 11.4291 67.429 11.3951 67.3185 11.355L67.0811 11.2604C66.96 11.2126 66.844 11.1528 66.7348 11.0819C66.6637 11.0308 66.6031 10.9666 66.5563 10.8926C66.5196 10.8317 66.4999 10.7621 66.4992 10.6909C66.4999 10.6174 66.5126 10.5444 66.5367 10.4749H66.5153C66.4031 10.5402 66.2831 10.5912 66.1582 10.6267C66.0463 10.6598 65.9304 10.6779 65.8137 10.6802C65.7017 10.6828 65.5897 10.6726 65.4799 10.6499C65.3727 10.6279 65.2676 10.5969 65.1657 10.557C65.0112 10.4996 64.8667 10.4182 64.7373 10.3161C64.6261 10.2286 64.5332 10.12 64.4642 9.99653C64.4034 9.88676 64.3681 9.76477 64.3607 9.63952C64.3537 9.508 64.375 9.37652 64.4231 9.25394C64.5588 8.89692 64.8551 8.68628 65.3157 8.64701C65.7762 8.60774 66.3867 8.72734 67.115 9.01831C67.1668 8.90406 67.2114 8.80053 67.2525 8.70771C67.2935 8.61488 67.331 8.5292 67.3685 8.43459C67.4149 8.34979 67.4425 8.25605 67.4496 8.15967C67.4567 8.0633 67.443 7.96652 67.4096 7.87586C67.3056 7.70535 67.1432 7.57846 66.9526 7.51884C66.8115 7.45944 66.6633 7.41863 66.5117 7.39746C66.3936 7.37679 66.2728 7.37679 66.1547 7.39746C66.1979 7.47389 66.2253 7.5583 66.235 7.64559C66.2431 7.71869 66.2339 7.79266 66.2082 7.86158C66.1894 7.91312 66.1597 7.96003 66.1212 7.99914C66.0828 8.03825 66.0363 8.06864 65.9851 8.08828C65.8686 8.12908 65.7409 8.12397 65.6281 8.074C65.5712 8.05174 65.5178 8.0217 65.4692 7.98475C65.4216 7.95139 65.3825 7.90738 65.355 7.85622C65.3262 7.80593 65.3091 7.7498 65.305 7.692C65.3003 7.62568 65.3107 7.55916 65.3353 7.49742C65.3786 7.38697 65.4538 7.29191 65.5513 7.22431C65.6692 7.14177 65.805 7.08853 65.9476 7.06901C66.1327 7.0395 66.3213 7.0395 66.5063 7.06901C66.7517 7.10687 66.9915 7.17461 67.2204 7.27072C67.409 7.34476 67.5887 7.43997 67.7559 7.55455C67.8919 7.64773 68.0058 7.76959 68.0897 7.91156C68.166 8.045 68.2037 8.19705 68.1986 8.35069C68.188 8.54102 68.1414 8.7276 68.0611 8.90049C68.0397 8.95226 68.0022 9.03616 67.9505 9.15219L67.7719 9.53598C67.7077 9.67522 67.6452 9.81624 67.5809 9.96083L67.4185 10.3535C67.3703 10.466 67.3328 10.5606 67.306 10.6392C67.2817 10.7024 67.2696 10.7696 67.2703 10.8373C67.2718 10.8891 67.2921 10.9387 67.3275 10.9765C67.3789 11.0246 67.4397 11.0617 67.506 11.0854C67.5978 11.1237 67.692 11.1559 67.788 11.1818C67.7416 11.2675 67.7005 11.3621 67.6559 11.4567ZM66.9954 9.29857C66.7464 9.19784 66.4898 9.11725 66.2279 9.05758C66.0642 9.0187 65.895 9.00903 65.728 9.02902C65.6136 9.04439 65.5071 9.09636 65.4246 9.17718C65.3473 9.26205 65.2867 9.36077 65.2461 9.46815C65.1712 9.62659 65.1572 9.80703 65.2068 9.97511C65.234 10.0437 65.2754 10.1057 65.3283 10.1571C65.3812 10.2085 65.4445 10.2481 65.5138 10.2732C65.6136 10.3099 65.7183 10.3316 65.8244 10.3375C65.9491 10.3474 66.0745 10.3334 66.1939 10.2964C66.3255 10.2544 66.447 10.1857 66.551 10.0947C66.6774 9.97821 66.7752 9.83402 66.8366 9.67343L66.9954 9.29857Z" fill="white"/>
<path id="Vector_20" d="M70.0603 12.5779C69.3999 12.253 68.7352 11.9401 68.0664 11.639L68.2039 11.3337L68.8197 11.6158L70.0336 8.98814L69.3909 8.69538L69.5266 8.39014C70.0026 8.60435 70.4757 8.82391 70.9457 9.04883L70.6673 9.63969H70.6833C70.7809 9.56549 70.8885 9.5054 71.0029 9.46118C71.1174 9.41494 71.2374 9.38374 71.3599 9.36836C71.4783 9.35139 71.5985 9.35139 71.7169 9.36836C71.8337 9.38495 71.9471 9.42053 72.0525 9.47368C72.2085 9.54171 72.3352 9.66326 72.4095 9.81641C72.4423 9.88653 72.4578 9.96349 72.4547 10.0408C72.4516 10.1182 72.43 10.1936 72.3916 10.2609C72.3649 10.3219 72.3251 10.3763 72.2752 10.4204C72.2253 10.4645 72.1663 10.4972 72.1025 10.5162C71.9726 10.5474 71.8357 10.5289 71.7187 10.4644C71.6582 10.4398 71.6033 10.4032 71.5573 10.3569C71.5113 10.3106 71.4751 10.2555 71.4509 10.1948C71.4314 10.1416 71.4233 10.0848 71.4273 10.0281C71.4313 9.97152 71.4473 9.9164 71.4741 9.8664C71.5068 9.8029 71.551 9.746 71.6044 9.6986C71.4749 9.67907 71.3428 9.68452 71.2153 9.71466C71.0773 9.74737 70.9462 9.80417 70.8279 9.88246C70.6935 9.97174 70.5731 10.0806 70.4709 10.2056C70.3503 10.3515 70.2489 10.5123 70.1692 10.684L69.5569 11.9603L70.2085 12.2745C70.1532 12.378 70.1103 12.478 70.0603 12.5779Z" fill="white"/>
<path id="Vector_21" d="M75.0472 13.9519C74.794 14.235 74.4523 14.4237 74.0779 14.4874C73.6989 14.5277 73.3171 14.441 72.9926 14.2411C72.7469 14.1101 72.5288 13.9332 72.35 13.7198C72.1897 13.5306 72.0684 13.3116 71.993 13.0754C71.9227 12.8444 71.899 12.6017 71.9233 12.3614C71.9778 11.857 72.2253 11.3932 72.6142 11.0672C72.8059 10.9061 73.0299 10.7881 73.2711 10.7209C73.5251 10.6521 73.7903 10.6345 74.0511 10.6691C74.3453 10.7089 74.629 10.8053 74.8866 10.953C75.0712 11.0544 75.2411 11.1805 75.3917 11.3278C75.52 11.4519 75.6289 11.5945 75.7148 11.7509C75.7854 11.8811 75.828 12.0246 75.8398 12.1722C75.8497 12.3004 75.8204 12.4286 75.7559 12.5399C75.7184 12.6087 75.6636 12.6665 75.597 12.7077C75.5424 12.7398 75.4815 12.7599 75.4185 12.7666C75.3549 12.7704 75.2911 12.7644 75.2293 12.7488C75.1716 12.7326 75.1159 12.7098 75.0633 12.6809C75.0038 12.6511 74.951 12.6096 74.9077 12.559C74.8645 12.5085 74.8318 12.4498 74.8116 12.3864C74.7938 12.3311 74.7877 12.2726 74.7939 12.2148C74.8 12.157 74.8182 12.1011 74.8473 12.0508C74.8887 11.9786 74.9469 11.9173 75.0169 11.8723C75.1015 11.8165 75.197 11.7794 75.2971 11.7634C75.2385 11.6402 75.1531 11.5317 75.0472 11.4457C74.9482 11.3606 74.8412 11.2852 74.7277 11.2207C74.6014 11.1495 74.4664 11.0949 74.326 11.0583C74.1845 11.0224 74.0357 11.0286 73.8976 11.0761C73.7262 11.1429 73.5719 11.2472 73.446 11.3814C73.2558 11.589 73.0954 11.8221 72.9694 12.074C72.8381 12.3041 72.7384 12.5509 72.6731 12.8077C72.6287 12.9792 72.6226 13.1584 72.6552 13.3325C72.6839 13.4719 72.7521 13.6002 72.8516 13.702C72.9568 13.8073 73.0771 13.8963 73.2086 13.9662C73.3278 14.0335 73.4557 14.084 73.5888 14.1161C73.716 14.1478 73.8479 14.1557 73.978 14.1393C74.1181 14.1199 74.2536 14.0751 74.3778 14.0072C74.5291 13.923 74.6669 13.8164 74.7866 13.6913C74.8378 13.7275 74.8867 13.7668 74.933 13.8091C74.974 13.8542 75.0122 13.9019 75.0472 13.9519Z" fill="white"/>
<path id="Vector_22" d="M76.349 15.7088C76.5275 15.8195 76.706 15.9302 76.8721 16.0426L76.6936 16.3229C76.0985 15.9397 75.4976 15.566 74.8906 15.2019L75.0691 14.9145L75.6582 15.2715L78.4858 10.6642C78.2733 10.5339 78.0627 10.4054 77.8503 10.2786L78.0074 9.99658C78.4774 10.2786 78.9445 10.566 79.4087 10.8588C78.8624 11.7263 78.3156 12.5927 77.7682 13.4578L77.7842 13.4686C78.0056 13.3595 78.2524 13.3126 78.4983 13.3329C78.7908 13.3701 79.0694 13.48 79.3087 13.6524C79.6836 13.8988 79.9049 14.1683 79.971 14.4503C80.0007 14.6031 79.9971 14.7605 79.9604 14.9118C79.9238 15.063 79.8549 15.2046 79.7585 15.3268L78.509 17.1422C78.6875 17.269 78.8767 17.3957 79.0588 17.5243L78.8678 17.7992C78.2942 17.391 77.7134 16.9917 77.1255 16.6014C77.1862 16.5085 77.2469 16.4229 77.304 16.3229C77.4826 16.4354 77.6504 16.5514 77.8217 16.6656L79.1016 14.7556C79.1603 14.6836 79.2026 14.5997 79.2258 14.5097C79.2489 14.4197 79.2522 14.3258 79.2355 14.2344C79.1778 14.0594 79.0568 13.9124 78.8963 13.822C78.7689 13.7356 78.6258 13.675 78.4751 13.6435C78.3267 13.615 78.1737 13.6223 78.0288 13.6649C77.863 13.7158 77.7097 13.8009 77.579 13.9148C77.4088 14.0624 77.263 14.2359 77.147 14.4289L76.349 15.7088Z" fill="white"/>
</g>
</g>
</g>
</g>
<defs>
<clipPath id="clip0_2171_11028">
<rect width="80" height="57" fill="white"/>
</clipPath>
</defs>
</svg>
