<svg width="24" height="25" viewBox="0 0 24 25" fill="none" xmlns="http://www.w3.org/2000/svg">
<g id="material-symbols:currency-rupee">
<path id="Vector" d="M13.725 21.5L7 14.5V12.5H10.5C11.3833 12.5 12.146 12.2123 12.788 11.637C13.4293 11.0623 13.8167 10.35 13.95 9.5H6V7.5H13.65C13.3667 6.91667 12.946 6.43733 12.388 6.062C11.8293 5.68733 11.2 5.5 10.5 5.5H6V3.5H18V5.5H14.75C14.9833 5.78333 15.1917 6.09167 15.375 6.425C15.5583 6.75833 15.7 7.11667 15.8 7.5H18V9.5H15.975C15.8417 10.9167 15.2583 12.104 14.225 13.062C13.1917 14.0207 11.95 14.5 10.5 14.5H9.775L16.5 21.5H13.725Z" fill="white"/>
</g>
</svg>
