<svg width="32" height="24" viewBox="0 0 32 24" fill="none" xmlns="http://www.w3.org/2000/svg">
<g id="YouTube svg" clip-path="url(#clip0_1255_20716)">
<g id="g10">
<g id="g12">
<path id="path14" d="M31.3313 3.74768C30.9633 2.27245 29.8791 1.11077 28.5022 0.716516C26.0067 0 16 0 16 0C16 0 5.99333 0 3.4978 0.716516C2.12102 1.11077 1.03665 2.27245 0.668678 3.74768C0 6.42141 0 12 0 12C0 12 0 17.5785 0.668678 20.2525C1.03665 21.7275 2.12102 22.8892 3.4978 23.2836C5.99333 24 16 24 16 24C16 24 26.0067 24 28.5022 23.2836C29.8791 22.8892 30.9633 21.7275 31.3313 20.2525C32 17.5785 32 12 32 12C32 12 32 6.42141 31.3313 3.74768Z" fill="black"/>
<path id="path16" d="M12.7266 17.0645L21.0902 11.9998L12.7266 6.93461V17.0645Z" fill="white"/>
</g>
</g>
</g>
<defs>
<clipPath id="clip0_1255_20716">
<rect width="32" height="24" fill="white"/>
</clipPath>
</defs>
</svg>
